<svg version="1.1" viewBox="0.0 0.0 960.0 540.0" fill="none" stroke="none" stroke-linecap="square" stroke-miterlimit="10" xmlns:xlink="http://www.w3.org/1999/xlink" xmlns="http://www.w3.org/2000/svg"><clipPath id="g5d031e9e09_0_746.0"><path d="m0 0l960.0 0l0 540.0l-960.0 0l0 -540.0z" clip-rule="nonzero"/></clipPath><g clip-path="url(#g5d031e9e09_0_746.0)"><path fill="#ffffff" d="m0 0l960.0 0l0 540.0l-960.0 0z" fill-rule="evenodd"/><path fill="#cccccc" d="m517.0903 178.54704l0 0c0 -24.718506 20.038269 -44.756805 44.756775 -44.756805l205.60449 0c11.870239 0 23.254333 4.715439 31.647888 13.108963c8.393494 8.393524 13.108948 19.777588 13.108948 31.647842l0 179.02184c0 24.718475 -20.03833 44.756805 -44.756836 44.756805l-205.60449 0c-24.718506 0 -44.756775 -20.03833 -44.756775 -44.756805z" fill-rule="evenodd"/><path fill="#cccccc" d="m147.80353 167.54172l0 0c0 -22.62819 18.343765 -40.971954 40.971954 -40.971954l163.88287 0l0 0c10.866425 0 21.287811 4.316681 28.971558 12.000412c7.683716 7.683731 12.000397 18.105103 12.000397 28.971542l0 186.59152c0 22.628204 -18.34378 40.971954 -40.971954 40.971954l-163.88287 0c-22.62819 0 -40.971954 -18.34375 -40.971954 -40.971954z" fill-rule="evenodd"/><path fill="#ffffff" d="m269.278 212.0l360.9134 0l0 75.24408l-360.9134 0z" fill-rule="evenodd"/><path stroke="#000000" stroke-width="2.0" stroke-linejoin="round" stroke-linecap="butt" d="m269.278 212.0l360.9134 0l0 75.24408l-360.9134 0z" fill-rule="evenodd"/><path fill="#000000" d="m423.40036 253.62268l0 -3.140625l-3.125 0l0 -1.3125l3.125 0l0 -3.109375l1.328125 0l0 3.109375l3.109375 0l0 1.3125l-3.109375 0l0 3.140625l-1.328125 0zm6.546875 1.859375l0 -11.453125l1.5625 0l6.015625 8.984375l0 -8.984375l1.453125 0l0 11.453125l-1.5625 0l-6.015625 -9.0l0 9.0l-1.453125 0zm14.0859375 3.375q-1.171875 -1.46875 -1.984375 -3.4375q-0.796875 -1.984375 -0.796875 -4.09375q0 -1.859375 0.609375 -3.5625q0.703125 -1.96875 2.171875 -3.9375l1.0 0q-0.9375 1.625 -1.25 2.328125q-0.46875 1.078125 -0.75 2.25q-0.328125 1.453125 -0.328125 2.9375q0 3.75 2.328125 7.515625l-1.0 0zm2.25 -9.03125q0 -2.03125 0.40625 -3.265625q0.421875 -1.234375 1.25 -1.90625q0.828125 -0.671875 2.078125 -0.671875q0.921875 0 1.609375 0.375q0.703125 0.359375 1.15625 1.0625q0.453125 0.703125 0.703125 1.703125q0.265625 1.0 0.265625 2.703125q0 2.015625 -0.421875 3.265625q-0.40625 1.234375 -1.234375 1.921875q-0.828125 0.671875 -2.078125 0.671875q-1.65625 0 -2.609375 -1.203125q-1.125 -1.421875 -1.125 -4.65625zm1.4375 0q0 2.828125 0.65625 3.765625q0.671875 0.921875 1.640625 0.921875q0.96875 0 1.625 -0.9375q0.65625 -0.9375 0.65625 -3.75q0 -2.828125 -0.65625 -3.75q-0.65625 -0.9375 -1.640625 -0.9375q-0.96875 0 -1.546875 0.828125q-0.734375 1.046875 -0.734375 3.859375zm8.2109375 5.65625l0 -1.609375l1.609375 0l0 1.609375q0 0.890625 -0.3125 1.421875q-0.3125 0.546875 -1.0 0.84375l-0.390625 -0.59375q0.453125 -0.203125 0.65625 -0.578125q0.21875 -0.375 0.234375 -1.09375l-0.796875 0zm12.5546875 -8.296875l0 1.140625l-2.265625 0q1.046875 0.96875 1.046875 3.015625q0 2.21875 -1.140625 3.28125q-1.140625 1.046875 -2.765625 1.046875q-1.6875 0 -2.78125 -1.09375q-1.09375 -1.09375 -1.09375 -3.25q0 -2.203125 1.140625 -3.265625q1.140625 -1.0625 2.734375 -1.0625q0.59375 0 1.328125 0.1875l3.796875 0zm-5.140625 0.96875q-1.03125 0 -1.71875 0.796875q-0.6875 0.796875 -0.6875 2.390625q0 1.578125 0.671875 2.375q0.671875 0.796875 1.75 0.796875q1.140625 0 1.796875 -0.828125q0.671875 -0.84375 0.671875 -2.359375q0 -1.375 -0.609375 -2.265625q-0.609375 -0.90625 -1.875 -0.90625z" fill-rule="nonzero"/><path fill="#000000" d="m474.18942 248.5758l0 0.90625l-5.03125 0q-0.015625 -0.34375 0.109375 -0.65625q0.1875 -0.515625 0.609375 -1.015625q0.421875 -0.5 1.234375 -1.140625q1.234375 -1.03125 1.671875 -1.625q0.4375 -0.59375 0.4375 -1.125q0 -0.5625 -0.40625 -0.9375q-0.390625 -0.390625 -1.03125 -0.390625q-0.671875 0 -1.078125 0.40625q-0.40625 0.40625 -0.40625 1.125l-0.96875 -0.09375q0.09375 -1.078125 0.734375 -1.640625q0.65625 -0.5625 1.734375 -0.5625q1.109375 0 1.75 0.609375q0.640625 0.609375 0.640625 1.5q0 0.46875 -0.1875 0.90625q-0.1875 0.4375 -0.625 0.9375q-0.4375 0.484375 -1.453125 1.328125q-0.828125 0.71875 -1.078125 0.96875q-0.234375 0.25 -0.390625 0.5l3.734375 0z" fill-rule="nonzero"/><path fill="#000000" d="m476.74094 258.85706l-1.015625 0q2.34375 -3.765625 2.34375 -7.515625q0 -1.46875 -0.34375 -2.921875q-0.265625 -1.171875 -0.734375 -2.25q-0.3125 -0.703125 -1.265625 -2.34375l1.015625 0q1.46875 1.96875 2.171875 3.9375q0.59375 1.703125 0.59375 3.5625q0 2.109375 -0.8125 4.09375q-0.796875 1.96875 -1.953125 3.4375z" fill-rule="nonzero"/><path fill="#f9cb9c" d="m319.2285 229.80046l0 0c0 -2.9397278 2.3831177 -5.32283 5.3228455 -5.32283l0 0c1.4117126 0 2.7655945 0.560791 3.7638245 1.559021c0.99823 0.9982147 1.559021 2.3521118 1.559021 3.7638092l0 0c0 2.9397125 -2.3831177 5.32283 -5.3228455 5.32283l0 0c-2.9397278 0 -5.3228455 -2.3831177 -5.3228455 -5.32283z" fill-rule="evenodd"/><path stroke="#000000" stroke-width="1.0" stroke-linejoin="round" stroke-linecap="butt" d="m319.2285 229.80046l0 0c0 -2.9397278 2.3831177 -5.32283 5.3228455 -5.32283l0 0c1.4117126 0 2.7655945 0.560791 3.7638245 1.559021c0.99823 0.9982147 1.559021 2.3521118 1.559021 3.7638092l0 0c0 2.9397125 -2.3831177 5.32283 -5.3228455 5.32283l0 0c-2.9397278 0 -5.3228455 -2.3831177 -5.3228455 -5.32283z" fill-rule="evenodd"/><path fill="#f9cb9c" d="m319.2285 243.2744l0 0c0 -2.9397125 2.3831177 -5.32283 5.3228455 -5.32283l0 0c1.4117126 0 2.7655945 0.560791 3.7638245 1.559021c0.99823 0.9982147 1.559021 2.3521118 1.559021 3.7638092l0 0c0 2.9397278 -2.3831177 5.32283 -5.3228455 5.32283l0 0c-2.9397278 0 -5.3228455 -2.3831024 -5.3228455 -5.32283z" fill-rule="evenodd"/><path stroke="#000000" stroke-width="1.0" stroke-linejoin="round" stroke-linecap="butt" d="m319.2285 243.2744l0 0c0 -2.9397125 2.3831177 -5.32283 5.3228455 -5.32283l0 0c1.4117126 0 2.7655945 0.560791 3.7638245 1.559021c0.99823 0.9982147 1.559021 2.3521118 1.559021 3.7638092l0 0c0 2.9397278 -2.3831177 5.32283 -5.3228455 5.32283l0 0c-2.9397278 0 -5.3228455 -2.3831024 -5.3228455 -5.32283z" fill-rule="evenodd"/><path fill="#f9cb9c" d="m319.2285 256.74835l0 0c0 -2.9397278 2.3831177 -5.3228455 5.3228455 -5.3228455l0 0c1.4117126 0 2.7655945 0.560791 3.7638245 1.559021c0.99823 0.99823 1.559021 2.3521118 1.559021 3.7638245l0 0c0 2.9396973 -2.3831177 5.322815 -5.3228455 5.322815l0 0c-2.9397278 0 -5.3228455 -2.3831177 -5.3228455 -5.322815z" fill-rule="evenodd"/><path stroke="#000000" stroke-width="1.0" stroke-linejoin="round" stroke-linecap="butt" d="m319.2285 256.74835l0 0c0 -2.9397278 2.3831177 -5.3228455 5.3228455 -5.3228455l0 0c1.4117126 0 2.7655945 0.560791 3.7638245 1.559021c0.99823 0.99823 1.559021 2.3521118 1.559021 3.7638245l0 0c0 2.9396973 -2.3831177 5.322815 -5.3228455 5.322815l0 0c-2.9397278 0 -5.3228455 -2.3831177 -5.3228455 -5.322815z" fill-rule="evenodd"/><path fill="#f9cb9c" d="m319.2285 270.2223l0 0c0 -2.9397278 2.3831177 -5.3228455 5.3228455 -5.3228455l0 0c1.4117126 0 2.7655945 0.560791 3.7638245 1.559021c0.99823 0.99823 1.559021 2.3521118 1.559021 3.7638245l0 0c0 2.9396973 -2.3831177 5.322815 -5.3228455 5.322815l0 0c-2.9397278 0 -5.3228455 -2.3831177 -5.3228455 -5.322815z" fill-rule="evenodd"/><path stroke="#000000" stroke-width="1.0" stroke-linejoin="round" stroke-linecap="butt" d="m319.2285 270.2223l0 0c0 -2.9397278 2.3831177 -5.3228455 5.3228455 -5.3228455l0 0c1.4117126 0 2.7655945 0.560791 3.7638245 1.559021c0.99823 0.99823 1.559021 2.3521118 1.559021 3.7638245l0 0c0 2.9396973 -2.3831177 5.322815 -5.3228455 5.322815l0 0c-2.9397278 0 -5.3228455 -2.3831177 -5.3228455 -5.322815z" fill-rule="evenodd"/><path fill="#b4a7d6" d="m289.6365 243.3838l0 0c0 -2.9397125 2.3831177 -5.32283 5.3228455 -5.32283l0 0c1.4116821 0 2.765564 0.560791 3.763794 1.559021c0.99823 0.99823 1.559021 2.3521118 1.559021 3.7638092l0 0c0 2.9397278 -2.3831177 5.3228455 -5.322815 5.3228455l0 0c-2.9397278 0 -5.3228455 -2.3831177 -5.3228455 -5.3228455z" fill-rule="evenodd"/><path stroke="#000000" stroke-width="1.0" stroke-linejoin="round" stroke-linecap="butt" d="m289.6365 243.3838l0 0c0 -2.9397125 2.3831177 -5.32283 5.3228455 -5.32283l0 0c1.4116821 0 2.765564 0.560791 3.763794 1.559021c0.99823 0.99823 1.559021 2.3521118 1.559021 3.7638092l0 0c0 2.9397278 -2.3831177 5.3228455 -5.322815 5.3228455l0 0c-2.9397278 0 -5.3228455 -2.3831177 -5.3228455 -5.3228455z" fill-rule="evenodd"/><path fill="#b4a7d6" d="m289.6365 256.85776l0 0c0 -2.9397278 2.3831177 -5.3228455 5.3228455 -5.3228455l0 0c1.4116821 0 2.765564 0.560791 3.763794 1.559021c0.99823 0.99823 1.559021 2.3521118 1.559021 3.7638245l0 0c0 2.9396973 -2.3831177 5.322815 -5.322815 5.322815l0 0c-2.9397278 0 -5.3228455 -2.3831177 -5.3228455 -5.322815z" fill-rule="evenodd"/><path stroke="#000000" stroke-width="1.0" stroke-linejoin="round" stroke-linecap="butt" d="m289.6365 256.85776l0 0c0 -2.9397278 2.3831177 -5.3228455 5.3228455 -5.3228455l0 0c1.4116821 0 2.765564 0.560791 3.763794 1.559021c0.99823 0.99823 1.559021 2.3521118 1.559021 3.7638245l0 0c0 2.9396973 -2.3831177 5.322815 -5.322815 5.322815l0 0c-2.9397278 0 -5.3228455 -2.3831177 -5.3228455 -5.322815z" fill-rule="evenodd"/><path fill="#b6d7a8" d="m366.8222 243.33022l0 0c0 -2.9397125 2.3831177 -5.32283 5.3228455 -5.32283l0 0c1.4116821 0 2.765564 0.560791 3.763794 1.559021c0.99823 0.99823 1.559021 2.3521118 1.559021 3.7638092l0 0c0 2.9397278 -2.3831177 5.32283 -5.322815 5.32283l0 0c-2.9397278 0 -5.3228455 -2.3831024 -5.3228455 -5.32283z" fill-rule="evenodd"/><path stroke="#000000" stroke-width="1.0" stroke-linejoin="round" stroke-linecap="butt" d="m366.8222 243.33022l0 0c0 -2.9397125 2.3831177 -5.32283 5.3228455 -5.32283l0 0c1.4116821 0 2.765564 0.560791 3.763794 1.559021c0.99823 0.99823 1.559021 2.3521118 1.559021 3.7638092l0 0c0 2.9397278 -2.3831177 5.32283 -5.322815 5.32283l0 0c-2.9397278 0 -5.3228455 -2.3831024 -5.3228455 -5.32283z" fill-rule="evenodd"/><path fill="#b6d7a8" d="m366.8222 256.80417l0 0c0 -2.9397278 2.3831177 -5.3228455 5.3228455 -5.3228455l0 0c1.4116821 0 2.765564 0.560791 3.763794 1.559021c0.99823 0.99823 1.559021 2.3521118 1.559021 3.7638245l0 0c0 2.9396973 -2.3831177 5.322815 -5.322815 5.322815l0 0c-2.9397278 0 -5.3228455 -2.3831177 -5.3228455 -5.322815z" fill-rule="evenodd"/><path stroke="#000000" stroke-width="1.0" stroke-linejoin="round" stroke-linecap="butt" d="m366.8222 256.80417l0 0c0 -2.9397278 2.3831177 -5.3228455 5.3228455 -5.3228455l0 0c1.4116821 0 2.765564 0.560791 3.763794 1.559021c0.99823 0.99823 1.559021 2.3521118 1.559021 3.7638245l0 0c0 2.9396973 -2.3831177 5.322815 -5.322815 5.322815l0 0c-2.9397278 0 -5.3228455 -2.3831177 -5.3228455 -5.322815z" fill-rule="evenodd"/><path fill="#000000" fill-opacity="0.0" d="m300.28217 243.3838l18.960632 -13.574799" fill-rule="evenodd"/><path stroke="#000000" stroke-width="1.0" stroke-linejoin="round" stroke-linecap="butt" d="m300.28217 243.38382l16.174103 -11.579788" fill-rule="evenodd"/><path fill="#000000" stroke="#000000" stroke-width="1.0" stroke-linecap="butt" d="m316.45627 231.80403l-0.2597351 1.569046l1.857605 -2.7130432l-3.1669312 0.8842621z" fill-rule="evenodd"/><path fill="#000000" fill-opacity="0.0" d="m300.28217 243.3838l18.960632 -0.09448242" fill-rule="evenodd"/><path stroke="#000000" stroke-width="1.0" stroke-linejoin="round" stroke-linecap="butt" d="m300.28217 243.38382l15.5336 -0.07740784" fill-rule="evenodd"/><path fill="#000000" stroke="#000000" stroke-width="1.0" stroke-linecap="butt" d="m315.81577 243.30641l-1.1189575 1.1301727l3.0841064 -1.1399689l-3.095337 -1.1091766z" fill-rule="evenodd"/><path fill="#000000" fill-opacity="0.0" d="m300.28217 243.3838l18.960632 13.354324" fill-rule="evenodd"/><path stroke="#000000" stroke-width="1.0" stroke-linejoin="round" stroke-linecap="butt" d="m300.28217 243.38382l16.158752 11.380905" fill-rule="evenodd"/><path fill="#000000" stroke="#000000" stroke-width="1.0" stroke-linecap="butt" d="m316.44092 254.76472l-1.5669861 0.27186584l3.1736755 0.85975647l-1.87854 -2.6986084z" fill-rule="evenodd"/><path fill="#000000" fill-opacity="0.0" d="m300.28217 243.3838l18.960632 26.83464" fill-rule="evenodd"/><path stroke="#000000" stroke-width="1.0" stroke-linejoin="round" stroke-linecap="butt" d="m300.28217 243.38382l16.983002 24.035736" fill-rule="evenodd"/><path fill="#000000" stroke="#000000" stroke-width="1.0" stroke-linecap="butt" d="m317.26517 267.41956l-1.5674133 -0.26950073l2.7014465 1.8744812l-0.8645325 -3.1723938z" fill-rule="evenodd"/><path fill="#000000" fill-opacity="0.0" d="m300.28217 256.85776l18.960632 -27.05513" fill-rule="evenodd"/><path stroke="#000000" stroke-width="1.0" stroke-linejoin="round" stroke-linecap="butt" d="m300.28217 256.85776l16.993805 -24.248611" fill-rule="evenodd"/><path fill="#000000" stroke="#000000" stroke-width="1.0" stroke-linecap="butt" d="m317.27597 232.60915l0.2755127 1.5663452l0.85232544 -3.1756744l-2.6941833 1.8848572z" fill-rule="evenodd"/><path fill="#000000" fill-opacity="0.0" d="m300.28217 256.85776l18.960632 -13.574814" fill-rule="evenodd"/><path stroke="#000000" stroke-width="1.0" stroke-linejoin="round" stroke-linecap="butt" d="m300.28217 256.85776l16.174103 -11.579788" fill-rule="evenodd"/><path fill="#000000" stroke="#000000" stroke-width="1.0" stroke-linecap="butt" d="m316.45627 245.27797l-0.2597351 1.569046l1.857605 -2.7130432l-3.1669312 0.8842621z" fill-rule="evenodd"/><path fill="#000000" fill-opacity="0.0" d="m300.28217 256.85776l18.960632 -0.09451294" fill-rule="evenodd"/><path stroke="#000000" stroke-width="1.0" stroke-linejoin="round" stroke-linecap="butt" d="m300.28217 256.85776l15.5336 -0.077423096" fill-rule="evenodd"/><path fill="#000000" stroke="#000000" stroke-width="1.0" stroke-linecap="butt" d="m315.81577 256.78033l-1.1189575 1.130188l3.0841064 -1.1399841l-3.095337 -1.1091614z" fill-rule="evenodd"/><path fill="#000000" fill-opacity="0.0" d="m300.28217 256.85776l18.960632 13.354309" fill-rule="evenodd"/><path stroke="#000000" stroke-width="1.0" stroke-linejoin="round" stroke-linecap="butt" d="m300.28217 256.85776l16.158752 11.38089" fill-rule="evenodd"/><path fill="#000000" stroke="#000000" stroke-width="1.0" stroke-linecap="butt" d="m316.44092 268.23868l-1.5669861 0.2718506l3.1736755 0.8597412l-1.87854 -2.6986084z" fill-rule="evenodd"/><path fill="#000000" fill-opacity="0.0" d="m329.87418 229.80046l36.944885 13.543304" fill-rule="evenodd"/><path stroke="#000000" stroke-width="1.0" stroke-linejoin="round" stroke-linecap="butt" d="m329.87415 229.80046l33.727234 12.36377" fill-rule="evenodd"/><path fill="#000000" stroke="#000000" stroke-width="1.0" stroke-linecap="butt" d="m363.60135 242.16422l-1.4429321 0.66882324l3.2880554 0.0075683594l-2.513916 -2.1193237z" fill-rule="evenodd"/><path fill="#000000" fill-opacity="0.0" d="m329.87418 243.2744l36.944885 0.06298828" fill-rule="evenodd"/><path stroke="#000000" stroke-width="1.0" stroke-linejoin="round" stroke-linecap="butt" d="m329.87415 243.2744l33.517822 0.057144165" fill-rule="evenodd"/><path fill="#000000" stroke="#000000" stroke-width="1.0" stroke-linecap="butt" d="m363.39197 243.33154l-1.1264954 1.1226654l3.0916748 -1.1193085l-3.0878296 -1.1298523z" fill-rule="evenodd"/><path fill="#000000" fill-opacity="0.0" d="m329.87418 256.74835l36.944885 -13.417343" fill-rule="evenodd"/><path stroke="#000000" stroke-width="1.0" stroke-linejoin="round" stroke-linecap="butt" d="m329.87415 256.74835l33.723663 -12.247467" fill-rule="evenodd"/><path fill="#000000" stroke="#000000" stroke-width="1.0" stroke-linecap="butt" d="m363.59784 244.50087l-0.67315674 1.440918l2.5202942 -2.11174l-3.2880554 -0.002319336z" fill-rule="evenodd"/><path fill="#000000" fill-opacity="0.0" d="m329.87418 270.2223l36.944885 -26.897644" fill-rule="evenodd"/><path stroke="#000000" stroke-width="1.0" stroke-linejoin="round" stroke-linecap="butt" d="m329.87415 270.2223l34.174316 -24.880524" fill-rule="evenodd"/><path fill="#000000" stroke="#000000" stroke-width="1.0" stroke-linecap="butt" d="m364.04846 245.34175l-0.2472229 1.5710754l1.835968 -2.7277374l-3.15979 0.9094238z" fill-rule="evenodd"/><path fill="#000000" fill-opacity="0.0" d="m329.87418 229.80046l36.944885 26.992111" fill-rule="evenodd"/><path stroke="#000000" stroke-width="1.0" stroke-linejoin="round" stroke-linecap="butt" d="m329.87415 229.80046l34.177704 24.970398" fill-rule="evenodd"/><path fill="#000000" stroke="#000000" stroke-width="1.0" stroke-linecap="butt" d="m364.05185 254.77084l-1.5714722 0.2446289l3.1582642 0.91470337l-1.8314209 -2.7308044z" fill-rule="evenodd"/><path fill="#000000" fill-opacity="0.0" d="m329.87418 243.2744l36.944885 13.54332" fill-rule="evenodd"/><path stroke="#000000" stroke-width="1.0" stroke-linejoin="round" stroke-linecap="butt" d="m329.87415 243.2744l33.727234 12.36377" fill-rule="evenodd"/><path fill="#000000" stroke="#000000" stroke-width="1.0" stroke-linecap="butt" d="m363.60135 255.63815l-1.4429321 0.66882324l3.2880554 0.0075683594l-2.513916 -2.1193237z" fill-rule="evenodd"/><path fill="#000000" fill-opacity="0.0" d="m329.87418 256.74835l36.944885 0.06298828" fill-rule="evenodd"/><path stroke="#000000" stroke-width="1.0" stroke-linejoin="round" stroke-linecap="butt" d="m329.87415 256.74835l33.517822 0.057128906" fill-rule="evenodd"/><path fill="#000000" stroke="#000000" stroke-width="1.0" stroke-linecap="butt" d="m363.39197 256.80548l-1.1264954 1.1226807l3.0916748 -1.1193237l-3.0878296 -1.1298523z" fill-rule="evenodd"/><path fill="#000000" fill-opacity="0.0" d="m329.87418 270.2223l36.944885 -13.417328" fill-rule="evenodd"/><path stroke="#000000" stroke-width="1.0" stroke-linejoin="round" stroke-linecap="butt" d="m329.87415 270.2223l33.723663 -12.247467" fill-rule="evenodd"/><path fill="#000000" stroke="#000000" stroke-width="1.0" stroke-linecap="butt" d="m363.59784 257.97482l-0.67315674 1.440918l2.5202942 -2.1117554l-3.2880554 -0.002319336z" fill-rule="evenodd"/><path fill="#000000" fill-opacity="0.0" d="m269.2755 168.92651l120.15747 0l0 41.165344l-120.15747 0z" fill-rule="evenodd"/><path fill="#000000" d="m311.516 195.84651l0 -13.359375l4.03125 0l2.421875 9.109375l2.390625 -9.109375l4.046875 0l0 13.359375l-2.5 0l0 -10.515625l-2.65625 10.515625l-2.59375 0l-2.640625 -10.515625l0 10.515625l-2.5 0zm14.962677 -4.96875q0 -1.28125 0.625 -2.46875q0.625 -1.203125 1.78125 -1.828125q1.15625 -0.625 2.578125 -0.625q2.1875 0 3.59375 1.421875q1.40625 1.421875 1.40625 3.609375q0 2.1875 -1.421875 3.640625q-1.421875 1.4375 -3.5625 1.4375q-1.328125 0 -2.546875 -0.59375q-1.203125 -0.609375 -1.828125 -1.765625q-0.625 -1.171875 -0.625 -2.828125zm2.625 0.125q0 1.453125 0.671875 2.21875q0.6875 0.75 1.6875 0.75q1.0 0 1.671875 -0.75q0.6875 -0.765625 0.6875 -2.234375q0 -1.421875 -0.6875 -2.1875q-0.671875 -0.765625 -1.671875 -0.765625q-1.0 0 -1.6875 0.765625q-0.671875 0.765625 -0.671875 2.203125zm18.239716 4.84375l-2.390625 0l0 -1.421875q-0.59375 0.828125 -1.40625 1.234375q-0.796875 0.40625 -1.609375 0.40625q-1.671875 0 -2.859375 -1.34375q-1.1875 -1.34375 -1.1875 -3.75q0 -2.453125 1.15625 -3.734375q1.15625 -1.28125 2.921875 -1.28125q1.625 0 2.8125 1.34375l0 -4.8125l2.5625 0l0 13.359375zm-6.84375 -5.046875q0 1.546875 0.4375 2.234375q0.609375 1.015625 1.71875 1.015625q0.890625 0 1.5 -0.75q0.625 -0.765625 0.625 -2.25q0 -1.671875 -0.609375 -2.40625q-0.59375 -0.734375 -1.53125 -0.734375q-0.90625 0 -1.53125 0.734375q-0.609375 0.71875 -0.609375 2.15625z" fill-rule="nonzero"/><path fill="#000000" fill-opacity="0.0" d="m507.69543 168.92651l116.44098 0l0 41.165344l-116.44098 0z" fill-rule="evenodd"/><path fill="#000000" d="m535.64514 182.48714l4.9375 0q1.65625 0 2.53125 0.265625q1.1875 0.34375 2.015625 1.234375q0.84375 0.875 1.28125 2.15625q0.4375 1.28125 0.4375 3.15625q0 1.640625 -0.40625 2.84375q-0.5 1.453125 -1.4375 2.359375q-0.703125 0.671875 -1.890625 1.0625q-0.890625 0.28125 -2.390625 0.28125l-5.078125 0l0 -13.359375zm2.703125 2.265625l0 8.84375l2.015625 0q1.125 0 1.625 -0.125q0.65625 -0.171875 1.078125 -0.5625q0.4375 -0.390625 0.703125 -1.28125q0.28125 -0.90625 0.28125 -2.453125q0 -1.546875 -0.28125 -2.375q-0.265625 -0.828125 -0.765625 -1.28125q-0.484375 -0.46875 -1.234375 -0.640625q-0.5625 -0.125 -2.21875 -0.125l-1.203125 0zm16.363586 8.015625l2.546875 0.421875q-0.484375 1.40625 -1.546875 2.140625q-1.0625 0.734375 -2.65625 0.734375q-2.515625 0 -3.734375 -1.65625q-0.953125 -1.3125 -0.953125 -3.328125q0 -2.40625 1.25 -3.765625q1.265625 -1.359375 3.1875 -1.359375q2.15625 0 3.40625 1.421875q1.25 1.421875 1.1875 4.375l-6.40625 0q0.03125 1.140625 0.609375 1.78125q0.59375 0.625 1.484375 0.625q0.59375 0 1.0 -0.328125q0.421875 -0.328125 0.625 -1.0625zm0.15625 -2.59375q-0.03125 -1.109375 -0.578125 -1.6875q-0.546875 -0.578125 -1.328125 -0.578125q-0.84375 0 -1.390625 0.609375q-0.546875 0.609375 -0.53125 1.65625l3.828125 0zm4.4226074 -4.0l2.359375 0l0 1.3125q1.265625 -1.53125 3.015625 -1.53125q0.9375 0 1.609375 0.390625q0.6875 0.375 1.125 1.140625q0.640625 -0.765625 1.375 -1.140625q0.75 -0.390625 1.578125 -0.390625q1.0625 0 1.796875 0.4375q0.75 0.421875 1.109375 1.265625q0.265625 0.625 0.265625 2.0l0 6.1875l-2.5625 0l0 -5.53125q0 -1.4375 -0.265625 -1.859375q-0.34375 -0.546875 -1.09375 -0.546875q-0.53125 0 -1.015625 0.328125q-0.46875 0.328125 -0.671875 0.96875q-0.203125 0.625 -0.203125 2.0l0 4.640625l-2.5625 0l0 -5.296875q0 -1.421875 -0.140625 -1.828125q-0.140625 -0.40625 -0.421875 -0.609375q-0.28125 -0.203125 -0.78125 -0.203125q-0.59375 0 -1.0625 0.328125q-0.46875 0.3125 -0.6875 0.921875q-0.203125 0.59375 -0.203125 1.984375l0 4.703125l-2.5625 0l0 -9.671875zm16.197754 4.703125q0 -1.28125 0.625 -2.46875q0.625 -1.203125 1.78125 -1.828125q1.15625 -0.625 2.578125 -0.625q2.1875 0 3.59375 1.421875q1.40625 1.421875 1.40625 3.609375q0 2.1875 -1.421875 3.640625q-1.421875 1.4375 -3.5625 1.4375q-1.328125 0 -2.546875 -0.59375q-1.203125 -0.609375 -1.828125 -1.765625q-0.625 -1.171875 -0.625 -2.828125zm2.625 0.125q0 1.453125 0.671875 2.21875q0.6875 0.75 1.6875 0.75q1.0 0 1.671875 -0.75q0.6875 -0.765625 0.6875 -2.234375q0 -1.421875 -0.6875 -2.1875q-0.671875 -0.765625 -1.671875 -0.765625q-1.0 0 -1.6875 0.765625q-0.671875 0.765625 -0.671875 2.203125zm18.239746 4.84375l-2.390625 0l0 -1.421875q-0.59375 0.828125 -1.40625 1.234375q-0.796875 0.40625 -1.609375 0.40625q-1.671875 0 -2.859375 -1.34375q-1.1875 -1.34375 -1.1875 -3.75q0 -2.453125 1.15625 -3.734375q1.15625 -1.28125 2.921875 -1.28125q1.625 0 2.8125 1.34375l0 -4.8125l2.5625 0l0 13.359375zm-6.84375 -5.046875q0 1.546875 0.4375 2.234375q0.609375 1.015625 1.71875 1.015625q0.890625 0 1.5 -0.75q0.625 -0.765625 0.625 -2.25q0 -1.671875 -0.609375 -2.40625q-0.59375 -0.734375 -1.53125 -0.734375q-0.90625 0 -1.53125 0.734375q-0.609375 0.71875 -0.609375 2.15625z" fill-rule="nonzero"/><path fill="#000000" fill-opacity="0.0" d="m395.0659 175.82152l120.15744 0l0 41.16536l-120.15744 0z" fill-rule="evenodd"/><path fill="#000000" d="m428.25305 197.83527l2.609375 0.828125q-0.59375 2.1875 -2.0 3.25q-1.390625 1.0625 -3.546875 1.0625q-2.65625 0 -4.375 -1.8125q-1.703125 -1.828125 -1.703125 -4.984375q0 -3.328125 1.71875 -5.171875q1.71875 -1.84375 4.515625 -1.84375q2.453125 0 3.984375 1.4375q0.921875 0.859375 1.375 2.46875l-2.671875 0.640625q-0.234375 -1.046875 -0.984375 -1.640625q-0.75 -0.609375 -1.828125 -0.609375q-1.484375 0 -2.421875 1.078125q-0.921875 1.0625 -0.921875 3.4375q0 2.53125 0.90625 3.609375q0.921875 1.078125 2.375 1.078125q1.078125 0 1.84375 -0.671875q0.78125 -0.6875 1.125 -2.15625zm7.457306 -8.453125l0 4.921875q1.234375 -1.453125 2.953125 -1.453125q0.890625 0 1.59375 0.328125q0.71875 0.328125 1.078125 0.84375q0.359375 0.5 0.484375 1.125q0.140625 0.609375 0.140625 1.921875l0 5.671875l-2.5625 0l0 -5.109375q0 -1.515625 -0.15625 -1.921875q-0.140625 -0.421875 -0.515625 -0.65625q-0.359375 -0.25 -0.90625 -0.25q-0.640625 0 -1.140625 0.3125q-0.5 0.3125 -0.734375 0.9375q-0.234375 0.625 -0.234375 1.84375l0 4.84375l-2.5625 0l0 -13.359375l2.5625 0zm10.755371 6.640625l-2.328125 -0.421875q0.40625 -1.40625 1.359375 -2.078125q0.953125 -0.671875 2.84375 -0.671875q1.703125 0 2.546875 0.40625q0.84375 0.40625 1.171875 1.03125q0.34375 0.625 0.34375 2.28125l-0.015625 3.0q0 1.265625 0.109375 1.875q0.125 0.609375 0.46875 1.296875l-2.53125 0q-0.109375 -0.25 -0.25 -0.75q-0.0625 -0.234375 -0.09375 -0.3125q-0.65625 0.640625 -1.40625 0.96875q-0.734375 0.3125 -1.59375 0.3125q-1.484375 0 -2.34375 -0.8125q-0.859375 -0.8125 -0.859375 -2.046875q0 -0.828125 0.390625 -1.46875q0.390625 -0.640625 1.09375 -0.96875q0.703125 -0.34375 2.03125 -0.609375q1.796875 -0.328125 2.484375 -0.625l0 -0.25q0 -0.75 -0.359375 -1.0625q-0.359375 -0.3125 -1.375 -0.3125q-0.6875 0 -1.078125 0.28125q-0.375 0.265625 -0.609375 0.9375zm3.421875 2.078125q-0.484375 0.15625 -1.5625 0.390625q-1.0625 0.21875 -1.390625 0.4375q-0.5 0.359375 -0.5 0.90625q0 0.53125 0.40625 0.9375q0.40625 0.390625 1.015625 0.390625q0.703125 0 1.328125 -0.46875q0.46875 -0.34375 0.609375 -0.84375q0.09375 -0.328125 0.09375 -1.25l0 -0.5zm13.844482 4.640625l-2.5625 0l0 -4.9375q0 -1.5625 -0.171875 -2.015625q-0.15625 -0.46875 -0.53125 -0.71875q-0.359375 -0.265625 -0.875 -0.265625q-0.6719055 0 -1.2031555 0.375q-0.53125 0.359375 -0.734375 0.96875q-0.1875 0.59375 -0.1875 2.21875l0 4.375l-2.546875 0l0 -9.671875l2.375 0l0 1.421875q1.265625 -1.640625 3.1875305 -1.640625q0.84375 0 1.546875 0.3125q0.703125 0.296875 1.0625 0.78125q0.359375 0.46875 0.5 1.078125q0.140625 0.59375 0.140625 1.703125l0 6.015625zm11.395966 0l-2.5625 0l0 -4.9375q0 -1.5625 -0.171875 -2.015625q-0.15625 -0.46875 -0.53125 -0.71875q-0.359375 -0.265625 -0.875 -0.265625q-0.671875 0 -1.203125 0.375q-0.53125 0.359375 -0.734375 0.96875q-0.1875 0.59375 -0.1875 2.21875l0 4.375l-2.546875 0l0 -9.671875l2.375 0l0 1.421875q1.265625 -1.640625 3.1875 -1.640625q0.84375 0 1.546875 0.3125q0.703125 0.296875 1.0625 0.78125q0.359375 0.46875 0.5 1.078125q0.140625 0.59375 0.140625 1.703125l0 6.015625zm8.192871 -3.078125l2.546875 0.421875q-0.484375 1.40625 -1.546875 2.140625q-1.0625 0.734375 -2.65625 0.734375q-2.515625 0 -3.734375 -1.65625q-0.953125 -1.3125 -0.953125 -3.328125q0 -2.40625 1.25 -3.765625q1.265625 -1.359375 3.1875 -1.359375q2.15625 0 3.40625 1.421875q1.25 1.421875 1.1875 4.375l-6.40625 0q0.03125 1.140625 0.609375 1.78125q0.59375 0.625 1.484375 0.625q0.59375 0 1.0 -0.328125q0.421875 -0.328125 0.625 -1.0625zm0.15625 -2.59375q-0.03125 -1.109375 -0.578125 -1.6875q-0.546875 -0.578125 -1.328125 -0.578125q-0.84375 0 -1.390625 0.609375q-0.546875 0.609375 -0.53125 1.65625l3.828125 0zm4.625702 5.671875l0 -13.359375l2.5625 0l0 13.359375l-2.5625 0z" fill-rule="nonzero"/><path fill="#a4c2f4" d="m269.2756 317.41995l28.2677 -28.26773l0 8.414185l332.64566 0l0 39.707092l-332.64566 0l0 8.414154z" fill-rule="evenodd"/><path fill="#000000" d="m398.8978 319.10556l0 -1.578125l5.65625 0l0 4.953125q-1.296875 1.046875 -2.6875 1.578125q-1.375 0.515625 -2.84375 0.515625q-1.96875 0 -3.578125 -0.84375q-1.609375 -0.84375 -2.421875 -2.4375q-0.8125 -1.59375 -0.8125 -3.5625q0 -1.953125 0.8125 -3.640625q0.8125 -1.6875 2.34375 -2.5q1.53125 -0.828125 3.515625 -0.828125q1.453125 0 2.625 0.46875q1.171875 0.46875 1.828125 1.3125q0.671875 0.828125 1.015625 2.171875l-1.59375 0.4375q-0.296875 -1.015625 -0.75 -1.59375q-0.4375 -0.59375 -1.265625 -0.9375q-0.828125 -0.34375 -1.84375 -0.34375q-1.203125 0 -2.09375 0.375q-0.890625 0.359375 -1.4375 0.96875q-0.53125 0.59375 -0.828125 1.3125q-0.515625 1.234375 -0.515625 2.6875q0 1.78125 0.609375 2.984375q0.625 1.203125 1.796875 1.796875q1.171875 0.578125 2.5 0.578125q1.140625 0 2.234375 -0.4375q1.09375 -0.453125 1.65625 -0.953125l0 -2.484375l-3.921875 0zm8.042694 5.234375l0 -9.671875l1.46875 0l0 1.46875q0.5625 -1.03125 1.03125 -1.359375q0.484375 -0.328125 1.0625 -0.328125q0.828125 0 1.6875 0.53125l-0.5625 1.515625q-0.609375 -0.359375 -1.203125 -0.359375q-0.546875 0 -0.96875 0.328125q-0.421875 0.328125 -0.609375 0.890625q-0.28125 0.875 -0.28125 1.921875l0 5.0625l-1.625 0zm12.540802 -1.1875q-0.921875 0.765625 -1.765625 1.09375q-0.828125 0.3125 -1.796875 0.3125q-1.59375 0 -2.453125 -0.78125q-0.859375 -0.78125 -0.859375 -1.984375q0 -0.71875 0.328125 -1.296875q0.328125 -0.59375 0.84375 -0.9375q0.53125 -0.359375 1.1875 -0.546875q0.46875 -0.125 1.453125 -0.25q1.984375 -0.234375 2.921875 -0.5625q0.015625 -0.34375 0.015625 -0.421875q0 -1.0 -0.46875 -1.421875q-0.625 -0.546875 -1.875 -0.546875q-1.15625 0 -1.703125 0.40625q-0.546875 0.40625 -0.8125 1.421875l-1.609375 -0.21875q0.21875 -1.015625 0.71875 -1.640625q0.5 -0.640625 1.453125 -0.984375q0.953125 -0.34375 2.1875 -0.34375q1.25 0 2.015625 0.296875q0.78125 0.28125 1.140625 0.734375q0.375 0.4375 0.515625 1.109375q0.078125 0.421875 0.078125 1.515625l0 2.1875q0 2.28125 0.109375 2.890625q0.109375 0.59375 0.40625 1.15625l-1.703125 0q-0.265625 -0.515625 -0.328125 -1.1875zm-0.140625 -3.671875q-0.890625 0.375 -2.671875 0.625q-1.015625 0.140625 -1.4375 0.328125q-0.421875 0.1875 -0.65625 0.53125q-0.21875 0.34375 -0.21875 0.78125q0 0.65625 0.5 1.09375q0.5 0.4375 1.453125 0.4375q0.9375 0 1.671875 -0.40625q0.75 -0.421875 1.09375 -1.140625q0.265625 -0.5625 0.265625 -1.640625l0 -0.609375zm10.469452 4.859375l0 -1.21875q-0.90625 1.4375 -2.703125 1.4375q-1.15625 0 -2.125 -0.640625q-0.96875 -0.640625 -1.5 -1.78125q-0.53125 -1.140625 -0.53125 -2.625q0 -1.453125 0.484375 -2.625q0.484375 -1.1875 1.4375 -1.8125q0.96875 -0.625 2.171875 -0.625q0.875 0 1.546875 0.375q0.6875 0.359375 1.109375 0.953125l0 -4.796875l1.640625 0l0 13.359375l-1.53125 0zm-5.171875 -4.828125q0 1.859375 0.78125 2.78125q0.78125 0.921875 1.84375 0.921875q1.078125 0 1.828125 -0.875q0.75 -0.890625 0.75 -2.6875q0 -1.984375 -0.765625 -2.90625q-0.765625 -0.9375 -1.890625 -0.9375q-1.078125 0 -1.8125 0.890625q-0.734375 0.890625 -0.734375 2.8125zm9.281982 -6.640625l0 -1.890625l1.640625 0l0 1.890625l-1.640625 0zm0 11.46875l0 -9.671875l1.640625 0l0 9.671875l-1.640625 0zm10.769806 -3.109375l1.6875 0.203125q-0.40625 1.484375 -1.484375 2.3125q-1.078125 0.8125 -2.765625 0.8125q-2.125 0 -3.375 -1.296875q-1.234375 -1.3125 -1.234375 -3.671875q0 -2.453125 1.25 -3.796875q1.265625 -1.34375 3.265625 -1.34375q1.9375 0 3.15625 1.328125q1.234375 1.3125 1.234375 3.703125q0 0.15625 0 0.4375l-7.21875 0q0.09375 1.59375 0.90625 2.453125q0.8125 0.84375 2.015625 0.84375q0.90625 0 1.546875 -0.46875q0.640625 -0.484375 1.015625 -1.515625zm-5.390625 -2.65625l5.40625 0q-0.109375 -1.21875 -0.625 -1.828125q-0.78125 -0.953125 -2.03125 -0.953125q-1.125 0 -1.90625 0.765625q-0.765625 0.75 -0.84375 2.015625zm9.141357 5.765625l0 -9.671875l1.46875 0l0 1.375q1.0625 -1.59375 3.078125 -1.59375q0.875 0 1.609375 0.3125q0.734375 0.3125 1.09375 0.828125q0.375 0.5 0.515625 1.203125q0.09375 0.453125 0.09375 1.59375l0 5.953125l-1.640625 0l0 -5.890625q0 -1.0 -0.203125 -1.484375q-0.1875 -0.5 -0.671875 -0.796875q-0.484375 -0.296875 -1.140625 -0.296875q-1.046875 0 -1.8125 0.671875q-0.75 0.65625 -0.75 2.515625l0 5.28125l-1.640625 0zm13.953827 -1.46875l0.234375 1.453125q-0.6875 0.140625 -1.234375 0.140625q-0.890625 0 -1.390625 -0.28125q-0.484375 -0.28125 -0.6875 -0.734375q-0.203125 -0.46875 -0.203125 -1.9375l0 -5.578125l-1.203125 0l0 -1.265625l1.203125 0l0 -2.390625l1.625 -0.984375l0 3.375l1.65625 0l0 1.265625l-1.65625 0l0 5.671875q0 0.6875 0.078125 0.890625q0.09375 0.203125 0.28125 0.328125q0.203125 0.109375 0.578125 0.109375q0.265625 0 0.71875 -0.0625zm15.757233 -11.890625l1.765625 0l0 7.71875q0 2.015625 -0.453125 3.203125q-0.453125 1.1875 -1.640625 1.9375q-1.1875 0.734375 -3.125 0.734375q-1.875 0 -3.078125 -0.640625q-1.1875 -0.65625 -1.703125 -1.875q-0.5 -1.234375 -0.5 -3.359375l0 -7.71875l1.765625 0l0 7.71875q0 1.734375 0.3125 2.5625q0.328125 0.8125 1.109375 1.265625q0.796875 0.453125 1.9375 0.453125q1.953125 0 2.78125 -0.890625q0.828125 -0.890625 0.828125 -3.390625l0 -7.71875zm4.5042114 17.0625l0 -13.375l1.484375 0l0 1.25q0.53125 -0.734375 1.1875 -1.09375q0.671875 -0.375 1.625 -0.375q1.234375 0 2.171875 0.640625q0.953125 0.625 1.4375 1.796875q0.484375 1.15625 0.484375 2.546875q0 1.484375 -0.53125 2.671875q-0.53125 1.1875 -1.546875 1.828125q-1.015625 0.625 -2.140625 0.625q-0.8125 0 -1.46875 -0.34375q-0.65625 -0.34375 -1.0625 -0.875l0 4.703125l-1.640625 0zm1.484375 -8.484375q0 1.859375 0.75 2.765625q0.765625 0.890625 1.828125 0.890625q1.09375 0 1.875 -0.921875q0.78125 -0.9375 0.78125 -2.875q0 -1.84375 -0.765625 -2.765625q-0.75 -0.921875 -1.8125 -0.921875q-1.046875 0 -1.859375 0.984375q-0.796875 0.96875 -0.796875 2.84375zm15.156952 4.78125l0 -1.21875q-0.90625 1.4375 -2.703125 1.4375q-1.15625 0 -2.125 -0.640625q-0.96875 -0.640625 -1.5 -1.78125q-0.53125 -1.140625 -0.53125 -2.625q0 -1.453125 0.484375 -2.625q0.484375 -1.1875 1.4375 -1.8125q0.96875 -0.625 2.171875 -0.625q0.875 0 1.546875 0.375q0.6875 0.359375 1.109375 0.953125l0 -4.796875l1.640625 0l0 13.359375l-1.53125 0zm-5.171875 -4.828125q0 1.859375 0.78125 2.78125q0.78125 0.921875 1.84375 0.921875q1.078125 0 1.828125 -0.875q0.75 -0.890625 0.75 -2.6875q0 -1.984375 -0.765625 -2.90625q-0.765625 -0.9375 -1.890625 -0.9375q-1.078125 0 -1.8125 0.890625q-0.734375 0.890625 -0.734375 2.8125zm15.594482 3.640625q-0.921875 0.765625 -1.765625 1.09375q-0.828125 0.3125 -1.796875 0.3125q-1.59375 0 -2.453125 -0.78125q-0.859375 -0.78125 -0.859375 -1.984375q0 -0.71875 0.328125 -1.296875q0.328125 -0.59375 0.84375 -0.9375q0.53125 -0.359375 1.1875 -0.546875q0.46875 -0.125 1.453125 -0.25q1.984375 -0.234375 2.921875 -0.5625q0.015625 -0.34375 0.015625 -0.421875q0 -1.0 -0.46875 -1.421875q-0.625 -0.546875 -1.875 -0.546875q-1.15625 0 -1.703125 0.40625q-0.546875 0.40625 -0.8125 1.421875l-1.609375 -0.21875q0.21875 -1.015625 0.71875 -1.640625q0.5 -0.640625 1.453125 -0.984375q0.953125 -0.34375 2.1875 -0.34375q1.25 0 2.015625 0.296875q0.78125 0.28125 1.140625 0.734375q0.375 0.4375 0.515625 1.109375q0.078125 0.421875 0.078125 1.515625l0 2.1875q0 2.28125 0.109375 2.890625q0.109375 0.59375 0.40625 1.15625l-1.703125 0q-0.265625 -0.515625 -0.328125 -1.1875zm-0.140625 -3.671875q-0.890625 0.375 -2.671875 0.625q-1.015625 0.140625 -1.4375 0.328125q-0.421875 0.1875 -0.65625 0.53125q-0.21875 0.34375 -0.21875 0.78125q0 0.65625 0.5 1.09375q0.5 0.4375 1.453125 0.4375q0.9375 0 1.671875 -0.40625q0.75 -0.421875 1.09375 -1.140625q0.265625 -0.5625 0.265625 -1.640625l0 -0.609375zm7.7819824 3.390625l0.234375 1.453125q-0.6875 0.140625 -1.234375 0.140625q-0.890625 0 -1.390625 -0.28125q-0.484375 -0.28125 -0.6875 -0.734375q-0.203125 -0.46875 -0.203125 -1.9375l0 -5.578125l-1.203125 0l0 -1.265625l1.203125 0l0 -2.390625l1.625 -0.984375l0 3.375l1.65625 0l0 1.265625l-1.65625 0l0 5.671875q0 0.6875 0.078125 0.890625q0.09375 0.203125 0.28125 0.328125q0.203125 0.109375 0.578125 0.109375q0.265625 0 0.71875 -0.0625zm8.230164 -1.640625l1.6875 0.203125q-0.40625 1.484375 -1.484375 2.3125q-1.078125 0.8125 -2.765625 0.8125q-2.125 0 -3.375 -1.296875q-1.234375 -1.3125 -1.234375 -3.671875q0 -2.453125 1.25 -3.796875q1.265625 -1.34375 3.265625 -1.34375q1.9375 0 3.15625 1.328125q1.234375 1.3125 1.234375 3.703125q0 0.15625 0 0.4375l-7.21875 0q0.09375 1.59375 0.90625 2.453125q0.8125 0.84375 2.015625 0.84375q0.90625 0 1.546875 -0.46875q0.640625 -0.484375 1.015625 -1.515625zm-5.390625 -2.65625l5.40625 0q-0.109375 -1.21875 -0.625 -1.828125q-0.78125 -0.953125 -2.03125 -0.953125q-1.125 0 -1.90625 0.765625q-0.765625 0.75 -0.84375 2.015625z" fill-rule="nonzero"/><path fill="#ffffff" d="m699.4449 186.88124l40.22046 0l0 125.4803l-40.22046 0z" fill-rule="evenodd"/><path stroke="#000000" stroke-width="2.0" stroke-linejoin="round" stroke-linecap="butt" d="m699.4449 186.88124l40.22046 0l0 125.4803l-40.22046 0z" fill-rule="evenodd"/><path fill="#000000" d="m712.01337 204.52951q0 -1.859375 0.375 -2.984375q0.390625 -1.140625 1.140625 -1.75q0.765625 -0.625 1.90625 -0.625q0.84375 0 1.46875 0.34375q0.640625 0.328125 1.0625 0.96875q0.421875 0.640625 0.65625 1.5625q0.234375 0.921875 0.234375 2.484375q0 1.84375 -0.390625 2.984375q-0.375 1.125 -1.125 1.75q-0.75 0.609375 -1.90625 0.609375q-1.515625 0 -2.390625 -1.078125q-1.03125 -1.3125 -1.03125 -4.265625zm1.328125 0q0 2.578125 0.59375 3.4375q0.609375 0.859375 1.5 0.859375q0.890625 0 1.484375 -0.859375q0.609375 -0.859375 0.609375 -3.4375q0 -2.59375 -0.609375 -3.4375q-0.59375 -0.859375 -1.5 -0.859375q-0.890625 0 -1.421875 0.75q-0.65625 0.96875 -0.65625 3.546875zm6.822998 0q0 -1.859375 0.375 -2.984375q0.390625 -1.140625 1.140625 -1.75q0.765625 -0.625 1.90625 -0.625q0.84375 0 1.46875 0.34375q0.640625 0.328125 1.0625 0.96875q0.421875 0.640625 0.65625 1.5625q0.234375 0.921875 0.234375 2.484375q0 1.84375 -0.390625 2.984375q-0.375 1.125 -1.125 1.75q-0.75 0.609375 -1.90625 0.609375q-1.515625 0 -2.390625 -1.078125q-1.03125 -1.3125 -1.03125 -4.265625zm1.328125 0q0 2.578125 0.59375 3.4375q0.609375 0.859375 1.5 0.859375q0.890625 0 1.484375 -0.859375q0.609375 -0.859375 0.609375 -3.4375q0 -2.59375 -0.609375 -3.4375q-0.59375 -0.859375 -1.5 -0.859375q-0.890625 0 -1.421875 0.75q-0.65625 0.96875 -0.65625 3.546875z" fill-rule="nonzero"/><path fill="#000000" d="m717.4014 227.70139l-1.28125 0l0 -8.203125q-0.46875 0.4375 -1.21875 0.890625q-0.75 0.4375 -1.359375 0.65625l0 -1.25q1.078125 -0.5 1.890625 -1.21875q0.8125 -0.734375 1.140625 -1.40625l0.828125 0l0 10.53125zm7.062561 0l-1.28125 0l0 -8.203125q-0.46875 0.4375 -1.21875 0.890625q-0.75 0.4375 -1.359375 0.65625l0 -1.25q1.078125 -0.5 1.890625 -1.21875q0.8125 -0.734375 1.140625 -1.40625l0.828125 0l0 10.53125z" fill-rule="nonzero"/><path fill="#ff0000" d="m717.1696 245.7014l-2.015625 0l0 -7.578125q-1.09375 1.03125 -2.59375 1.53125l0 -1.828125q0.796875 -0.265625 1.71875 -0.984375q0.921875 -0.71875 1.265625 -1.671875l1.625 0l0 10.53125z" fill-rule="nonzero"/><path fill="#000000" d="m725.00824 245.7014l-1.28125 0l0 -8.203125q-0.46875 0.4375 -1.21875 0.890625q-0.75 0.4375 -1.359375 0.65625l0 -1.25q1.078125 -0.5 1.890625 -1.21875q0.8125 -0.734375 1.140625 -1.40625l0.828125 0l0 10.53125z" fill-rule="nonzero"/><path fill="#000000" d="m712.01337 258.5295q0 -1.859375 0.375 -2.9843597q0.390625 -1.140625 1.140625 -1.75q0.765625 -0.625 1.90625 -0.625q0.84375 0 1.46875 0.34375q0.640625 0.328125 1.0625 0.96875q0.421875 0.640625 0.65625 1.5624847q0.234375 0.921875 0.234375 2.484375q0 1.84375 -0.390625 2.984375q-0.375 1.125 -1.125 1.75q-0.75 0.609375 -1.90625 0.609375q-1.515625 0 -2.390625 -1.078125q-1.03125 -1.3125 -1.03125 -4.265625zm1.328125 0q0 2.578125 0.59375 3.4375q0.609375 0.859375 1.5 0.859375q0.890625 0 1.484375 -0.859375q0.609375 -0.859375 0.609375 -3.4375q0 -2.5937347 -0.609375 -3.4374847q-0.59375 -0.859375 -1.5 -0.859375q-0.890625 0 -1.421875 0.75q-0.65625 0.96875 -0.65625 3.5468597z" fill-rule="nonzero"/><path fill="#ff0000" d="m723.57074 253.17015q1.53125 0 2.390625 1.078125q1.015625 1.296875 1.015625 4.2812347q0 2.96875 -1.03125 4.28125q-0.84375 1.0625 -2.375 1.0625q-1.53125 0 -2.46875 -1.171875q-0.9375 -1.171875 -0.9375 -4.203125q0 -2.9531097 1.03125 -4.2499847q0.859375 -1.078125 2.375 -1.078125zm0 1.671875q-0.359375 0 -0.65625 0.234375q-0.28125 0.21875 -0.4375 0.828125q-0.203125 0.78123474 -0.203125 2.6249847q0 1.84375 0.1875 2.53125q0.1875 0.6875 0.46875 0.921875q0.28125 0.234375 0.640625 0.234375q0.375 0 0.65625 -0.234375q0.28125 -0.234375 0.4375 -0.84375q0.21875 -0.765625 0.21875 -2.609375q0 -1.84375 -0.1875 -2.5312347q-0.1875 -0.703125 -0.46875 -0.921875q-0.28125 -0.234375 -0.65625 -0.234375z" fill-rule="nonzero"/><path fill="#000000" d="m716.8571 281.7014l-1.28125 0l0 -8.203125q-0.46875 0.4375 -1.21875 0.890625q-0.75 0.4375 -1.359375 0.65625l0 -1.25q1.078125 -0.5 1.890625 -1.21875q0.8125 -0.734375 1.140625 -1.40625l0.828125 0l0 10.53125zm3.307373 -5.171875q0 -1.859375 0.375 -2.984375q0.390625 -1.140625 1.140625 -1.75q0.765625 -0.625 1.90625 -0.625q0.84375 0 1.46875 0.34375q0.640625 0.328125 1.0625 0.96875q0.421875 0.640625 0.65625 1.5625q0.234375 0.921875 0.234375 2.484375q0 1.84375 -0.390625 2.984375q-0.375 1.125 -1.125 1.75q-0.75 0.609375 -1.90625 0.609375q-1.515625 0 -2.390625 -1.078125q-1.03125 -1.3125 -1.03125 -4.265625zm1.328125 0q0 2.578125 0.59375 3.4375q0.609375 0.859375 1.5 0.859375q0.890625 0 1.484375 -0.859375q0.609375 -0.859375 0.609375 -3.4375q0 -2.59375 -0.609375 -3.4375q-0.59375 -0.859375 -1.5 -0.859375q-0.890625 0 -1.421875 0.75q-0.65625 0.96875 -0.65625 3.546875z" fill-rule="nonzero"/><path fill="#000000" d="m714.77527 299.7014l0 -1.46875l1.46875 0l0 1.46875l-1.46875 0zm4.0719604 0l0 -1.46875l1.46875 0l0 1.46875l-1.46875 0zm4.0720215 0l0 -1.46875l1.46875 0l0 1.46875l-1.46875 0z" fill-rule="nonzero"/><path fill="#000000" fill-opacity="0.0" d="m156.31364 152.29199l42.708664 0l0 41.16536l-42.708664 0z" fill-rule="evenodd"/><path fill="#000000" d="m173.23561 169.54012l2.390625 0l0 1.421875q0.46875 -0.734375 1.25 -1.1875q0.796875 -0.453125 1.765625 -0.453125q1.6875 0 2.859375 1.328125q1.171875 1.3125 1.171875 3.671875q0 2.421875 -1.1875 3.765625q-1.1875 1.34375 -2.859375 1.34375q-0.8125 0 -1.46875 -0.3125q-0.640625 -0.328125 -1.359375 -1.09375l0 4.875l-2.5625 0l0 -13.359375zm2.53125 4.671875q0 1.625 0.640625 2.40625q0.65625 0.78125 1.578125 0.78125q0.90625 0 1.484375 -0.71875q0.59375 -0.71875 0.59375 -2.34375q0 -1.515625 -0.609375 -2.25q-0.609375 -0.75 -1.515625 -0.75q-0.9375 0 -1.5625 0.734375q-0.609375 0.71875 -0.609375 2.140625z" fill-rule="nonzero"/><path fill="#ffffff" d="m158.27428 186.88124l40.220474 0l0 125.4803l-40.220474 0z" fill-rule="evenodd"/><path stroke="#000000" stroke-width="2.0" stroke-linejoin="round" stroke-linecap="butt" d="m158.27428 186.88124l40.220474 0l0 125.4803l-40.220474 0z" fill-rule="evenodd"/><path fill="#000000" d="m170.84279 204.52951q0 -1.859375 0.375 -2.984375q0.390625 -1.140625 1.140625 -1.75q0.765625 -0.625 1.90625 -0.625q0.84375 0 1.46875 0.34375q0.640625 0.328125 1.0625 0.96875q0.421875 0.640625 0.65625 1.5625q0.234375 0.921875 0.234375 2.484375q0 1.84375 -0.390625 2.984375q-0.375 1.125 -1.125 1.75q-0.75 0.609375 -1.90625 0.609375q-1.515625 0 -2.390625 -1.078125q-1.03125 -1.3125 -1.03125 -4.265625zm1.328125 0q0 2.578125 0.59375 3.4375q0.609375 0.859375 1.5 0.859375q0.890625 0 1.484375 -0.859375q0.609375 -0.859375 0.609375 -3.4375q0 -2.59375 -0.609375 -3.4375q-0.59375 -0.859375 -1.5 -0.859375q-0.890625 0 -1.421875 0.75q-0.65625 0.96875 -0.65625 3.546875zm6.822983 0q0 -1.859375 0.375 -2.984375q0.390625 -1.140625 1.140625 -1.75q0.765625 -0.625 1.90625 -0.625q0.84375 0 1.46875 0.34375q0.640625 0.328125 1.0625 0.96875q0.421875 0.640625 0.65625 1.5625q0.234375 0.921875 0.234375 2.484375q0 1.84375 -0.390625 2.984375q-0.375 1.125 -1.125 1.75q-0.75 0.609375 -1.90625 0.609375q-1.515625 0 -2.390625 -1.078125q-1.03125 -1.3125 -1.03125 -4.265625zm1.328125 0q0 2.578125 0.59375 3.4375q0.609375 0.859375 1.5 0.859375q0.890625 0 1.484375 -0.859375q0.609375 -0.859375 0.609375 -3.4375q0 -2.59375 -0.609375 -3.4375q-0.59375 -0.859375 -1.5 -0.859375q-0.890625 0 -1.421875 0.75q-0.65625 0.96875 -0.65625 3.546875z" fill-rule="nonzero"/><path fill="#000000" d="m176.2308 227.70139l-1.28125 0l0 -8.203125q-0.46875 0.4375 -1.21875 0.890625q-0.75 0.4375 -1.359375 0.65625l0 -1.25q1.078125 -0.5 1.890625 -1.21875q0.8125 -0.734375 1.140625 -1.40625l0.828125 0l0 10.53125zm7.062561 0l-1.28125 0l0 -8.203125q-0.46875 0.4375 -1.21875 0.890625q-0.75 0.4375 -1.359375 0.65625l0 -1.25q1.078125 -0.5 1.890625 -1.21875q0.8125 -0.734375 1.140625 -1.40625l0.828125 0l0 10.53125z" fill-rule="nonzero"/><path fill="#000000" d="m170.84279 240.52953q0 -1.859375 0.375 -2.984375q0.390625 -1.140625 1.140625 -1.75q0.765625 -0.625 1.90625 -0.625q0.84375 0 1.46875 0.34375q0.640625 0.328125 1.0625 0.96875q0.421875 0.640625 0.65625 1.5625q0.234375 0.921875 0.234375 2.484375q0 1.84375 -0.390625 2.984375q-0.375 1.125 -1.125 1.75q-0.75 0.609375 -1.90625 0.609375q-1.515625 0 -2.390625 -1.078125q-1.03125 -1.3125 -1.03125 -4.265625zm1.328125 0q0 2.578125 0.59375 3.4375q0.609375 0.859375 1.5 0.859375q0.890625 0 1.484375 -0.859375q0.609375 -0.859375 0.609375 -3.4375q0 -2.59375 -0.609375 -3.4375q-0.59375 -0.859375 -1.5 -0.859375q-0.890625 0 -1.421875 0.75q-0.65625 0.96875 -0.65625 3.546875zm11.666733 5.171875l-1.28125 0l0 -8.203125q-0.46875 0.4375 -1.21875 0.890625q-0.75 0.4375 -1.359375 0.65625l0 -1.25q1.078125 -0.5 1.890625 -1.21875q0.8125 -0.734375 1.140625 -1.40625l0.828125 0l0 10.53125z" fill-rule="nonzero"/><path fill="#000000" d="m170.84279 258.5295q0 -1.859375 0.375 -2.9843597q0.390625 -1.140625 1.140625 -1.75q0.765625 -0.625 1.90625 -0.625q0.84375 0 1.46875 0.34375q0.640625 0.328125 1.0625 0.96875q0.421875 0.640625 0.65625 1.5624847q0.234375 0.921875 0.234375 2.484375q0 1.84375 -0.390625 2.984375q-0.375 1.125 -1.125 1.75q-0.75 0.609375 -1.90625 0.609375q-1.515625 0 -2.390625 -1.078125q-1.03125 -1.3125 -1.03125 -4.265625zm1.328125 0q0 2.578125 0.59375 3.4375q0.609375 0.859375 1.5 0.859375q0.890625 0 1.484375 -0.859375q0.609375 -0.859375 0.609375 -3.4375q0 -2.5937347 -0.609375 -3.4374847q-0.59375 -0.859375 -1.5 -0.859375q-0.890625 0 -1.421875 0.75q-0.65625 0.96875 -0.65625 3.5468597zm11.666733 5.171875l-1.28125 0l0 -8.20311q-0.46875 0.4375 -1.21875 0.89060974q-0.75 0.4375 -1.359375 0.65625l0 -1.2499847q1.078125 -0.5 1.890625 -1.21875q0.8125 -0.734375 1.140625 -1.40625l0.828125 0l0 10.531235z" fill-rule="nonzero"/><path fill="#000000" d="m175.68654 281.7014l-1.28125 0l0 -8.203125q-0.46875 0.4375 -1.21875 0.890625q-0.75 0.4375 -1.359375 0.65625l0 -1.25q1.078125 -0.5 1.890625 -1.21875q0.8125 -0.734375 1.140625 -1.40625l0.828125 0l0 10.53125zm3.3073578 -5.171875q0 -1.859375 0.375 -2.984375q0.390625 -1.140625 1.140625 -1.75q0.765625 -0.625 1.90625 -0.625q0.84375 0 1.46875 0.34375q0.640625 0.328125 1.0625 0.96875q0.421875 0.640625 0.65625 1.5625q0.234375 0.921875 0.234375 2.484375q0 1.84375 -0.390625 2.984375q-0.375 1.125 -1.125 1.75q-0.75 0.609375 -1.90625 0.609375q-1.515625 0 -2.390625 -1.078125q-1.03125 -1.3125 -1.03125 -4.265625zm1.328125 0q0 2.578125 0.59375 3.4375q0.609375 0.859375 1.5 0.859375q0.890625 0 1.484375 -0.859375q0.609375 -0.859375 0.609375 -3.4375q0 -2.59375 -0.609375 -3.4375q-0.59375 -0.859375 -1.5 -0.859375q-0.890625 0 -1.421875 0.75q-0.65625 0.96875 -0.65625 3.546875z" fill-rule="nonzero"/><path fill="#000000" d="m173.60468 299.7014l0 -1.46875l1.46875 0l0 1.46875l-1.46875 0zm4.0719757 0l0 -1.46875l1.46875 0l0 1.46875l-1.46875 0zm4.0719757 0l0 -1.46875l1.46875 0l0 1.46875l-1.46875 0z" fill-rule="nonzero"/><path fill="#000000" fill-opacity="0.0" d="m759.04156 152.29076l28.566895 0l0 41.165344l-28.566895 0z" fill-rule="evenodd"/><path fill="#000000" d="m769.3072 169.53888l2.390625 0l0 1.421875q0.46875 -0.734375 1.25 -1.1875q0.796875 -0.453125 1.765625 -0.453125q1.6875 0 2.859375 1.328125q1.171875 1.3125 1.171875 3.671875q0 2.421875 -1.1875 3.765625q-1.1875 1.34375 -2.859375 1.34375q-0.8125 0 -1.46875 -0.3125q-0.640625 -0.328125 -1.359375 -1.09375l0 4.875l-2.5625 0l0 -13.359375zm2.53125 4.671875q0 1.625 0.640625 2.40625q0.65625 0.78125 1.578125 0.78125q0.90625 0 1.484375 -0.71875q0.59375 -0.71875 0.59375 -2.34375q0 -1.515625 -0.609375 -2.25q-0.609375 -0.75 -1.515625 -0.75q-0.9375 0 -1.5625 0.734375q-0.609375 0.71875 -0.609375 2.140625z" fill-rule="nonzero"/><path fill="#ffffff" d="m753.2165 186.88065l40.22046 0l0 125.480316l-40.22046 0z" fill-rule="evenodd"/><path stroke="#000000" stroke-width="2.0" stroke-linejoin="round" stroke-linecap="butt" d="m753.2165 186.88065l40.22046 0l0 125.480316l-40.22046 0z" fill-rule="evenodd"/><path fill="#000000" d="m765.785 204.52893q0 -1.859375 0.375 -2.984375q0.390625 -1.140625 1.140625 -1.75q0.765625 -0.625 1.90625 -0.625q0.84375 0 1.46875 0.34375q0.640625 0.328125 1.0625 0.96875q0.421875 0.640625 0.65625 1.5625q0.234375 0.921875 0.234375 2.484375q0 1.84375 -0.390625 2.984375q-0.375 1.125 -1.125 1.75q-0.75 0.609375 -1.90625 0.609375q-1.515625 0 -2.390625 -1.078125q-1.03125 -1.3125 -1.03125 -4.265625zm1.328125 0q0 2.578125 0.59375 3.4375q0.609375 0.859375 1.5 0.859375q0.890625 0 1.484375 -0.859375q0.609375 -0.859375 0.609375 -3.4375q0 -2.59375 -0.609375 -3.4375q-0.59375 -0.859375 -1.5 -0.859375q-0.890625 0 -1.421875 0.75q-0.65625 0.96875 -0.65625 3.546875zm6.822998 0q0 -1.859375 0.375 -2.984375q0.390625 -1.140625 1.140625 -1.75q0.765625 -0.625 1.90625 -0.625q0.84375 0 1.46875 0.34375q0.640625 0.328125 1.0625 0.96875q0.421875 0.640625 0.65625 1.5625q0.234375 0.921875 0.234375 2.484375q0 1.84375 -0.390625 2.984375q-0.375 1.125 -1.125 1.75q-0.75 0.609375 -1.90625 0.609375q-1.515625 0 -2.390625 -1.078125q-1.03125 -1.3125 -1.03125 -4.265625zm1.328125 0q0 2.578125 0.59375 3.4375q0.609375 0.859375 1.5 0.859375q0.890625 0 1.484375 -0.859375q0.609375 -0.859375 0.609375 -3.4375q0 -2.59375 -0.609375 -3.4375q-0.59375 -0.859375 -1.5 -0.859375q-0.890625 0 -1.421875 0.75q-0.65625 0.96875 -0.65625 3.546875z" fill-rule="nonzero"/><path fill="#000000" d="m771.17303 227.7008l-1.28125 0l0 -8.203125q-0.46875 0.4375 -1.218811 0.890625q-0.75 0.4375 -1.359375 0.65625l0 -1.25q1.078125 -0.5 1.890625 -1.21875q0.81256104 -0.734375 1.140686 -1.40625l0.828125 0l0 10.53125zm7.062561 0l-1.28125 0l0 -8.203125q-0.46875 0.4375 -1.21875 0.890625q-0.75 0.4375 -1.359375 0.65625l0 -1.25q1.078125 -0.5 1.890625 -1.21875q0.8125 -0.734375 1.140625 -1.40625l0.828125 0l0 10.53125z" fill-rule="nonzero"/><path fill="#000000" d="m765.785 240.52893q0 -1.859375 0.375 -2.984375q0.390625 -1.140625 1.140625 -1.75q0.765625 -0.625 1.90625 -0.625q0.84375 0 1.46875 0.34375q0.640625 0.328125 1.0625 0.96875q0.421875 0.640625 0.65625 1.5625q0.234375 0.921875 0.234375 2.484375q0 1.84375 -0.390625 2.984375q-0.375 1.125 -1.125 1.75q-0.75 0.609375 -1.90625 0.609375q-1.515625 0 -2.390625 -1.078125q-1.03125 -1.3125 -1.03125 -4.265625zm1.328125 0q0 2.578125 0.59375 3.4375q0.609375 0.859375 1.5 0.859375q0.890625 0 1.484375 -0.859375q0.609375 -0.859375 0.609375 -3.4375q0 -2.59375 -0.609375 -3.4375q-0.59375 -0.859375 -1.5 -0.859375q-0.890625 0 -1.421875 0.75q-0.65625 0.96875 -0.65625 3.546875zm11.666748 5.171875l-1.28125 0l0 -8.203125q-0.46875 0.4375 -1.21875 0.890625q-0.75 0.4375 -1.359375 0.65625l0 -1.25q1.078125 -0.5 1.890625 -1.21875q0.8125 -0.734375 1.140625 -1.40625l0.828125 0l0 10.53125z" fill-rule="nonzero"/><path fill="#000000" d="m765.785 258.52893q0 -1.859375 0.375 -2.984375q0.390625 -1.140625 1.140625 -1.75q0.765625 -0.625 1.90625 -0.625q0.84375 0 1.46875 0.34375q0.640625 0.328125 1.0625 0.96875q0.421875 0.640625 0.65625 1.5625q0.234375 0.921875 0.234375 2.484375q0 1.84375 -0.390625 2.984375q-0.375 1.125 -1.125 1.75q-0.75 0.609375 -1.90625 0.609375q-1.515625 0 -2.390625 -1.078125q-1.03125 -1.3125 -1.03125 -4.265625zm1.328125 0q0 2.578125 0.59375 3.4375q0.609375 0.859375 1.5 0.859375q0.890625 0 1.484375 -0.859375q0.609375 -0.859375 0.609375 -3.4375q0 -2.59375 -0.609375 -3.4375q-0.59375 -0.859375 -1.5 -0.859375q-0.890625 0 -1.421875 0.75q-0.65625 0.96875 -0.65625 3.546875zm11.666748 5.171875l-1.28125 0l0 -8.203125q-0.46875 0.4375 -1.21875 0.890625q-0.75 0.4375 -1.359375 0.65625l0 -1.25q1.078125 -0.5 1.890625 -1.21875q0.8125 -0.734375 1.140625 -1.40625l0.828125 0l0 10.53125z" fill-rule="nonzero"/><path fill="#000000" d="m770.6287 281.7008l-1.28125 0l0 -8.203125q-0.46875 0.4375 -1.21875 0.890625q-0.75 0.4375 -1.359375 0.65625l0 -1.25q1.078125 -0.5 1.890625 -1.21875q0.8125 -0.734375 1.140625 -1.40625l0.828125 0l0 10.53125zm3.307373 -5.171875q0 -1.859375 0.375 -2.984375q0.390625 -1.140625 1.140625 -1.75q0.765625 -0.625 1.90625 -0.625q0.84375 0 1.46875 0.34375q0.640625 0.328125 1.0625 0.96875q0.421875 0.640625 0.65625 1.5625q0.234375 0.921875 0.234375 2.484375q0 1.84375 -0.390625 2.984375q-0.375 1.125 -1.125 1.75q-0.75 0.609375 -1.90625 0.609375q-1.515625 0 -2.390625 -1.078125q-1.03125 -1.3125 -1.03125 -4.265625zm1.328125 0q0 2.578125 0.59375 3.4375q0.609375 0.859375 1.5 0.859375q0.890625 0 1.484375 -0.859375q0.609375 -0.859375 0.609375 -3.4375q0 -2.59375 -0.609375 -3.4375q-0.59375 -0.859375 -1.5 -0.859375q-0.890625 0 -1.421875 0.75q-0.65625 0.96875 -0.65625 3.546875z" fill-rule="nonzero"/><path fill="#000000" d="m768.5469 299.7008l0 -1.46875l1.46875 0l0 1.46875l-1.46875 0zm4.0719604 0l0 -1.46875l1.46875 0l0 1.46875l-1.46875 0zm4.0720215 0l0 -1.46875l1.46875 0l0 1.46875l-1.46875 0z" fill-rule="nonzero"/><path fill="#000000" fill-opacity="0.0" d="m719.5551 312.36154c0 24.393707 -7.952759 48.787415 -15.905518 48.787415" fill-rule="evenodd"/><path stroke="#000000" stroke-width="1.0" stroke-linejoin="round" stroke-linecap="butt" stroke-dasharray="4.0,3.0" d="m719.5551 312.36154c0 12.196869 -1.9881592 24.393707 -4.970459 33.54135c-1.4911499 4.573822 -3.230835 8.385315 -5.0947266 11.053375c-0.46600342 0.6670227 -0.9397583 1.2625732 -1.4193115 1.7807007c-0.23980713 0.25906372 -0.4810791 0.49874878 -0.72351074 0.7183838c-0.12121582 0.109802246 -0.24279785 0.21459961 -0.364563 0.3142395l-0.14685059 0.11694336" fill-rule="evenodd"/><path fill="#000000" stroke="#000000" stroke-width="1.0" stroke-linecap="butt" d="m706.8357 359.88654l0.6312866 -1.4597473l-2.458252 2.1836548l3.2867432 -0.09265137z" fill-rule="evenodd"/><path fill="#000000" fill-opacity="0.0" d="m198.49475 249.62138l70.77167 0" fill-rule="evenodd"/><path stroke="#000000" stroke-width="1.0" stroke-linejoin="round" stroke-linecap="butt" d="m198.49475 249.62138l64.77167 0" fill-rule="evenodd"/><path fill="#000000" stroke="#000000" stroke-width="1.0" stroke-linecap="butt" d="m263.26642 251.27312l4.538086 -1.6517334l-4.538086 -1.6517181z" fill-rule="evenodd"/><path fill="#000000" fill-opacity="0.0" d="m630.1914 249.62204c17.313232 0 25.968994 0.01576233 34.626465 0.0315094c8.657471 0.01574707 17.316711 0.03149414 34.63336 0.03149414" fill-rule="evenodd"/><path stroke="#000000" stroke-width="1.0" stroke-linejoin="round" stroke-linecap="butt" d="m630.1914 249.62204c17.313232 0 25.968994 0.01576233 34.626465 0.0315094c4.3287354 0.007873535 8.657959 0.01574707 14.069458 0.021652222c2.7058105 0.0029449463 5.682251 0.0054016113 9.064453 0.0071258545l5.4995117 0.0012969971" fill-rule="evenodd"/><path fill="#000000" stroke="#000000" stroke-width="1.0" stroke-linecap="butt" d="m693.45087 251.33536l4.538513 -1.6506653l-4.5377197 -1.6528015z" fill-rule="evenodd"/><path fill="#000000" fill-opacity="0.0" d="m703.0827 152.29068l32.944885 0l0 41.16536l-32.944885 0z" fill-rule="evenodd"/><path fill="#000000" d="m715.12274 169.5388l2.390625 0l0 1.421875q0.46875 -0.734375 1.25 -1.1875q0.796875 -0.453125 1.765625 -0.453125q1.6875 0 2.859375 1.328125q1.171875 1.3125 1.171875 3.671875q0 2.421875 -1.1875 3.765625q-1.1875 1.34375 -2.859375 1.34375q-0.8125 0 -1.46875 -0.3125q-0.640625 -0.328125 -1.359375 -1.09375l0 4.875l-2.5625 0l0 -13.359375zm2.53125 4.671875q0 1.625 0.640625 2.40625q0.65625 0.78125 1.578125 0.78125q0.90625 0 1.484375 -0.71875q0.59375 -0.71875 0.59375 -2.34375q0 -1.515625 -0.609375 -2.25q-0.609375 -0.75 -1.515625 -0.75q-0.9375 0 -1.5625 0.734375q-0.609375 0.71875 -0.609375 2.140625zm5.2213745 -6.1002655l-2.0625 0l-1.046875 -1.359375l-0.984375 1.359375l-2.0625 0l1.90625 -2.6875l2.375 0l1.875 2.6875z" fill-rule="nonzero"/><path fill="#a4c2f4" d="m603.35565 352.11557l0 0c0 -2.4961853 2.0235596 -4.5197754 4.5197754 -4.5197754l91.2439 0c1.1987305 0 2.3483276 0.4761963 3.195984 1.323822c0.8475952 0.84762573 1.3237915 1.9972534 1.3237915 3.1959534l0 18.078552c0 2.4962158 -2.0235596 4.5197754 -4.5197754 4.5197754l-91.2439 0c-2.4962158 0 -4.5197754 -2.0235596 -4.5197754 -4.5197754z" fill-rule="evenodd"/><path fill="#000000" d="m629.2124 363.38736l1.765625 0.453125q-0.5625 2.171875 -2.0 3.328125q-1.4375 1.140625 -3.53125 1.140625q-2.15625 0 -3.515625 -0.875q-1.34375 -0.890625 -2.0625 -2.546875q-0.703125 -1.671875 -0.703125 -3.59375q0 -2.078125 0.796875 -3.625q0.796875 -1.5625 2.265625 -2.359375q1.484375 -0.8125 3.25 -0.8125q2.0 0 3.359375 1.015625q1.375 1.015625 1.90625 2.875l-1.734375 0.40625q-0.46875 -1.453125 -1.359375 -2.109375q-0.875 -0.671875 -2.203125 -0.671875q-1.546875 0 -2.578125 0.734375q-1.03125 0.734375 -1.453125 1.984375q-0.421875 1.234375 -0.421875 2.5625q0 1.703125 0.5 2.96875q0.5 1.265625 1.546875 1.90625q1.046875 0.625 2.265625 0.625q1.484375 0 2.515625 -0.859375q1.03125 -0.859375 1.390625 -2.546875zm3.9729004 4.6875l0 -13.359375l9.65625 0l0 1.578125l-7.875 0l0 4.09375l7.375 0l0 1.5625l-7.375 0l0 4.546875l8.1875 0l0 1.578125l-9.96875 0zm17.517517 0l0 -13.359375l1.78125 0l0 11.78125l6.5625 0l0 1.578125l-8.34375 0zm9.641357 -4.84375q0 -2.6875 1.484375 -3.96875q1.25 -1.078125 3.046875 -1.078125q2.0 0 3.265625 1.3125q1.265625 1.296875 1.265625 3.609375q0 1.859375 -0.5625 2.9375q-0.5625 1.0625 -1.640625 1.65625q-1.0625 0.59375 -2.328125 0.59375q-2.03125 0 -3.28125 -1.296875q-1.25 -1.3125 -1.25 -3.765625zm1.6875 0q0 1.859375 0.796875 2.796875q0.8125 0.921875 2.046875 0.921875q1.21875 0 2.03125 -0.921875q0.8125 -0.9375 0.8125 -2.84375q0 -1.796875 -0.8125 -2.71875q-0.8125 -0.921875 -2.03125 -0.921875q-1.234375 0 -2.046875 0.921875q-0.796875 0.90625 -0.796875 2.765625zm8.641296 1.953125l1.625 -0.25q0.125 0.96875 0.75 1.5q0.625 0.515625 1.75 0.515625q1.125 0 1.671875 -0.453125q0.546875 -0.46875 0.546875 -1.09375q0 -0.546875 -0.484375 -0.875q-0.328125 -0.21875 -1.671875 -0.546875q-1.8125 -0.46875 -2.515625 -0.796875q-0.6875 -0.328125 -1.046875 -0.90625q-0.359375 -0.59375 -0.359375 -1.3125q0 -0.640625 0.296875 -1.1875q0.296875 -0.5625 0.8125 -0.921875q0.375 -0.28125 1.03125 -0.46875q0.671875 -0.203125 1.421875 -0.203125q1.140625 0 2.0 0.328125q0.859375 0.328125 1.265625 0.890625q0.421875 0.5625 0.578125 1.5l-1.609375 0.21875q-0.109375 -0.75 -0.640625 -1.171875q-0.515625 -0.421875 -1.46875 -0.421875q-1.140625 0 -1.625 0.375q-0.46875 0.375 -0.46875 0.875q0 0.3125 0.1875 0.578125q0.203125 0.265625 0.640625 0.4375q0.234375 0.09375 1.4375 0.421875q1.75 0.453125 2.4375 0.75q0.6875 0.296875 1.078125 0.859375q0.390625 0.5625 0.390625 1.40625q0 0.828125 -0.484375 1.546875q-0.46875 0.71875 -1.375 1.125q-0.90625 0.390625 -2.046875 0.390625q-1.875 0 -2.875 -0.78125q-0.984375 -0.78125 -1.25 -2.328125zm9.328125 0l1.625 -0.25q0.125 0.96875 0.75 1.5q0.625 0.515625 1.75 0.515625q1.125 0 1.671875 -0.453125q0.546875 -0.46875 0.546875 -1.09375q0 -0.546875 -0.484375 -0.875q-0.328125 -0.21875 -1.671875 -0.546875q-1.8125 -0.46875 -2.515625 -0.796875q-0.6875 -0.328125 -1.046875 -0.90625q-0.359375 -0.59375 -0.359375 -1.3125q0 -0.640625 0.296875 -1.1875q0.296875 -0.5625 0.8125 -0.921875q0.375 -0.28125 1.03125 -0.46875q0.671875 -0.203125 1.421875 -0.203125q1.140625 0 2.0 0.328125q0.859375 0.328125 1.265625 0.890625q0.421875 0.5625 0.578125 1.5l-1.609375 0.21875q-0.109375 -0.75 -0.640625 -1.171875q-0.515625 -0.421875 -1.46875 -0.421875q-1.140625 0 -1.625 0.375q-0.46875 0.375 -0.46875 0.875q0 0.3125 0.1875 0.578125q0.203125 0.265625 0.640625 0.4375q0.234375 0.09375 1.4375 0.421875q1.75 0.453125 2.4375 0.75q0.6875 0.296875 1.078125 0.859375q0.390625 0.5625 0.390625 1.40625q0 0.828125 -0.484375 1.546875q-0.46875 0.71875 -1.375 1.125q-0.90625 0.390625 -2.046875 0.390625q-1.875 0 -2.875 -0.78125q-0.984375 -0.78125 -1.25 -2.328125z" fill-rule="nonzero"/><path fill="#000000" fill-opacity="0.0" d="m653.4974 347.5958c0 -15.086609 -11.653564 -30.173218 -23.307068 -30.173218" fill-rule="evenodd"/><path stroke="#000000" stroke-width="1.0" stroke-linejoin="round" stroke-linecap="butt" stroke-dasharray="4.0,3.0" d="m653.4974 347.5958c0 -7.5433044 -2.913391 -15.086609 -7.2834473 -20.74408c-2.1850586 -2.8287354 -4.734253 -5.186035 -7.465576 -6.8361206c-1.3656616 -0.82507324 -2.7767944 -1.4733276 -4.2107544 -1.9153137c-0.17926025 -0.055236816 -0.35882568 -0.10726929 -0.5387573 -0.15600586c-0.089904785 -0.024383545 -0.17999268 -0.047943115 -0.27008057 -0.07064819l-0.13696289 -0.03326416" fill-rule="evenodd"/><path fill="#000000" stroke="#000000" stroke-width="1.0" stroke-linecap="butt" d="m633.5918 317.84036l1.2532959 -0.97909546l-3.2037964 0.7395325l2.9296265 1.4928589z" fill-rule="evenodd"/><path fill="#000000" fill-opacity="0.0" d="m773.3267 312.36096c0 24.393707 -34.850403 48.787415 -69.700806 48.787415" fill-rule="evenodd"/><path stroke="#000000" stroke-width="1.0" stroke-linejoin="round" stroke-linecap="butt" stroke-dasharray="4.0,3.0" d="m773.32666 312.36096c0 12.196838 -8.712585 24.393707 -21.781494 33.54135c-6.534424 4.573822 -14.157959 8.385345 -22.325989 11.053406c-4.0839844 1.3340149 -8.30426 2.3821716 -12.592468 3.0968628c-2.144104 0.35733032 -4.305176 0.6312561 -6.4749146 0.81588745c-0.5423584 0.046142578 -1.0852661 0.08670044 -1.6286621 0.12161255c-0.27166748 0.017456055 -0.543396 0.0335083 -0.8153076 0.048095703l-0.6557617 0.03173828" fill-rule="evenodd"/><path fill="#000000" stroke="#000000" stroke-width="1.0" stroke-linecap="butt" d="m707.05206 361.06992l1.0985718 -1.1500549l-3.0632324 1.1950378l3.114746 1.0535583z" fill-rule="evenodd"/><path fill="#f9cb9c" d="m551.59216 229.80046l0 0c0 -2.9397278 2.3831177 -5.32283 5.322876 -5.32283l0 0c1.4116821 0 2.765564 0.560791 3.763794 1.559021c0.99823 0.9982147 1.559021 2.3521118 1.559021 3.7638092l0 0c0 2.9397125 -2.3831177 5.32283 -5.322815 5.32283l0 0c-2.9397583 0 -5.322876 -2.3831177 -5.322876 -5.32283z" fill-rule="evenodd"/><path stroke="#000000" stroke-width="1.0" stroke-linejoin="round" stroke-linecap="butt" d="m551.59216 229.80046l0 0c0 -2.9397278 2.3831177 -5.32283 5.322876 -5.32283l0 0c1.4116821 0 2.765564 0.560791 3.763794 1.559021c0.99823 0.9982147 1.559021 2.3521118 1.559021 3.7638092l0 0c0 2.9397125 -2.3831177 5.32283 -5.322815 5.32283l0 0c-2.9397583 0 -5.322876 -2.3831177 -5.322876 -5.32283z" fill-rule="evenodd"/><path fill="#f9cb9c" d="m551.59216 243.2744l0 0c0 -2.9397125 2.3831177 -5.32283 5.322876 -5.32283l0 0c1.4116821 0 2.765564 0.560791 3.763794 1.559021c0.99823 0.9982147 1.559021 2.3521118 1.559021 3.7638092l0 0c0 2.9397278 -2.3831177 5.32283 -5.322815 5.32283l0 0c-2.9397583 0 -5.322876 -2.3831024 -5.322876 -5.32283z" fill-rule="evenodd"/><path stroke="#000000" stroke-width="1.0" stroke-linejoin="round" stroke-linecap="butt" d="m551.59216 243.2744l0 0c0 -2.9397125 2.3831177 -5.32283 5.322876 -5.32283l0 0c1.4116821 0 2.765564 0.560791 3.763794 1.559021c0.99823 0.9982147 1.559021 2.3521118 1.559021 3.7638092l0 0c0 2.9397278 -2.3831177 5.32283 -5.322815 5.32283l0 0c-2.9397583 0 -5.322876 -2.3831024 -5.322876 -5.32283z" fill-rule="evenodd"/><path fill="#f9cb9c" d="m551.59216 256.74835l0 0c0 -2.9397278 2.3831177 -5.3228455 5.322876 -5.3228455l0 0c1.4116821 0 2.765564 0.560791 3.763794 1.559021c0.99823 0.99823 1.559021 2.3521118 1.559021 3.7638245l0 0c0 2.9396973 -2.3831177 5.322815 -5.322815 5.322815l0 0c-2.9397583 0 -5.322876 -2.3831177 -5.322876 -5.322815z" fill-rule="evenodd"/><path stroke="#000000" stroke-width="1.0" stroke-linejoin="round" stroke-linecap="butt" d="m551.59216 256.74835l0 0c0 -2.9397278 2.3831177 -5.3228455 5.322876 -5.3228455l0 0c1.4116821 0 2.765564 0.560791 3.763794 1.559021c0.99823 0.99823 1.559021 2.3521118 1.559021 3.7638245l0 0c0 2.9396973 -2.3831177 5.322815 -5.322815 5.322815l0 0c-2.9397583 0 -5.322876 -2.3831177 -5.322876 -5.322815z" fill-rule="evenodd"/><path fill="#f9cb9c" d="m551.59216 270.2223l0 0c0 -2.9397278 2.3831177 -5.3228455 5.322876 -5.3228455l0 0c1.4116821 0 2.765564 0.560791 3.763794 1.559021c0.99823 0.99823 1.559021 2.3521118 1.559021 3.7638245l0 0c0 2.9396973 -2.3831177 5.322815 -5.322815 5.322815l0 0c-2.9397583 0 -5.322876 -2.3831177 -5.322876 -5.322815z" fill-rule="evenodd"/><path stroke="#000000" stroke-width="1.0" stroke-linejoin="round" stroke-linecap="butt" d="m551.59216 270.2223l0 0c0 -2.9397278 2.3831177 -5.3228455 5.322876 -5.3228455l0 0c1.4116821 0 2.765564 0.560791 3.763794 1.559021c0.99823 0.99823 1.559021 2.3521118 1.559021 3.7638245l0 0c0 2.9396973 -2.3831177 5.322815 -5.322815 5.322815l0 0c-2.9397583 0 -5.322876 -2.3831177 -5.322876 -5.322815z" fill-rule="evenodd"/><path fill="#b6d7a8" d="m522.0002 243.3838l0 0c0 -2.9397125 2.3831177 -5.32283 5.322815 -5.32283l0 0c1.4117432 0 2.765625 0.560791 3.763855 1.559021c0.99816895 0.99823 1.559021 2.3521118 1.559021 3.7638092l0 0c0 2.9397278 -2.3831177 5.3228455 -5.322876 5.3228455l0 0c-2.9396973 0 -5.322815 -2.3831177 -5.322815 -5.3228455z" fill-rule="evenodd"/><path stroke="#000000" stroke-width="1.0" stroke-linejoin="round" stroke-linecap="butt" d="m522.0002 243.3838l0 0c0 -2.9397125 2.3831177 -5.32283 5.322815 -5.32283l0 0c1.4117432 0 2.765625 0.560791 3.763855 1.559021c0.99816895 0.99823 1.559021 2.3521118 1.559021 3.7638092l0 0c0 2.9397278 -2.3831177 5.3228455 -5.322876 5.3228455l0 0c-2.9396973 0 -5.322815 -2.3831177 -5.322815 -5.3228455z" fill-rule="evenodd"/><path fill="#b6d7a8" d="m522.0002 256.85776l0 0c0 -2.9397278 2.3831177 -5.3228455 5.322815 -5.3228455l0 0c1.4117432 0 2.765625 0.560791 3.763855 1.559021c0.99816895 0.99823 1.559021 2.3521118 1.559021 3.7638245l0 0c0 2.9396973 -2.3831177 5.322815 -5.322876 5.322815l0 0c-2.9396973 0 -5.322815 -2.3831177 -5.322815 -5.322815z" fill-rule="evenodd"/><path stroke="#000000" stroke-width="1.0" stroke-linejoin="round" stroke-linecap="butt" d="m522.0002 256.85776l0 0c0 -2.9397278 2.3831177 -5.3228455 5.322815 -5.3228455l0 0c1.4117432 0 2.765625 0.560791 3.763855 1.559021c0.99816895 0.99823 1.559021 2.3521118 1.559021 3.7638245l0 0c0 2.9396973 -2.3831177 5.322815 -5.322876 5.322815l0 0c-2.9396973 0 -5.322815 -2.3831177 -5.322815 -5.322815z" fill-rule="evenodd"/><path fill="#b4a7d6" d="m599.1859 243.33022l0 0c0 -2.9397125 2.3830566 -5.32283 5.322815 -5.32283l0 0c1.4116821 0 2.765564 0.560791 3.763794 1.559021c0.99823 0.99823 1.559021 2.3521118 1.559021 3.7638092l0 0c0 2.9397278 -2.3831177 5.32283 -5.322815 5.32283l0 0c-2.9397583 0 -5.322815 -2.3831024 -5.322815 -5.32283z" fill-rule="evenodd"/><path stroke="#000000" stroke-width="1.0" stroke-linejoin="round" stroke-linecap="butt" d="m599.1859 243.33022l0 0c0 -2.9397125 2.3830566 -5.32283 5.322815 -5.32283l0 0c1.4116821 0 2.765564 0.560791 3.763794 1.559021c0.99823 0.99823 1.559021 2.3521118 1.559021 3.7638092l0 0c0 2.9397278 -2.3831177 5.32283 -5.322815 5.32283l0 0c-2.9397583 0 -5.322815 -2.3831024 -5.322815 -5.32283z" fill-rule="evenodd"/><path fill="#b4a7d6" d="m599.1859 256.80417l0 0c0 -2.9397278 2.3830566 -5.3228455 5.322815 -5.3228455l0 0c1.4116821 0 2.765564 0.560791 3.763794 1.559021c0.99823 0.99823 1.559021 2.3521118 1.559021 3.7638245l0 0c0 2.9396973 -2.3831177 5.322815 -5.322815 5.322815l0 0c-2.9397583 0 -5.322815 -2.3831177 -5.322815 -5.322815z" fill-rule="evenodd"/><path stroke="#000000" stroke-width="1.0" stroke-linejoin="round" stroke-linecap="butt" d="m599.1859 256.80417l0 0c0 -2.9397278 2.3830566 -5.3228455 5.322815 -5.3228455l0 0c1.4116821 0 2.765564 0.560791 3.763794 1.559021c0.99823 0.99823 1.559021 2.3521118 1.559021 3.7638245l0 0c0 2.9396973 -2.3831177 5.322815 -5.322815 5.322815l0 0c-2.9397583 0 -5.322815 -2.3831177 -5.322815 -5.322815z" fill-rule="evenodd"/><path fill="#000000" fill-opacity="0.0" d="m532.6459 243.3838l18.960632 -13.574799" fill-rule="evenodd"/><path stroke="#000000" stroke-width="1.0" stroke-linejoin="round" stroke-linecap="butt" d="m532.6458 243.38382l16.174133 -11.579788" fill-rule="evenodd"/><path fill="#000000" stroke="#000000" stroke-width="1.0" stroke-linecap="butt" d="m548.81995 231.80403l-0.25976562 1.569046l1.857605 -2.7130432l-3.1669312 0.8842621z" fill-rule="evenodd"/><path fill="#000000" fill-opacity="0.0" d="m532.6459 243.3838l18.960632 -0.09448242" fill-rule="evenodd"/><path stroke="#000000" stroke-width="1.0" stroke-linejoin="round" stroke-linecap="butt" d="m532.6458 243.38382l15.53363 -0.07740784" fill-rule="evenodd"/><path fill="#000000" stroke="#000000" stroke-width="1.0" stroke-linecap="butt" d="m548.17944 243.30641l-1.1190186 1.1301727l3.0841675 -1.1399689l-3.095337 -1.1091766z" fill-rule="evenodd"/><path fill="#000000" fill-opacity="0.0" d="m532.6459 243.3838l18.960632 13.354324" fill-rule="evenodd"/><path stroke="#000000" stroke-width="1.0" stroke-linejoin="round" stroke-linecap="butt" d="m532.6458 243.38382l16.158752 11.380905" fill-rule="evenodd"/><path fill="#000000" stroke="#000000" stroke-width="1.0" stroke-linecap="butt" d="m548.80457 254.76472l-1.5669556 0.27186584l3.173645 0.85975647l-1.87854 -2.6986084z" fill-rule="evenodd"/><path fill="#000000" fill-opacity="0.0" d="m532.6459 243.3838l18.960632 26.83464" fill-rule="evenodd"/><path stroke="#000000" stroke-width="1.0" stroke-linejoin="round" stroke-linecap="butt" d="m532.6458 243.38382l16.982971 24.035736" fill-rule="evenodd"/><path fill="#000000" stroke="#000000" stroke-width="1.0" stroke-linecap="butt" d="m549.62885 267.41956l-1.5674438 -0.26950073l2.701477 1.8744812l-0.864563 -3.1723938z" fill-rule="evenodd"/><path fill="#000000" fill-opacity="0.0" d="m532.6459 256.85776l18.960632 -27.05513" fill-rule="evenodd"/><path stroke="#000000" stroke-width="1.0" stroke-linejoin="round" stroke-linecap="butt" d="m532.6458 256.85776l16.993835 -24.248611" fill-rule="evenodd"/><path fill="#000000" stroke="#000000" stroke-width="1.0" stroke-linecap="butt" d="m549.63965 232.60915l0.2755127 1.5663452l0.8522949 -3.1756744l-2.6942139 1.8848572z" fill-rule="evenodd"/><path fill="#000000" fill-opacity="0.0" d="m532.6459 256.85776l18.960632 -13.574814" fill-rule="evenodd"/><path stroke="#000000" stroke-width="1.0" stroke-linejoin="round" stroke-linecap="butt" d="m532.6458 256.85776l16.174133 -11.579788" fill-rule="evenodd"/><path fill="#000000" stroke="#000000" stroke-width="1.0" stroke-linecap="butt" d="m548.81995 245.27797l-0.25976562 1.569046l1.857605 -2.7130432l-3.1669312 0.8842621z" fill-rule="evenodd"/><path fill="#000000" fill-opacity="0.0" d="m532.6459 256.85776l18.960632 -0.09451294" fill-rule="evenodd"/><path stroke="#000000" stroke-width="1.0" stroke-linejoin="round" stroke-linecap="butt" d="m532.6458 256.85776l15.53363 -0.077423096" fill-rule="evenodd"/><path fill="#000000" stroke="#000000" stroke-width="1.0" stroke-linecap="butt" d="m548.17944 256.78033l-1.1190186 1.130188l3.0841675 -1.1399841l-3.095337 -1.1091614z" fill-rule="evenodd"/><path fill="#000000" fill-opacity="0.0" d="m532.6459 256.85776l18.960632 13.354309" fill-rule="evenodd"/><path stroke="#000000" stroke-width="1.0" stroke-linejoin="round" stroke-linecap="butt" d="m532.6458 256.85776l16.158752 11.38089" fill-rule="evenodd"/><path fill="#000000" stroke="#000000" stroke-width="1.0" stroke-linecap="butt" d="m548.80457 268.23868l-1.5669556 0.2718506l3.173645 0.8597412l-1.87854 -2.6986084z" fill-rule="evenodd"/><path fill="#000000" fill-opacity="0.0" d="m562.23785 229.80046l36.944885 13.543304" fill-rule="evenodd"/><path stroke="#000000" stroke-width="1.0" stroke-linejoin="round" stroke-linecap="butt" d="m562.23785 229.80046l33.727234 12.36377" fill-rule="evenodd"/><path fill="#000000" stroke="#000000" stroke-width="1.0" stroke-linecap="butt" d="m595.965 242.16422l-1.4429321 0.66882324l3.288086 0.0075683594l-2.513977 -2.1193237z" fill-rule="evenodd"/><path fill="#000000" fill-opacity="0.0" d="m562.23785 243.2744l36.944885 0.06298828" fill-rule="evenodd"/><path stroke="#000000" stroke-width="1.0" stroke-linejoin="round" stroke-linecap="butt" d="m562.23785 243.2744l33.517822 0.057144165" fill-rule="evenodd"/><path fill="#000000" stroke="#000000" stroke-width="1.0" stroke-linecap="butt" d="m595.7557 243.33154l-1.1265259 1.1226654l3.0916748 -1.1193085l-3.0878296 -1.1298523z" fill-rule="evenodd"/><path fill="#000000" fill-opacity="0.0" d="m562.23785 256.74835l36.944885 -13.417343" fill-rule="evenodd"/><path stroke="#000000" stroke-width="1.0" stroke-linejoin="round" stroke-linecap="butt" d="m562.23785 256.74835l33.723633 -12.247467" fill-rule="evenodd"/><path fill="#000000" stroke="#000000" stroke-width="1.0" stroke-linecap="butt" d="m595.9615 244.50087l-0.67315674 1.440918l2.5203247 -2.11174l-3.288086 -0.002319336z" fill-rule="evenodd"/><path fill="#000000" fill-opacity="0.0" d="m562.23785 270.2223l36.944885 -26.897644" fill-rule="evenodd"/><path stroke="#000000" stroke-width="1.0" stroke-linejoin="round" stroke-linecap="butt" d="m562.23785 270.2223l34.174316 -24.880524" fill-rule="evenodd"/><path fill="#000000" stroke="#000000" stroke-width="1.0" stroke-linecap="butt" d="m596.4122 245.34175l-0.24725342 1.5710754l1.8359985 -2.7277374l-3.159851 0.9094238z" fill-rule="evenodd"/><path fill="#000000" fill-opacity="0.0" d="m562.23785 229.80046l36.944885 26.992111" fill-rule="evenodd"/><path stroke="#000000" stroke-width="1.0" stroke-linejoin="round" stroke-linecap="butt" d="m562.23785 229.80046l34.177673 24.970398" fill-rule="evenodd"/><path fill="#000000" stroke="#000000" stroke-width="1.0" stroke-linecap="butt" d="m596.4155 254.77084l-1.5714722 0.2446289l3.1582642 0.91470337l-1.8314209 -2.7308044z" fill-rule="evenodd"/><path fill="#000000" fill-opacity="0.0" d="m562.23785 243.2744l36.944885 13.54332" fill-rule="evenodd"/><path stroke="#000000" stroke-width="1.0" stroke-linejoin="round" stroke-linecap="butt" d="m562.23785 243.2744l33.727234 12.36377" fill-rule="evenodd"/><path fill="#000000" stroke="#000000" stroke-width="1.0" stroke-linecap="butt" d="m595.965 255.63815l-1.4429321 0.66882324l3.288086 0.0075683594l-2.513977 -2.1193237z" fill-rule="evenodd"/><path fill="#000000" fill-opacity="0.0" d="m562.23785 256.74835l36.944885 0.06298828" fill-rule="evenodd"/><path stroke="#000000" stroke-width="1.0" stroke-linejoin="round" stroke-linecap="butt" d="m562.23785 256.74835l33.517822 0.057128906" fill-rule="evenodd"/><path fill="#000000" stroke="#000000" stroke-width="1.0" stroke-linecap="butt" d="m595.7557 256.80548l-1.1265259 1.1226807l3.0916748 -1.1193237l-3.0878296 -1.1298523z" fill-rule="evenodd"/><path fill="#000000" fill-opacity="0.0" d="m562.23785 270.2223l36.944885 -13.417328" fill-rule="evenodd"/><path stroke="#000000" stroke-width="1.0" stroke-linejoin="round" stroke-linecap="butt" d="m562.23785 270.2223l33.723633 -12.247467" fill-rule="evenodd"/><path fill="#000000" stroke="#000000" stroke-width="1.0" stroke-linecap="butt" d="m595.9615 257.97482l-0.67315674 1.440918l2.5203247 -2.1117554l-3.288086 -0.002319336z" fill-rule="evenodd"/><g filter="url(#shadowFilter-g5d031e9e09_0_746.1)"><use xlink:href="#g5d031e9e09_0_746.1" transform="matrix(1.0 0.0 0.0 1.0 1.0 0.0)"/></g><defs><filter id="shadowFilter-g5d031e9e09_0_746.1" filterUnits="userSpaceOnUse"><feGaussianBlur in="SourceAlpha" stdDeviation="30.0" result="blur"/><feComponentTransfer in="blur" color-interpolation-filters="sRGB"><feFuncR type="linear" slope="0" intercept="0.0"/><feFuncG type="linear" slope="0" intercept="0.0"/><feFuncB type="linear" slope="0" intercept="0.0"/><feFuncA type="linear" slope="1.0" intercept="0"/></feComponentTransfer></filter></defs><g id="g5d031e9e09_0_746.1"><path fill="#000000" fill-opacity="0.0" d="m147.80315 125.85302l245.82677 0l0 41.16535l-245.82677 0z" fill-rule="evenodd"/><path fill="#ffffff" d="m243.69484 152.77301l-2.9375 0l-1.171875 -3.03125l-5.328125 0l-1.109375 3.03125l-2.859375 0l5.203125 -13.359375l2.84375 0l5.359375 13.359375zm-4.96875 -5.28125l-1.84375 -4.953125l-1.796875 4.953125l3.640625 0zm12.597946 0.375l0 -2.25l5.8125 0l0 5.3125q-0.84375 0.828125 -2.453125 1.453125q-1.609375 0.625 -3.25 0.625q-2.09375 0 -3.65625 -0.875q-1.5625 -0.890625 -2.34375 -2.515625q-0.78125 -1.640625 -0.78125 -3.5625q0 -2.09375 0.875 -3.703125q0.875 -1.625 2.5625 -2.5q1.28125 -0.65625 3.203125 -0.65625q2.484375 0 3.875 1.046875q1.40625 1.03125 1.796875 2.875l-2.671875 0.5q-0.28125 -0.984375 -1.0625 -1.546875q-0.78125 -0.578125 -1.9375 -0.578125q-1.78125 0 -2.828125 1.125q-1.03125 1.125 -1.03125 3.328125q0 2.375 1.046875 3.5625q1.0625 1.1875 2.78125 1.1875q0.84375 0 1.6875 -0.328125q0.859375 -0.328125 1.46875 -0.8125l0 -1.6875l-3.09375 0zm8.308289 4.90625l0 -13.359375l9.90625 0l0 2.265625l-7.21875 0l0 2.953125l6.71875 0l0 2.25l-6.71875 0l0 3.640625l7.46875 0l0 2.25l-10.15625 0zm12.474823 0l0 -13.359375l2.625 0l5.4531555 8.921875l0 -8.921875l2.515625 0l0 13.359375l-2.703125 0l-5.3906555 -8.703125l0 8.703125l-2.5 0zm16.441711 0l0 -11.09375l-3.953125 0l0 -2.265625l10.609375 0l0 2.265625l-3.953125 0l0 11.09375l-2.703125 0zm19.56366 0l-2.5625 0l0 -9.640625q-1.40625 1.3125 -3.3125 1.9375l0 -2.328125q1.015625 -0.328125 2.1875 -1.234375q1.171875 -0.921875 1.609375 -2.140625l2.078125 0l0 13.40625z" fill-rule="nonzero"/></g><g filter="url(#shadowFilter-g5d031e9e09_0_746.2)"><use xlink:href="#g5d031e9e09_0_746.2" transform="matrix(1.0 0.0 0.0 1.0 1.0 0.0)"/></g><defs><filter id="shadowFilter-g5d031e9e09_0_746.2" filterUnits="userSpaceOnUse"><feGaussianBlur in="SourceAlpha" stdDeviation="30.0" result="blur"/><feComponentTransfer in="blur" color-interpolation-filters="sRGB"><feFuncR type="linear" slope="0" intercept="0.0"/><feFuncG type="linear" slope="0" intercept="0.0"/><feFuncB type="linear" slope="0" intercept="0.0"/><feFuncA type="linear" slope="1.0" intercept="0"/></feComponentTransfer></filter></defs><g id="g5d031e9e09_0_746.2"><path fill="#000000" fill-opacity="0.0" d="m515.3727 133.79002l295.1181 0l0 41.16536l-295.1181 0z" fill-rule="evenodd"/><path fill="#ffffff" d="m635.91003 160.71002l-2.9375 0l-1.171875 -3.03125l-5.328125 0l-1.109375 3.03125l-2.859375 0l5.203125 -13.359375l2.84375 0l5.359375 13.359375zm-4.96875 -5.28125l-1.84375 -4.953125l-1.796875 4.953125l3.640625 0zm12.597961 0.375l0 -2.25l5.8125 0l0 5.3125q-0.84375 0.828125 -2.453125 1.453125q-1.609375 0.625 -3.25 0.625q-2.09375 0 -3.65625 -0.875q-1.5625 -0.890625 -2.34375 -2.515625q-0.78125 -1.640625 -0.78125 -3.5625q0 -2.09375 0.875 -3.703125q0.875 -1.625 2.5625 -2.5q1.28125 -0.65625 3.203125 -0.65625q2.484375 0 3.875 1.046875q1.40625 1.03125 1.796875 2.875l-2.671875 0.5q-0.28125 -0.984375 -1.0625 -1.546875q-0.78125 -0.578125 -1.9375 -0.578125q-1.78125 0 -2.828125 1.125q-1.03125 1.125 -1.03125 3.328125q0 2.375 1.046875 3.5625q1.0625 1.1875 2.78125 1.1875q0.84375 0 1.6875 -0.328125q0.859375 -0.328125 1.46875 -0.8125l0 -1.6875l-3.09375 0zm8.308289 4.90625l0 -13.359375l9.90625 0l0 2.265625l-7.21875 0l0 2.953125l6.71875 0l0 2.25l-6.71875 0l0 3.640625l7.46875 0l0 2.25l-10.15625 0zm12.4748535 0l0 -13.359375l2.625 0l5.453125 8.921875l0 -8.921875l2.515625 0l0 13.359375l-2.703125 0l-5.390625 -8.703125l0 8.703125l-2.5 0zm16.441711 0l0 -11.09375l-3.953125 0l0 -2.265625l10.609375 0l0 2.265625l-3.953125 0l0 11.09375l-2.703125 0zm21.65741 -2.375l0 2.375l-8.96875 0q0.140625 -1.34375 0.859375 -2.546875q0.734375 -1.21875 2.890625 -3.203125q1.734375 -1.625 2.125 -2.1875q0.53125 -0.796875 0.53125 -1.578125q0 -0.84375 -0.46875 -1.296875q-0.453125 -0.46875 -1.265625 -0.46875q-0.796875 0 -1.28125 0.484375q-0.46875 0.46875 -0.546875 1.59375l-2.546875 -0.25q0.234375 -2.109375 1.421875 -3.03125q1.203125 -0.921875 3.015625 -0.921875q1.96875 0 3.09375 1.0625q1.140625 1.0625 1.140625 2.65625q0 0.890625 -0.328125 1.71875q-0.3125 0.8125 -1.015625 1.703125q-0.46875 0.59375 -1.6875 1.703125q-1.203125 1.109375 -1.53125 1.484375q-0.3125 0.359375 -0.515625 0.703125l5.078125 0z" fill-rule="nonzero"/></g></g></svg>