<svg version="1.1" viewBox="0.0 0.0 960.0 540.0" fill="none" stroke="none" stroke-linecap="square" stroke-miterlimit="10" xmlns:xlink="http://www.w3.org/1999/xlink" xmlns="http://www.w3.org/2000/svg"><clipPath id="g5d031e9e09_0_1474.0"><path d="m0 0l960.0 0l0 540.0l-960.0 0l0 -540.0z" clip-rule="nonzero"/></clipPath><g clip-path="url(#g5d031e9e09_0_1474.0)"><path fill="#ffffff" d="m0 0l960.0 0l0 540.0l-960.0 0z" fill-rule="evenodd"/><path fill="#cccccc" d="m572.83295 167.56773l0 0c0 -28.286789 22.93097 -51.21775 51.217712 -51.21775l219.07526 0l0 0c13.583801 0 26.611206 5.396141 36.21643 15.001335c9.605164 9.605194 15.001343 22.632614 15.001343 36.216415l0 204.86482c0 28.286774 -22.93097 51.217743 -51.217773 51.217743l-219.07526 0c-28.286743 0 -51.217712 -22.93097 -51.217712 -51.217743z" fill-rule="evenodd"/><path fill="#cccccc" d="m65.678474 160.23053l0 0c0 -24.23433 19.645813 -43.880135 43.880142 -43.880135l175.51529 0l0 0c11.637756 0 22.798828 4.62307 31.027954 12.852196c8.229126 8.229126 12.852203 19.390213 12.852203 31.027939l0 218.09799c0 24.234344 -19.645813 43.880127 -43.880157 43.880127l-175.51529 0c-24.23433 0 -43.880142 -19.645782 -43.880142 -43.880127z" fill-rule="evenodd"/><path fill="#ffffff" d="m196.27428 202.49672l120.157486 0l0 75.244095l-120.157486 0z" fill-rule="evenodd"/><path stroke="#000000" stroke-width="2.0" stroke-linejoin="round" stroke-linecap="butt" d="m196.27428 202.49672l120.157486 0l0 75.244095l-120.157486 0z" fill-rule="evenodd"/><path fill="#f9cb9c" d="m241.85579 219.90938l0 0c0 -2.9397125 2.3831177 -5.32283 5.3228455 -5.32283l0 0c1.4116974 0 2.7655792 0.560791 3.7638092 1.559021c0.99823 0.99823 1.559021 2.3521118 1.559021 3.7638092l0 0c0 2.9397278 -2.3831177 5.3228455 -5.32283 5.3228455l0 0c-2.9397278 0 -5.3228455 -2.3831177 -5.3228455 -5.3228455z" fill-rule="evenodd"/><path stroke="#000000" stroke-width="1.0" stroke-linejoin="round" stroke-linecap="butt" d="m241.85579 219.90938l0 0c0 -2.9397125 2.3831177 -5.32283 5.3228455 -5.32283l0 0c1.4116974 0 2.7655792 0.560791 3.7638092 1.559021c0.99823 0.99823 1.559021 2.3521118 1.559021 3.7638092l0 0c0 2.9397278 -2.3831177 5.3228455 -5.32283 5.3228455l0 0c-2.9397278 0 -5.3228455 -2.3831177 -5.3228455 -5.3228455z" fill-rule="evenodd"/><path fill="#f9cb9c" d="m241.85579 233.38332l0 0c0 -2.9397125 2.3831177 -5.32283 5.3228455 -5.32283l0 0c1.4116974 0 2.7655792 0.5608063 3.7638092 1.559021c0.99823 0.99823 1.559021 2.3521118 1.559021 3.7638092l0 0c0 2.9397278 -2.3831177 5.3228455 -5.32283 5.3228455l0 0c-2.9397278 0 -5.3228455 -2.3831177 -5.3228455 -5.3228455z" fill-rule="evenodd"/><path stroke="#000000" stroke-width="1.0" stroke-linejoin="round" stroke-linecap="butt" d="m241.85579 233.38332l0 0c0 -2.9397125 2.3831177 -5.32283 5.3228455 -5.32283l0 0c1.4116974 0 2.7655792 0.5608063 3.7638092 1.559021c0.99823 0.99823 1.559021 2.3521118 1.559021 3.7638092l0 0c0 2.9397278 -2.3831177 5.3228455 -5.32283 5.3228455l0 0c-2.9397278 0 -5.3228455 -2.3831177 -5.3228455 -5.3228455z" fill-rule="evenodd"/><path fill="#f9cb9c" d="m241.85579 246.85727l0 0c0 -2.9397278 2.3831177 -5.3228455 5.3228455 -5.3228455l0 0c1.4116974 0 2.7655792 0.5608063 3.7638092 1.559021c0.99823 0.99823 1.559021 2.3521118 1.559021 3.7638245l0 0c0 2.9397125 -2.3831177 5.32283 -5.32283 5.32283l0 0c-2.9397278 0 -5.3228455 -2.3831177 -5.3228455 -5.32283z" fill-rule="evenodd"/><path stroke="#000000" stroke-width="1.0" stroke-linejoin="round" stroke-linecap="butt" d="m241.85579 246.85727l0 0c0 -2.9397278 2.3831177 -5.3228455 5.3228455 -5.3228455l0 0c1.4116974 0 2.7655792 0.5608063 3.7638092 1.559021c0.99823 0.99823 1.559021 2.3521118 1.559021 3.7638245l0 0c0 2.9397125 -2.3831177 5.32283 -5.32283 5.32283l0 0c-2.9397278 0 -5.3228455 -2.3831177 -5.3228455 -5.32283z" fill-rule="evenodd"/><path fill="#f9cb9c" d="m241.85579 260.3312l0 0c0 -2.9397278 2.3831177 -5.3228455 5.3228455 -5.3228455l0 0c1.4116974 0 2.7655792 0.5608063 3.7638092 1.559021c0.99823 0.99823 1.559021 2.3521118 1.559021 3.7638245l0 0c0 2.9397278 -2.3831177 5.322815 -5.32283 5.322815l0 0c-2.9397278 0 -5.3228455 -2.3830872 -5.3228455 -5.322815z" fill-rule="evenodd"/><path stroke="#000000" stroke-width="1.0" stroke-linejoin="round" stroke-linecap="butt" d="m241.85579 260.3312l0 0c0 -2.9397278 2.3831177 -5.3228455 5.3228455 -5.3228455l0 0c1.4116974 0 2.7655792 0.5608063 3.7638092 1.559021c0.99823 0.99823 1.559021 2.3521118 1.559021 3.7638245l0 0c0 2.9397278 -2.3831177 5.322815 -5.32283 5.322815l0 0c-2.9397278 0 -5.3228455 -2.3830872 -5.3228455 -5.322815z" fill-rule="evenodd"/><path fill="#b4a7d6" d="m212.2638 233.49274l0 0c0 -2.9397278 2.3831177 -5.3228455 5.3228455 -5.3228455l0 0c1.4116974 0 2.7655792 0.5608063 3.7638092 1.5590363c0.9982147 0.9982147 1.559021 2.3520966 1.559021 3.7638092l0 0c0 2.9397125 -2.3831177 5.32283 -5.32283 5.32283l0 0c-2.9397278 0 -5.3228455 -2.3831177 -5.3228455 -5.32283z" fill-rule="evenodd"/><path stroke="#000000" stroke-width="1.0" stroke-linejoin="round" stroke-linecap="butt" d="m212.2638 233.49274l0 0c0 -2.9397278 2.3831177 -5.3228455 5.3228455 -5.3228455l0 0c1.4116974 0 2.7655792 0.5608063 3.7638092 1.5590363c0.9982147 0.9982147 1.559021 2.3520966 1.559021 3.7638092l0 0c0 2.9397125 -2.3831177 5.32283 -5.32283 5.32283l0 0c-2.9397278 0 -5.3228455 -2.3831177 -5.3228455 -5.32283z" fill-rule="evenodd"/><path fill="#b4a7d6" d="m212.2638 246.96667l0 0c0 -2.9397278 2.3831177 -5.32283 5.3228455 -5.32283l0 0c1.4116974 0 2.7655792 0.560791 3.7638092 1.559021c0.9982147 0.9982147 1.559021 2.3520966 1.559021 3.7638092l0 0c0 2.9397125 -2.3831177 5.32283 -5.32283 5.32283l0 0c-2.9397278 0 -5.3228455 -2.3831177 -5.3228455 -5.32283z" fill-rule="evenodd"/><path stroke="#000000" stroke-width="1.0" stroke-linejoin="round" stroke-linecap="butt" d="m212.2638 246.96667l0 0c0 -2.9397278 2.3831177 -5.32283 5.3228455 -5.32283l0 0c1.4116974 0 2.7655792 0.560791 3.7638092 1.559021c0.9982147 0.9982147 1.559021 2.3520966 1.559021 3.7638092l0 0c0 2.9397125 -2.3831177 5.32283 -5.32283 5.32283l0 0c-2.9397278 0 -5.3228455 -2.3831177 -5.3228455 -5.32283z" fill-rule="evenodd"/><path fill="#b6d7a8" d="m289.4495 233.43915l0 0c0 -2.9397278 2.3831177 -5.3228455 5.3228455 -5.3228455l0 0c1.4117126 0 2.7655945 0.5608063 3.7638245 1.559021c0.99819946 0.99823 1.559021 2.3521118 1.559021 3.7638245l0 0c0 2.9397125 -2.3831177 5.32283 -5.3228455 5.32283l0 0c-2.9397278 0 -5.3228455 -2.3831177 -5.3228455 -5.32283z" fill-rule="evenodd"/><path stroke="#000000" stroke-width="1.0" stroke-linejoin="round" stroke-linecap="butt" d="m289.4495 233.43915l0 0c0 -2.9397278 2.3831177 -5.3228455 5.3228455 -5.3228455l0 0c1.4117126 0 2.7655945 0.5608063 3.7638245 1.559021c0.99819946 0.99823 1.559021 2.3521118 1.559021 3.7638245l0 0c0 2.9397125 -2.3831177 5.32283 -5.3228455 5.32283l0 0c-2.9397278 0 -5.3228455 -2.3831177 -5.3228455 -5.32283z" fill-rule="evenodd"/><path fill="#b6d7a8" d="m289.4495 246.91309l0 0c0 -2.9397278 2.3831177 -5.3228455 5.3228455 -5.3228455l0 0c1.4117126 0 2.7655945 0.5608063 3.7638245 1.559021c0.99819946 0.99823 1.559021 2.3521118 1.559021 3.7638245l0 0c0 2.9397125 -2.3831177 5.32283 -5.3228455 5.32283l0 0c-2.9397278 0 -5.3228455 -2.3831177 -5.3228455 -5.32283z" fill-rule="evenodd"/><path stroke="#000000" stroke-width="1.0" stroke-linejoin="round" stroke-linecap="butt" d="m289.4495 246.91309l0 0c0 -2.9397278 2.3831177 -5.3228455 5.3228455 -5.3228455l0 0c1.4117126 0 2.7655945 0.5608063 3.7638245 1.559021c0.99819946 0.99823 1.559021 2.3521118 1.559021 3.7638245l0 0c0 2.9397125 -2.3831177 5.32283 -5.3228455 5.32283l0 0c-2.9397278 0 -5.3228455 -2.3831177 -5.3228455 -5.32283z" fill-rule="evenodd"/><path fill="#000000" fill-opacity="0.0" d="m222.90947 233.49274l18.960632 -13.574814" fill-rule="evenodd"/><path stroke="#000000" stroke-width="1.0" stroke-linejoin="round" stroke-linecap="butt" d="m222.90947 233.49274l16.174088 -11.579788" fill-rule="evenodd"/><path fill="#000000" stroke="#000000" stroke-width="1.0" stroke-linecap="butt" d="m239.08356 221.91295l-0.2597351 1.5690613l1.8576202 -2.7130585l-3.1669312 0.8842621z" fill-rule="evenodd"/><path fill="#000000" fill-opacity="0.0" d="m222.90947 233.49274l18.960632 -0.09449768" fill-rule="evenodd"/><path stroke="#000000" stroke-width="1.0" stroke-linejoin="round" stroke-linecap="butt" d="m222.90947 233.49274l15.533585 -0.07740784" fill-rule="evenodd"/><path fill="#000000" stroke="#000000" stroke-width="1.0" stroke-linecap="butt" d="m238.44305 233.41533l-1.1189575 1.1301727l3.0841217 -1.1399689l-3.095337 -1.1091614z" fill-rule="evenodd"/><path fill="#000000" fill-opacity="0.0" d="m222.90947 233.49274l18.960632 13.354324" fill-rule="evenodd"/><path stroke="#000000" stroke-width="1.0" stroke-linejoin="round" stroke-linecap="butt" d="m222.90947 233.49274l16.158752 11.380905" fill-rule="evenodd"/><path fill="#000000" stroke="#000000" stroke-width="1.0" stroke-linecap="butt" d="m239.06822 244.87366l-1.5670013 0.2718506l3.1736755 0.85975647l-1.87854 -2.6986084z" fill-rule="evenodd"/><path fill="#000000" fill-opacity="0.0" d="m222.90947 233.49274l18.960632 26.834656" fill-rule="evenodd"/><path stroke="#000000" stroke-width="1.0" stroke-linejoin="round" stroke-linecap="butt" d="m222.90947 233.49274l16.983002 24.035736" fill-rule="evenodd"/><path fill="#000000" stroke="#000000" stroke-width="1.0" stroke-linecap="butt" d="m239.89247 257.52847l-1.5674133 -0.26950073l2.7014313 1.8744812l-0.8645172 -3.1723785z" fill-rule="evenodd"/><path fill="#000000" fill-opacity="0.0" d="m222.90947 246.96667l18.960632 -27.055115" fill-rule="evenodd"/><path stroke="#000000" stroke-width="1.0" stroke-linejoin="round" stroke-linecap="butt" d="m222.90947 246.96667l16.99379 -24.248596" fill-rule="evenodd"/><path fill="#000000" stroke="#000000" stroke-width="1.0" stroke-linecap="butt" d="m239.90326 222.71806l0.27552795 1.5663605l0.8523102 -3.1756897l-2.6941833 1.8848572z" fill-rule="evenodd"/><path fill="#000000" fill-opacity="0.0" d="m222.90947 246.96667l18.960632 -13.574814" fill-rule="evenodd"/><path stroke="#000000" stroke-width="1.0" stroke-linejoin="round" stroke-linecap="butt" d="m222.90947 246.96667l16.174088 -11.579788" fill-rule="evenodd"/><path fill="#000000" stroke="#000000" stroke-width="1.0" stroke-linecap="butt" d="m239.08356 235.38689l-0.2597351 1.5690613l1.8576202 -2.7130585l-3.1669312 0.8842621z" fill-rule="evenodd"/><path fill="#000000" fill-opacity="0.0" d="m222.90947 246.96667l18.960632 -0.09449768" fill-rule="evenodd"/><path stroke="#000000" stroke-width="1.0" stroke-linejoin="round" stroke-linecap="butt" d="m222.90947 246.96667l15.533585 -0.07740784" fill-rule="evenodd"/><path fill="#000000" stroke="#000000" stroke-width="1.0" stroke-linecap="butt" d="m238.44305 246.88927l-1.1189575 1.1301727l3.0841217 -1.1399689l-3.095337 -1.1091614z" fill-rule="evenodd"/><path fill="#000000" fill-opacity="0.0" d="m222.90947 246.96667l18.960632 13.35434" fill-rule="evenodd"/><path stroke="#000000" stroke-width="1.0" stroke-linejoin="round" stroke-linecap="butt" d="m222.90947 246.96667l16.158752 11.38092" fill-rule="evenodd"/><path fill="#000000" stroke="#000000" stroke-width="1.0" stroke-linecap="butt" d="m239.06822 258.3476l-1.5670013 0.2718506l3.1736755 0.8597717l-1.87854 -2.6986084z" fill-rule="evenodd"/><path fill="#000000" fill-opacity="0.0" d="m252.50146 219.90938l36.944885 13.54332" fill-rule="evenodd"/><path stroke="#000000" stroke-width="1.0" stroke-linejoin="round" stroke-linecap="butt" d="m252.50145 219.9094l33.72719 12.363754" fill-rule="evenodd"/><path fill="#000000" stroke="#000000" stroke-width="1.0" stroke-linecap="butt" d="m286.22864 232.27315l-1.4429321 0.668808l3.2880554 0.0075683594l-2.5139465 -2.1193085z" fill-rule="evenodd"/><path fill="#000000" fill-opacity="0.0" d="m252.50146 233.38332l36.944885 0.06300354" fill-rule="evenodd"/><path stroke="#000000" stroke-width="1.0" stroke-linejoin="round" stroke-linecap="butt" d="m252.50145 233.38333l33.517807 0.057144165" fill-rule="evenodd"/><path fill="#000000" stroke="#000000" stroke-width="1.0" stroke-linecap="butt" d="m286.01926 233.44048l-1.1264954 1.1226654l3.0916748 -1.1193237l-3.0878296 -1.129837z" fill-rule="evenodd"/><path fill="#000000" fill-opacity="0.0" d="m252.50146 246.85727l36.944885 -13.417328" fill-rule="evenodd"/><path stroke="#000000" stroke-width="1.0" stroke-linejoin="round" stroke-linecap="butt" d="m252.50145 246.85727l33.723648 -12.247467" fill-rule="evenodd"/><path fill="#000000" stroke="#000000" stroke-width="1.0" stroke-linecap="butt" d="m286.2251 234.6098l-0.67315674 1.440918l2.5202942 -2.1117554l-3.2880554 -0.002319336z" fill-rule="evenodd"/><path fill="#000000" fill-opacity="0.0" d="m252.50146 260.3312l36.944885 -26.897644" fill-rule="evenodd"/><path stroke="#000000" stroke-width="1.0" stroke-linejoin="round" stroke-linecap="butt" d="m252.50145 260.3312l34.1743 -24.880524" fill-rule="evenodd"/><path fill="#000000" stroke="#000000" stroke-width="1.0" stroke-linecap="butt" d="m286.67575 235.45068l-0.24725342 1.5710602l1.835968 -2.7277374l-3.15979 0.9094238z" fill-rule="evenodd"/><path fill="#000000" fill-opacity="0.0" d="m252.50146 219.90938l36.944885 26.992126" fill-rule="evenodd"/><path stroke="#000000" stroke-width="1.0" stroke-linejoin="round" stroke-linecap="butt" d="m252.50145 219.9094l34.177658 24.970383" fill-rule="evenodd"/><path fill="#000000" stroke="#000000" stroke-width="1.0" stroke-linecap="butt" d="m286.6791 244.87978l-1.5714722 0.24461365l3.1582947 0.91470337l-1.8314209 -2.7308044z" fill-rule="evenodd"/><path fill="#000000" fill-opacity="0.0" d="m252.50146 233.38332l36.944885 13.54332" fill-rule="evenodd"/><path stroke="#000000" stroke-width="1.0" stroke-linejoin="round" stroke-linecap="butt" d="m252.50145 233.38333l33.72719 12.363754" fill-rule="evenodd"/><path fill="#000000" stroke="#000000" stroke-width="1.0" stroke-linecap="butt" d="m286.22864 245.74709l-1.4429321 0.668808l3.2880554 0.0075683594l-2.5139465 -2.1193237z" fill-rule="evenodd"/><path fill="#000000" fill-opacity="0.0" d="m252.50146 246.85727l36.944885 0.06298828" fill-rule="evenodd"/><path stroke="#000000" stroke-width="1.0" stroke-linejoin="round" stroke-linecap="butt" d="m252.50145 246.85727l33.517807 0.057144165" fill-rule="evenodd"/><path fill="#000000" stroke="#000000" stroke-width="1.0" stroke-linecap="butt" d="m286.01926 246.91441l-1.1264954 1.1226654l3.0916748 -1.1193237l-3.0878296 -1.129837z" fill-rule="evenodd"/><path fill="#000000" fill-opacity="0.0" d="m252.50146 260.3312l36.944885 -13.417328" fill-rule="evenodd"/><path stroke="#000000" stroke-width="1.0" stroke-linejoin="round" stroke-linecap="butt" d="m252.50145 260.3312l33.723648 -12.247467" fill-rule="evenodd"/><path fill="#000000" stroke="#000000" stroke-width="1.0" stroke-linecap="butt" d="m286.2251 248.08374l-0.67315674 1.440918l2.5202942 -2.1117554l-3.2880554 -0.002319336z" fill-rule="evenodd"/><path fill="#000000" fill-opacity="0.0" d="m195.63902 159.42389l120.157486 0l0 41.165344l-120.157486 0z" fill-rule="evenodd"/><path fill="#000000" d="m237.8795 186.34389l0 -13.359375l4.03125 0l2.421875 9.109375l2.390625 -9.109375l4.046875 0l0 13.359375l-2.5 0l0 -10.515625l-2.65625 10.515625l-2.59375 0l-2.640625 -10.515625l0 10.515625l-2.5 0zm14.962677 -4.96875q0 -1.28125 0.625 -2.46875q0.625 -1.203125 1.78125 -1.828125q1.1562653 -0.625 2.5781403 -0.625q2.1875 0 3.59375 1.421875q1.40625 1.421875 1.40625 3.609375q0 2.1875 -1.421875 3.640625q-1.421875 1.4375 -3.5625 1.4375q-1.328125 0 -2.5468903 -0.59375q-1.203125 -0.609375 -1.828125 -1.765625q-0.625 -1.171875 -0.625 -2.828125zm2.625 0.125q0 1.453125 0.67189026 2.21875q0.6875 0.75 1.6875 0.75q1.0 0 1.671875 -0.75q0.6875 -0.765625 0.6875 -2.234375q0 -1.421875 -0.6875 -2.1875q-0.671875 -0.765625 -1.671875 -0.765625q-1.0 0 -1.6875 0.765625q-0.67189026 0.765625 -0.67189026 2.203125zm18.23973 4.84375l-2.390625 0l0 -1.421875q-0.59375 0.828125 -1.40625 1.234375q-0.796875 0.40625 -1.609375 0.40625q-1.671875 0 -2.859375 -1.34375q-1.1875 -1.34375 -1.1875 -3.75q0 -2.453125 1.15625 -3.734375q1.15625 -1.28125 2.921875 -1.28125q1.625 0 2.8125 1.34375l0 -4.8125l2.5625 0l0 13.359375zm-6.84375 -5.046875q0 1.546875 0.4375 2.234375q0.609375 1.015625 1.71875 1.015625q0.890625 0 1.5 -0.75q0.625 -0.765625 0.625 -2.25q0 -1.671875 -0.609375 -2.40625q-0.59375 -0.734375 -1.53125 -0.734375q-0.90625 0 -1.53125 0.734375q-0.609375 0.71875 -0.609375 2.15625z" fill-rule="nonzero"/><path fill="#000000" fill-opacity="0.0" d="m587.0511 158.3189l116.44098 0l0 41.16536l-116.44098 0z" fill-rule="evenodd"/><path fill="#000000" d="m615.0008 171.87952l4.9375 0q1.65625 0 2.53125 0.265625q1.1875 0.34375 2.015625 1.234375q0.84375 0.875 1.28125 2.15625q0.4375 1.28125 0.4375 3.15625q0 1.640625 -0.40625 2.84375q-0.5 1.453125 -1.4375 2.359375q-0.703125 0.671875 -1.890625 1.0625q-0.890625 0.28125 -2.390625 0.28125l-5.078125 0l0 -13.359375zm2.703125 2.265625l0 8.84375l2.015625 0q1.125 0 1.625 -0.125q0.65625 -0.171875 1.078125 -0.5625q0.4375 -0.390625 0.703125 -1.28125q0.28125 -0.90625 0.28125 -2.453125q0 -1.546875 -0.28125 -2.375q-0.265625 -0.828125 -0.765625 -1.28125q-0.484375 -0.46875 -1.234375 -0.640625q-0.5625 -0.125 -2.21875 -0.125l-1.203125 0zm16.363586 8.015625l2.546875 0.421875q-0.484375 1.40625 -1.546875 2.140625q-1.0625 0.734375 -2.65625 0.734375q-2.515625 0 -3.734375 -1.65625q-0.953125 -1.3125 -0.953125 -3.328125q0 -2.40625 1.25 -3.765625q1.265625 -1.359375 3.1875 -1.359375q2.15625 0 3.40625 1.421875q1.25 1.421875 1.1875 4.375l-6.40625 0q0.03125 1.140625 0.609375 1.78125q0.59375 0.625 1.484375 0.625q0.59375 0 1.0 -0.328125q0.421875 -0.328125 0.625 -1.0625zm0.15625 -2.59375q-0.03125 -1.109375 -0.578125 -1.6875q-0.546875 -0.578125 -1.328125 -0.578125q-0.84375 0 -1.390625 0.609375q-0.546875 0.609375 -0.53125 1.65625l3.828125 0zm4.4226074 -4.0l2.359375 0l0 1.3125q1.265625 -1.53125 3.015625 -1.53125q0.9375 0 1.609375 0.390625q0.6875 0.375 1.125 1.140625q0.640625 -0.765625 1.375 -1.140625q0.75 -0.390625 1.578125 -0.390625q1.0625 0 1.796875 0.4375q0.75 0.421875 1.109375 1.265625q0.265625 0.625 0.265625 2.0l0 6.1875l-2.5625 0l0 -5.53125q0 -1.4375 -0.265625 -1.859375q-0.34375 -0.546875 -1.09375 -0.546875q-0.53125 0 -1.015625 0.328125q-0.46875 0.328125 -0.671875 0.96875q-0.203125 0.625 -0.203125 2.0l0 4.640625l-2.5625 0l0 -5.296875q0 -1.421875 -0.140625 -1.828125q-0.140625 -0.40625 -0.421875 -0.609375q-0.28125 -0.203125 -0.78125 -0.203125q-0.59375 0 -1.0625 0.328125q-0.46875 0.3125 -0.6875 0.921875q-0.203125 0.59375 -0.203125 1.984375l0 4.703125l-2.5625 0l0 -9.671875zm16.197754 4.703125q0 -1.28125 0.625 -2.46875q0.625 -1.203125 1.78125 -1.828125q1.15625 -0.625 2.578125 -0.625q2.1875 0 3.59375 1.421875q1.40625 1.421875 1.40625 3.609375q0 2.1875 -1.421875 3.640625q-1.421875 1.4375 -3.5625 1.4375q-1.328125 0 -2.546875 -0.59375q-1.203125 -0.609375 -1.828125 -1.765625q-0.625 -1.171875 -0.625 -2.828125zm2.625 0.125q0 1.453125 0.671875 2.21875q0.6875 0.75 1.6875 0.75q1.0 0 1.671875 -0.75q0.6875 -0.765625 0.6875 -2.234375q0 -1.421875 -0.6875 -2.1875q-0.671875 -0.765625 -1.671875 -0.765625q-1.0 0 -1.6875 0.765625q-0.671875 0.765625 -0.671875 2.203125zm18.239746 4.84375l-2.390625 0l0 -1.421875q-0.59375 0.828125 -1.40625 1.234375q-0.796875 0.40625 -1.609375 0.40625q-1.671875 0 -2.859375 -1.34375q-1.1875 -1.34375 -1.1875 -3.75q0 -2.453125 1.15625 -3.734375q1.15625 -1.28125 2.921875 -1.28125q1.625 0 2.8125 1.34375l0 -4.8125l2.5625 0l0 13.359375zm-6.84375 -5.046875q0 1.546875 0.4375 2.234375q0.609375 1.015625 1.71875 1.015625q0.890625 0 1.5 -0.75q0.625 -0.765625 0.625 -2.25q0 -1.671875 -0.609375 -2.40625q-0.59375 -0.734375 -1.53125 -0.734375q-0.90625 0 -1.53125 0.734375q-0.609375 0.71875 -0.609375 2.15625z" fill-rule="nonzero"/><path fill="#000000" fill-opacity="0.0" d="m321.19028 230.72035l79.055115 0l0 31.023605l-79.055115 0z" fill-rule="evenodd"/><path fill="#000000" d="m335.5069 249.31473l-2.0 -0.359375q0.34375 -1.203125 1.15625 -1.78125q0.828125 -0.578125 2.4375 -0.578125q1.46875 0 2.1875 0.34375q0.71875 0.34375 1.015625 0.890625q0.296875 0.53125 0.296875 1.953125l-0.03125 2.5625q0 1.09375 0.109375 1.625q0.109375 0.515625 0.390625 1.109375l-2.171875 0q-0.078125 -0.21875 -0.203125 -0.65625q-0.0625 -0.1875 -0.078125 -0.25q-0.5625 0.546875 -1.203125 0.828125q-0.640625 0.265625 -1.375 0.265625q-1.28125 0 -2.015625 -0.6875q-0.734375 -0.703125 -0.734375 -1.765625q0 -0.703125 0.328125 -1.25q0.34375 -0.5625 0.9375 -0.84375q0.609375 -0.296875 1.75 -0.515625q1.546875 -0.296875 2.140625 -0.546875l0 -0.21875q0 -0.625 -0.3125 -0.890625q-0.3125 -0.28125 -1.1875 -0.28125q-0.578125 0 -0.90625 0.234375q-0.328125 0.234375 -0.53125 0.8125zm2.9375 1.78125q-0.421875 0.140625 -1.34375 0.34375q-0.90625 0.1875 -1.1875 0.375q-0.4375 0.296875 -0.4375 0.765625q0 0.46875 0.34375 0.8125q0.34375 0.328125 0.875 0.328125q0.59375 0 1.140625 -0.390625q0.390625 -0.296875 0.515625 -0.734375q0.09375 -0.28125 0.09375 -1.0625l0 -0.4375zm11.5546875 -1.859375l-2.171875 0.390625q-0.109375 -0.65625 -0.5 -0.984375q-0.375 -0.328125 -1.0 -0.328125q-0.8125 0 -1.3125 0.578125q-0.484375 0.5625 -0.484375 1.890625q0 1.46875 0.5 2.078125q0.5 0.609375 1.328125 0.609375q0.625 0 1.015625 -0.34375q0.40625 -0.359375 0.578125 -1.234375l2.15625 0.375q-0.34375 1.484375 -1.296875 2.25q-0.953125 0.75 -2.546875 0.75q-1.828125 0 -2.90625 -1.140625q-1.078125 -1.15625 -1.078125 -3.1875q0 -2.0625 1.078125 -3.203125q1.09375 -1.140625 2.9375 -1.140625q1.515625 0 2.40625 0.65625q0.90625 0.640625 1.296875 1.984375zm5.4609375 -2.453125l0 1.75l-1.5 0l0 3.34375q0 1.015625 0.046875 1.1875q0.046875 0.15625 0.1875 0.265625q0.15625 0.109375 0.375 0.109375q0.3125 0 0.890625 -0.203125l0.1875 1.703125q-0.765625 0.328125 -1.734375 0.328125q-0.59375 0 -1.078125 -0.203125q-0.46875 -0.203125 -0.703125 -0.515625q-0.21875 -0.3125 -0.296875 -0.859375q-0.078125 -0.375 -0.078125 -1.546875l0 -3.609375l-1.0 0l0 -1.75l1.0 0l0 -1.65625l2.203125 -1.28125l0 2.9375l1.5 0zm1.53125 -1.125l0 -2.03125l2.1875 0l0 2.03125l-2.1875 0zm0 9.421875l0 -8.296875l2.1875 0l0 8.296875l-2.1875 0zm3.9296875 -4.265625q0 -1.09375 0.53125 -2.109375q0.546875 -1.03125 1.53125 -1.5625q1.0 -0.546875 2.21875 -0.546875q1.875 0 3.078125 1.21875q1.203125 1.21875 1.203125 3.09375q0 1.875 -1.21875 3.125q-1.203125 1.234375 -3.046875 1.234375q-1.140625 0 -2.1875 -0.515625q-1.03125 -0.515625 -1.578125 -1.515625q-0.53125 -1.0 -0.53125 -2.421875zm2.25 0.109375q0 1.234375 0.578125 1.890625q0.59375 0.65625 1.453125 0.65625q0.859375 0 1.4375 -0.65625q0.59375 -0.65625 0.59375 -1.90625q0 -1.21875 -0.59375 -1.875q-0.578125 -0.65625 -1.4375 -0.65625q-0.859375 0 -1.453125 0.65625q-0.578125 0.65625 -0.578125 1.890625zm15.5859375 4.15625l-2.203125 0l0 -4.234375q0 -1.34375 -0.140625 -1.734375q-0.140625 -0.40625 -0.453125 -0.625q-0.3125 -0.21875 -0.765625 -0.21875q-0.5625 0 -1.015625 0.3125q-0.453125 0.3125 -0.625 0.828125q-0.171875 0.515625 -0.171875 1.90625l0 3.765625l-2.1875 0l0 -8.296875l2.03125 0l0 1.21875q1.09375 -1.40625 2.734375 -1.40625q0.734375 0 1.328125 0.265625q0.609375 0.25 0.90625 0.65625q0.3125 0.40625 0.4375 0.921875q0.125 0.515625 0.125 1.484375l0 5.15625zm1.4453125 -2.375l2.203125 -0.328125q0.140625 0.640625 0.5625 0.96875q0.4375 0.328125 1.21875 0.328125q0.84375 0 1.28125 -0.3125q0.28125 -0.21875 0.28125 -0.578125q0 -0.25 -0.15625 -0.421875q-0.15625 -0.15625 -0.734375 -0.28125q-2.65625 -0.59375 -3.359375 -1.078125q-0.984375 -0.671875 -0.984375 -1.859375q0 -1.078125 0.84375 -1.8125q0.859375 -0.734375 2.640625 -0.734375q1.703125 0 2.53125 0.5625q0.828125 0.546875 1.140625 1.625l-2.0625 0.390625q-0.140625 -0.484375 -0.515625 -0.734375q-0.359375 -0.265625 -1.046875 -0.265625q-0.875 0 -1.25 0.234375q-0.25 0.171875 -0.25 0.453125q0 0.234375 0.21875 0.390625q0.296875 0.21875 2.046875 0.625q1.765625 0.390625 2.453125 0.96875q0.6875 0.59375 0.6875 1.640625q0 1.140625 -0.953125 1.96875q-0.953125 0.8125 -2.8125 0.8125q-1.703125 0 -2.6875 -0.6875q-0.984375 -0.6875 -1.296875 -1.875z" fill-rule="nonzero"/><path fill="#ffffff" d="m405.64215 202.49672l88.44095 0l0 75.244095l-88.44095 0z" fill-rule="evenodd"/><path stroke="#000000" stroke-width="2.0" stroke-linejoin="round" stroke-linecap="butt" d="m405.64215 202.49672l88.44095 0l0 75.244095l-88.44095 0z" fill-rule="evenodd"/><path fill="#000000" d="m423.5283 244.11938l0 -3.140625l-3.125 0l0 -1.3125l3.125 0l0 -3.109375l1.328125 0l0 3.109375l3.109375 0l0 1.3125l-3.109375 0l0 3.140625l-1.328125 0zm6.546875 1.859375l0 -11.453125l1.5625 0l6.015625 8.984375l0 -8.984375l1.453125 0l0 11.453125l-1.5625 0l-6.015625 -9.0l0 9.0l-1.453125 0zm14.0859375 3.375q-1.171875 -1.46875 -1.984375 -3.4375q-0.796875 -1.984375 -0.796875 -4.09375q0 -1.859375 0.609375 -3.5625q0.703125 -1.96875 2.171875 -3.9375l1.0 0q-0.9375 1.625 -1.25 2.328125q-0.46875 1.078125 -0.75 2.25q-0.328125 1.453125 -0.328125 2.9375q0 3.75 2.328125 7.515625l-1.0 0zm2.25 -9.03125q0 -2.03125 0.40625 -3.265625q0.421875 -1.234375 1.25 -1.90625q0.828125 -0.671875 2.078125 -0.671875q0.921875 0 1.609375 0.375q0.703125 0.359375 1.15625 1.0625q0.453125 0.703125 0.703125 1.703125q0.265625 1.0 0.265625 2.703125q0 2.015625 -0.421875 3.265625q-0.40625 1.234375 -1.234375 1.921875q-0.828125 0.671875 -2.078125 0.671875q-1.65625 0 -2.609375 -1.203125q-1.125 -1.421875 -1.125 -4.65625zm1.4375 0q0 2.828125 0.65625 3.765625q0.671875 0.921875 1.640625 0.921875q0.96875 0 1.625 -0.9375q0.65625 -0.9375 0.65625 -3.75q0 -2.828125 -0.65625 -3.75q-0.65625 -0.9375 -1.640625 -0.9375q-0.96875 0 -1.546875 0.828125q-0.734375 1.046875 -0.734375 3.859375zm8.2109375 5.65625l0 -1.609375l1.609375 0l0 1.609375q0 0.890625 -0.3125 1.421875q-0.3125 0.546875 -1.0 0.84375l-0.390625 -0.59375q0.453125 -0.203125 0.65625 -0.578125q0.21875 -0.375 0.234375 -1.09375l-0.796875 0zm12.5546875 -8.296875l0 1.140625l-2.265625 0q1.046875 0.96875 1.046875 3.015625q0 2.21875 -1.140625 3.28125q-1.140625 1.046875 -2.765625 1.046875q-1.6875 0 -2.78125 -1.09375q-1.09375 -1.09375 -1.09375 -3.25q0 -2.203125 1.140625 -3.265625q1.140625 -1.0625 2.734375 -1.0625q0.59375 0 1.328125 0.1875l3.796875 0zm-5.140625 0.96875q-1.03125 0 -1.71875 0.796875q-0.6875 0.796875 -0.6875 2.390625q0 1.578125 0.671875 2.375q0.671875 0.796875 1.75 0.796875q1.140625 0 1.796875 -0.828125q0.671875 -0.84375 0.671875 -2.359375q0 -1.375 -0.609375 -2.265625q-0.609375 -0.90625 -1.875 -0.90625z" fill-rule="nonzero"/><path fill="#000000" d="m474.31735 239.07251l0 0.90625l-5.03125 0q-0.015625 -0.34375 0.109375 -0.65625q0.1875 -0.515625 0.609375 -1.015625q0.421875 -0.5 1.234375 -1.140625q1.234375 -1.03125 1.671875 -1.625q0.4375 -0.59375 0.4375 -1.125q0 -0.5625 -0.40625 -0.9375q-0.390625 -0.390625 -1.03125 -0.390625q-0.671875 0 -1.078125 0.40625q-0.40625 0.40625 -0.40625 1.125l-0.96875 -0.09375q0.09375 -1.078125 0.734375 -1.640625q0.65625 -0.5625 1.734375 -0.5625q1.109375 0 1.75 0.609375q0.640625 0.609375 0.640625 1.5q0 0.46875 -0.1875 0.90625q-0.1875 0.4375 -0.625 0.9375q-0.4375 0.484375 -1.453125 1.328125q-0.828125 0.71875 -1.078125 0.96875q-0.234375 0.25 -0.390625 0.5l3.734375 0z" fill-rule="nonzero"/><path fill="#000000" d="m476.86884 249.35376l-1.015625 0q2.34375 -3.765625 2.34375 -7.515625q0 -1.46875 -0.34375 -2.921875q-0.265625 -1.171875 -0.734375 -2.25q-0.3125 -0.703125 -1.265625 -2.34375l1.015625 0q1.46875 1.96875 2.171875 3.9375q0.59375 1.703125 0.59375 3.5625q0 2.109375 -0.8125 4.09375q-0.796875 1.96875 -1.953125 3.4375z" fill-rule="nonzero"/><path fill="#000000" fill-opacity="0.0" d="m400.75067 166.31917l100.28345 0l0 41.165344l-100.28345 0z" fill-rule="evenodd"/><path fill="#000000" d="m424.00082 188.33292l2.609375 0.828125q-0.59375 2.1875 -2.0 3.25q-1.390625 1.0625 -3.546875 1.0625q-2.65625 0 -4.375 -1.8125q-1.703125 -1.828125 -1.703125 -4.984375q0 -3.328125 1.71875 -5.171875q1.71875 -1.84375 4.515625 -1.84375q2.453125 0 3.984375 1.4375q0.921875 0.859375 1.375 2.46875l-2.671875 0.640625q-0.234375 -1.046875 -0.984375 -1.640625q-0.75 -0.609375 -1.828125 -0.609375q-1.484375 0 -2.421875 1.078125q-0.921875 1.0625 -0.921875 3.4375q0 2.53125 0.90625 3.609375q0.921875 1.078125 2.375 1.078125q1.078125 0 1.84375 -0.671875q0.78125 -0.6875 1.125 -2.15625zm7.4573364 -8.453125l0 4.921875q1.234375 -1.453125 2.953125 -1.453125q0.890625 0 1.59375 0.328125q0.71875 0.328125 1.078125 0.84375q0.359375 0.5 0.484375 1.125q0.140625 0.609375 0.140625 1.921875l0 5.671875l-2.5625 0l0 -5.109375q0 -1.515625 -0.15625 -1.921875q-0.140625 -0.421875 -0.515625 -0.65625q-0.359375 -0.25 -0.90625 -0.25q-0.640625 0 -1.140625 0.3125q-0.5 0.3125 -0.734375 0.9375q-0.234375 0.625 -0.234375 1.84375l0 4.84375l-2.5625 0l0 -13.359375l2.5625 0zm10.755341 6.640625l-2.328125 -0.421875q0.40625 -1.40625 1.359375 -2.078125q0.953125 -0.671875 2.84375 -0.671875q1.703125 0 2.546875 0.40625q0.84375 0.40625 1.171875 1.03125q0.34375 0.625 0.34375 2.28125l-0.015625 3.0q0 1.265625 0.109375 1.875q0.125 0.609375 0.46875 1.296875l-2.53125 0q-0.109375 -0.25 -0.25 -0.75q-0.0625 -0.234375 -0.09375 -0.3125q-0.65625 0.640625 -1.40625 0.96875q-0.734375 0.3125 -1.59375 0.3125q-1.484375 0 -2.34375 -0.8125q-0.859375 -0.8125 -0.859375 -2.046875q0 -0.828125 0.390625 -1.46875q0.390625 -0.640625 1.09375 -0.96875q0.703125 -0.34375 2.03125 -0.609375q1.796875 -0.328125 2.484375 -0.625l0 -0.25q0 -0.75 -0.359375 -1.0625q-0.359375 -0.3125 -1.375 -0.3125q-0.6875 0 -1.078125 0.28125q-0.375 0.265625 -0.609375 0.9375zm3.421875 2.078125q-0.484375 0.15625 -1.5625 0.390625q-1.0625 0.21875 -1.390625 0.4375q-0.5 0.359375 -0.5 0.90625q0 0.53125 0.40625 0.9375q0.40625 0.390625 1.015625 0.390625q0.703125 0 1.328125 -0.46875q0.46875 -0.34375 0.609375 -0.84375q0.09375 -0.328125 0.09375 -1.25l0 -0.5zm13.844482 4.640625l-2.5625 0l0 -4.9375q0 -1.5625 -0.171875 -2.015625q-0.15625 -0.46875 -0.53125 -0.71875q-0.359375 -0.265625 -0.875 -0.265625q-0.671875 0 -1.203125 0.375q-0.53125 0.359375 -0.734375 0.96875q-0.1875 0.59375 -0.1875 2.21875l0 4.375l-2.546875 0l0 -9.671875l2.375 0l0 1.421875q1.265625 -1.640625 3.1875 -1.640625q0.84375 0 1.546875 0.3125q0.703125 0.296875 1.0625 0.78125q0.359375 0.46875 0.5 1.078125q0.140625 0.59375 0.140625 1.703125l0 6.015625zm11.395966 0l-2.5625 0l0 -4.9375q0 -1.5625 -0.171875 -2.015625q-0.15625 -0.46875 -0.53125 -0.71875q-0.359375 -0.265625 -0.875 -0.265625q-0.671875 0 -1.203125 0.375q-0.53125 0.359375 -0.734375 0.96875q-0.1875 0.59375 -0.1875 2.21875l0 4.375l-2.546875 0l0 -9.671875l2.375 0l0 1.421875q1.265625 -1.640625 3.1875 -1.640625q0.84375 0 1.546875 0.3125q0.703125 0.296875 1.0625 0.78125q0.359375 0.46875 0.5 1.078125q0.140625 0.59375 0.140625 1.703125l0 6.015625zm8.192871 -3.078125l2.546875 0.421875q-0.484375 1.40625 -1.546875 2.140625q-1.0625 0.734375 -2.65625 0.734375q-2.515625 0 -3.734375 -1.65625q-0.953125 -1.3125 -0.953125 -3.328125q0 -2.40625 1.25 -3.765625q1.265625 -1.359375 3.1875 -1.359375q2.15625 0 3.40625 1.421875q1.25 1.421875 1.1875 4.375l-6.40625 0q0.03125 1.140625 0.609375 1.78125q0.59375 0.625 1.484375 0.625q0.59375 0 1.0 -0.328125q0.421875 -0.328125 0.625 -1.0625zm0.15625 -2.59375q-0.03125 -1.109375 -0.578125 -1.6875q-0.546875 -0.578125 -1.328125 -0.578125q-0.84375 0 -1.390625 0.609375q-0.546875 0.609375 -0.53125 1.65625l3.828125 0zm4.625702 5.671875l0 -13.359375l2.5625 0l0 13.359375l-2.5625 0z" fill-rule="nonzero"/><path fill="#a4c2f4" d="m583.9278 308.69684l28.267761 -28.2677l0 8.414154l91.88977 0l0 39.707092l-91.88977 0l0 8.414185z" fill-rule="evenodd"/><path fill="#000000" d="m629.8435 300.55685l0 -1.34375l4.859375 0l0 4.25q-1.125 0.890625 -2.3125 1.34375q-1.1875 0.453125 -2.4375 0.453125q-1.6875 0 -3.0625 -0.71875q-1.375 -0.734375 -2.078125 -2.09375q-0.703125 -1.375 -0.703125 -3.0625q0 -1.671875 0.6875 -3.125q0.703125 -1.453125 2.015625 -2.15625q1.3125 -0.703125 3.03125 -0.703125q1.234375 0 2.234375 0.40625q1.015625 0.40625 1.578125 1.125q0.578125 0.71875 0.875 1.875l-1.375 0.375q-0.25 -0.875 -0.640625 -1.375q-0.375 -0.5 -1.09375 -0.796875q-0.703125 -0.3125 -1.578125 -0.3125q-1.03125 0 -1.796875 0.328125q-0.75 0.3125 -1.21875 0.828125q-0.46875 0.515625 -0.71875 1.125q-0.4375 1.0625 -0.4375 2.3125q0 1.53125 0.515625 2.5625q0.53125 1.03125 1.53125 1.53125q1.015625 0.5 2.15625 0.5q0.984375 0 1.921875 -0.375q0.9375 -0.390625 1.421875 -0.8125l0 -2.140625l-3.375 0zm6.8984375 4.5l0 -8.296875l1.265625 0l0 1.25q0.484375 -0.875 0.890625 -1.15625q0.40625 -0.28125 0.90625 -0.28125q0.703125 0 1.4375 0.453125l-0.484375 1.296875q-0.515625 -0.296875 -1.03125 -0.296875q-0.453125 0 -0.828125 0.28125q-0.359375 0.265625 -0.515625 0.765625q-0.234375 0.75 -0.234375 1.640625l0 4.34375l-1.40625 0zm10.75 -1.03125q-0.78125 0.671875 -1.5 0.953125q-0.71875 0.265625 -1.546875 0.265625q-1.375 0 -2.109375 -0.671875q-0.734375 -0.671875 -0.734375 -1.703125q0 -0.609375 0.28125 -1.109375q0.28125 -0.515625 0.71875 -0.8125q0.453125 -0.3125 1.015625 -0.46875q0.421875 -0.109375 1.25 -0.203125q1.703125 -0.203125 2.515625 -0.484375q0 -0.296875 0 -0.375q0 -0.859375 -0.390625 -1.203125q-0.546875 -0.484375 -1.609375 -0.484375q-0.984375 0 -1.46875 0.359375q-0.46875 0.34375 -0.6875 1.21875l-1.375 -0.1875q0.1875 -0.875 0.609375 -1.421875q0.4375 -0.546875 1.25 -0.828125q0.8125 -0.296875 1.875 -0.296875q1.0625 0 1.71875 0.25q0.671875 0.25 0.984375 0.625q0.3125 0.375 0.4375 0.953125q0.078125 0.359375 0.078125 1.296875l0 1.875q0 1.96875 0.078125 2.484375q0.09375 0.515625 0.359375 1.0l-1.46875 0q-0.21875 -0.4375 -0.28125 -1.03125zm-0.109375 -3.140625q-0.765625 0.3125 -2.296875 0.53125q-0.875 0.125 -1.234375 0.28125q-0.359375 0.15625 -0.5625 0.46875q-0.1875 0.296875 -0.1875 0.65625q0 0.5625 0.421875 0.9375q0.4375 0.375 1.25 0.375q0.8125 0 1.4375 -0.34375q0.640625 -0.359375 0.9375 -0.984375q0.234375 -0.46875 0.234375 -1.40625l0 -0.515625zm8.9765625 4.171875l0 -1.046875q-0.78125 1.234375 -2.3125 1.234375q-1.0 0 -1.828125 -0.546875q-0.828125 -0.546875 -1.296875 -1.53125q-0.453125 -0.984375 -0.453125 -2.25q0 -1.25 0.40625 -2.25q0.421875 -1.015625 1.25 -1.546875q0.828125 -0.546875 1.859375 -0.546875q0.75 0 1.328125 0.3125q0.59375 0.3125 0.953125 0.828125l0 -4.109375l1.40625 0l0 11.453125l-1.3125 0zm-4.4375 -4.140625q0 1.59375 0.671875 2.390625q0.671875 0.78125 1.578125 0.78125q0.921875 0 1.5625 -0.75q0.65625 -0.765625 0.65625 -2.3125q0 -1.703125 -0.65625 -2.5q-0.65625 -0.796875 -1.625 -0.796875q-0.9375 0 -1.5625 0.765625q-0.625 0.765625 -0.625 2.421875zm7.9609375 -5.703125l0 -1.609375l1.40625 0l0 1.609375l-1.40625 0zm0 9.84375l0 -8.296875l1.40625 0l0 8.296875l-1.40625 0zm9.2265625 -2.671875l1.453125 0.171875q-0.34375 1.28125 -1.28125 1.984375q-0.921875 0.703125 -2.359375 0.703125q-1.828125 0 -2.890625 -1.125q-1.0625 -1.125 -1.0625 -3.140625q0 -2.09375 1.078125 -3.25q1.078125 -1.15625 2.796875 -1.15625q1.65625 0 2.703125 1.140625q1.0625 1.125 1.0625 3.171875q0 0.125 0 0.375l-6.1875 0q0.078125 1.375 0.765625 2.109375q0.703125 0.71875 1.734375 0.71875q0.78125 0 1.328125 -0.40625q0.546875 -0.40625 0.859375 -1.296875zm-4.609375 -2.28125l4.625 0q-0.09375 -1.046875 -0.53125 -1.5625q-0.671875 -0.8125 -1.734375 -0.8125q-0.96875 0 -1.640625 0.65625q-0.65625 0.640625 -0.71875 1.71875zm7.8359375 4.953125l0 -8.296875l1.265625 0l0 1.171875q0.90625 -1.359375 2.640625 -1.359375q0.75 0 1.375 0.265625q0.625 0.265625 0.9375 0.703125q0.3125 0.4375 0.4375 1.046875q0.078125 0.390625 0.078125 1.359375l0 5.109375l-1.40625 0l0 -5.046875q0 -0.859375 -0.171875 -1.28125q-0.15625 -0.4375 -0.578125 -0.6875q-0.40625 -0.25 -0.96875 -0.25q-0.90625 0 -1.5625 0.578125q-0.640625 0.5625 -0.640625 2.15625l0 4.53125l-1.40625 0zm11.9609375 -1.265625l0.203125 1.25q-0.59375 0.125 -1.0625 0.125q-0.765625 0 -1.1875 -0.234375q-0.421875 -0.25 -0.59375 -0.640625q-0.171875 -0.40625 -0.171875 -1.671875l0 -4.765625l-1.03125 0l0 -1.09375l1.03125 0l0 -2.0625l1.40625 -0.84375l0 2.90625l1.40625 0l0 1.09375l-1.40625 0l0 4.84375q0 0.609375 0.0625 0.78125q0.078125 0.171875 0.25 0.28125q0.171875 0.09375 0.484375 0.09375q0.234375 0 0.609375 -0.0625z" fill-rule="nonzero"/><path fill="#000000" d="m636.8865 312.60373l1.515625 0l0 6.609375q0 1.734375 -0.390625 2.75q-0.390625 1.015625 -1.40625 1.65625q-1.015625 0.640625 -2.671875 0.640625q-1.609375 0 -2.640625 -0.5625q-1.015625 -0.5625 -1.453125 -1.609375q-0.4375 -1.046875 -0.4375 -2.875l0 -6.609375l1.515625 0l0 6.609375q0 1.484375 0.265625 2.203125q0.28125 0.703125 0.953125 1.09375q0.6875 0.375 1.65625 0.375q1.671875 0 2.375 -0.75q0.71875 -0.765625 0.71875 -2.921875l0 -6.609375zm3.8671875 14.640625l0 -11.484375l1.28125 0l0 1.078125q0.453125 -0.640625 1.015625 -0.953125q0.578125 -0.3125 1.390625 -0.3125q1.0625 0 1.875 0.546875q0.8125 0.546875 1.21875 1.546875q0.421875 0.984375 0.421875 2.171875q0 1.28125 -0.46875 2.296875q-0.453125 1.015625 -1.328125 1.5625q-0.859375 0.546875 -1.828125 0.546875q-0.703125 0 -1.265625 -0.296875q-0.546875 -0.296875 -0.90625 -0.75l0 4.046875l-1.40625 0zm1.265625 -7.296875q0 1.609375 0.640625 2.375q0.65625 0.765625 1.578125 0.765625q0.9375 0 1.609375 -0.796875q0.671875 -0.796875 0.671875 -2.453125q0 -1.59375 -0.65625 -2.375q-0.65625 -0.796875 -1.5625 -0.796875q-0.890625 0 -1.59375 0.84375q-0.6875 0.84375 -0.6875 2.4375zm13.0078125 4.109375l0 -1.046875q-0.78125 1.234375 -2.3125 1.234375q-1.0 0 -1.828125 -0.546875q-0.828125 -0.546875 -1.296875 -1.53125q-0.453125 -0.984375 -0.453125 -2.25q0 -1.25 0.40625 -2.25q0.421875 -1.015625 1.25 -1.546875q0.828125 -0.546875 1.859375 -0.546875q0.75 0 1.328125 0.3125q0.59375 0.3125 0.953125 0.828125l0 -4.109375l1.40625 0l0 11.453125l-1.3125 0zm-4.4375 -4.140625q0 1.59375 0.671875 2.390625q0.671875 0.78125 1.578125 0.78125q0.921875 0 1.5625 -0.75q0.65625 -0.765625 0.65625 -2.3125q0 -1.703125 -0.65625 -2.5q-0.65625 -0.796875 -1.625 -0.796875q-0.9375 0 -1.5625 0.765625q-0.625 0.765625 -0.625 2.421875zm13.3671875 3.109375q-0.78125 0.671875 -1.5 0.953125q-0.71875 0.265625 -1.546875 0.265625q-1.375 0 -2.109375 -0.671875q-0.734375 -0.671875 -0.734375 -1.703125q0 -0.609375 0.28125 -1.109375q0.28125 -0.515625 0.71875 -0.8125q0.453125 -0.3125 1.015625 -0.46875q0.421875 -0.109375 1.25 -0.203125q1.703125 -0.203125 2.515625 -0.484375q0 -0.296875 0 -0.375q0 -0.859375 -0.390625 -1.203125q-0.546875 -0.484375 -1.609375 -0.484375q-0.984375 0 -1.46875 0.359375q-0.46875 0.34375 -0.6875 1.21875l-1.375 -0.1875q0.1875 -0.875 0.609375 -1.421875q0.4375 -0.546875 1.25 -0.828125q0.8125 -0.296875 1.875 -0.296875q1.0625 0 1.71875 0.25q0.671875 0.25 0.984375 0.625q0.3125 0.375 0.4375 0.953125q0.078125 0.359375 0.078125 1.296875l0 1.875q0 1.96875 0.078125 2.484375q0.09375 0.515625 0.359375 1.0l-1.46875 0q-0.21875 -0.4375 -0.28125 -1.03125zm-0.109375 -3.140625q-0.765625 0.3125 -2.296875 0.53125q-0.875 0.125 -1.234375 0.28125q-0.359375 0.15625 -0.5625 0.46875q-0.1875 0.296875 -0.1875 0.65625q0 0.5625 0.421875 0.9375q0.4375 0.375 1.25 0.375q0.8125 0 1.4375 -0.34375q0.640625 -0.359375 0.9375 -0.984375q0.234375 -0.46875 0.234375 -1.40625l0 -0.515625zm6.6640625 2.90625l0.203125 1.25q-0.59375 0.125 -1.0625 0.125q-0.765625 0 -1.1875 -0.234375q-0.421875 -0.25 -0.59375 -0.640625q-0.171875 -0.40625 -0.171875 -1.671875l0 -4.765625l-1.03125 0l0 -1.09375l1.03125 0l0 -2.0625l1.40625 -0.84375l0 2.90625l1.40625 0l0 1.09375l-1.40625 0l0 4.84375q0 0.609375 0.0625 0.78125q0.078125 0.171875 0.25 0.28125q0.171875 0.09375 0.484375 0.09375q0.234375 0 0.609375 -0.0625zm7.0546875 -1.40625l1.453125 0.171875q-0.34375 1.28125 -1.28125 1.984375q-0.921875 0.703125 -2.359375 0.703125q-1.828125 0 -2.890625 -1.125q-1.0625 -1.125 -1.0625 -3.140625q0 -2.09375 1.078125 -3.25q1.078125 -1.15625 2.796875 -1.15625q1.65625 0 2.703125 1.140625q1.0625 1.125 1.0625 3.171875q0 0.125 0 0.375l-6.1875 0q0.078125 1.375 0.765625 2.109375q0.703125 0.71875 1.734375 0.71875q0.78125 0 1.328125 -0.40625q0.546875 -0.40625 0.859375 -1.296875zm-4.609375 -2.28125l4.625 0q-0.09375 -1.046875 -0.53125 -1.5625q-0.671875 -0.8125 -1.734375 -0.8125q-0.96875 0 -1.640625 0.65625q-0.65625 0.640625 -0.71875 1.71875z" fill-rule="nonzero"/><path fill="#ffd966" d="m689.3793 387.29932l0 0c0 -2.4962158 2.0235596 -4.5197754 4.5197754 -4.5197754l79.40137 0c1.1987305 0 2.3483887 0.47616577 3.195984 1.3237915c0.8475952 0.84762573 1.3237915 1.9972534 1.3237915 3.195984l0 18.078552c0 2.4961853 -2.0235596 4.5197754 -4.5197754 4.5197754l-79.40137 0c-2.4962158 0 -4.5197754 -2.02359 -4.5197754 -4.5197754z" fill-rule="evenodd"/><path fill="#000000" d="m701.7778 403.25858l0 -13.359375l5.015625 0q1.53125 0 2.453125 0.40625q0.921875 0.40625 1.4375 1.25q0.53125 0.84375 0.53125 1.765625q0 0.859375 -0.46875 1.625q-0.453125 0.75 -1.390625 1.203125q1.203125 0.359375 1.859375 1.21875q0.65625 0.859375 0.65625 2.015625q0 0.9375 -0.40625 1.75q-0.390625 0.796875 -0.984375 1.234375q-0.578125 0.4375 -1.453125 0.671875q-0.875 0.21875 -2.15625 0.21875l-5.09375 0zm1.78125 -7.75l2.875 0q1.1875 0 1.6875 -0.140625q0.671875 -0.203125 1.015625 -0.671875q0.34375 -0.46875 0.34375 -1.171875q0 -0.65625 -0.328125 -1.15625q-0.3125 -0.515625 -0.90625 -0.703125q-0.59375 -0.1875 -2.03125 -0.1875l-2.65625 0l0 4.03125zm0 6.171875l3.3125 0q0.859375 0 1.203125 -0.0625q0.609375 -0.109375 1.015625 -0.359375q0.421875 -0.265625 0.6875 -0.75q0.265625 -0.484375 0.265625 -1.125q0 -0.75 -0.390625 -1.296875q-0.375 -0.546875 -1.0625 -0.765625q-0.671875 -0.234375 -1.953125 -0.234375l-3.078125 0l0 4.59375zm10.5372925 -9.890625l0 -1.890625l1.640625 0l0 1.890625l-1.640625 0zm0 11.46875l0 -9.671875l1.640625 0l0 9.671875l-1.640625 0zm7.7229614 -1.46875l0.234375 1.453125q-0.6875 0.140625 -1.234375 0.140625q-0.890625 0 -1.390625 -0.28125q-0.484375 -0.28125 -0.6875 -0.734375q-0.203125 -0.46875 -0.203125 -1.9375l0 -5.578125l-1.203125 0l0 -1.265625l1.203125 0l0 -2.390625l1.625 -0.984375l0 3.375l1.65625 0l0 1.265625l-1.65625 0l0 5.671875q0 0.6875 0.078125 0.890625q0.09375 0.203125 0.28125 0.328125q0.203125 0.109375 0.578125 0.109375q0.265625 0 0.71875 -0.0625zm6.913513 1.46875l0 -13.359375l1.78125 0l0 11.78125l6.5625 0l0 1.578125l-8.34375 0zm9.641296 -4.84375q0 -2.6875 1.484375 -3.96875q1.25 -1.078125 3.046875 -1.078125q2.0 0 3.265625 1.3125q1.265625 1.296875 1.265625 3.609375q0 1.859375 -0.5625 2.9375q-0.5625 1.0625 -1.640625 1.65625q-1.0625 0.59375 -2.328125 0.59375q-2.03125 0 -3.28125 -1.296875q-1.25 -1.3125 -1.25 -3.765625zm1.6875 0q0 1.859375 0.796875 2.796875q0.8125 0.921875 2.046875 0.921875q1.21875 0 2.03125 -0.921875q0.8125 -0.9375 0.8125 -2.84375q0 -1.796875 -0.8125 -2.71875q-0.8125 -0.921875 -2.03125 -0.921875q-1.234375 0 -2.046875 0.921875q-0.796875 0.90625 -0.796875 2.765625zm8.641357 1.953125l1.625 -0.25q0.125 0.96875 0.75 1.5q0.625 0.515625 1.75 0.515625q1.125 0 1.671875 -0.453125q0.546875 -0.46875 0.546875 -1.09375q0 -0.546875 -0.484375 -0.875q-0.328125 -0.21875 -1.671875 -0.546875q-1.8125 -0.46875 -2.515625 -0.796875q-0.6875 -0.328125 -1.046875 -0.90625q-0.359375 -0.59375 -0.359375 -1.3125q0 -0.640625 0.296875 -1.1875q0.296875 -0.5625 0.8125 -0.921875q0.375 -0.28125 1.03125 -0.46875q0.671875 -0.203125 1.421875 -0.203125q1.140625 0 2.0 0.328125q0.859375 0.328125 1.265625 0.890625q0.421875 0.5625 0.578125 1.5l-1.609375 0.21875q-0.109375 -0.75 -0.640625 -1.171875q-0.515625 -0.421875 -1.46875 -0.421875q-1.140625 0 -1.625 0.375q-0.46875 0.375 -0.46875 0.875q0 0.3125 0.1875 0.578125q0.203125 0.265625 0.640625 0.4375q0.234375 0.09375 1.4375 0.421875q1.75 0.453125 2.4375 0.75q0.6875 0.296875 1.078125 0.859375q0.390625 0.5625 0.390625 1.40625q0 0.828125 -0.484375 1.546875q-0.46875 0.71875 -1.375 1.125q-0.90625 0.390625 -2.046875 0.390625q-1.875 0 -2.875 -0.78125q-0.984375 -0.78125 -1.25 -2.328125zm9.328125 0l1.625 -0.25q0.125 0.96875 0.75 1.5q0.625 0.515625 1.75 0.515625q1.125 0 1.671875 -0.453125q0.546875 -0.46875 0.546875 -1.09375q0 -0.546875 -0.484375 -0.875q-0.328125 -0.21875 -1.671875 -0.546875q-1.8125 -0.46875 -2.515625 -0.796875q-0.6875 -0.328125 -1.046875 -0.90625q-0.359375 -0.59375 -0.359375 -1.3125q0 -0.640625 0.296875 -1.1875q0.296875 -0.5625 0.8125 -0.921875q0.375 -0.28125 1.03125 -0.46875q0.671875 -0.203125 1.421875 -0.203125q1.140625 0 2.0 0.328125q0.859375 0.328125 1.265625 0.890625q0.421875 0.5625 0.578125 1.5l-1.609375 0.21875q-0.109375 -0.75 -0.640625 -1.171875q-0.515625 -0.421875 -1.46875 -0.421875q-1.140625 0 -1.625 0.375q-0.46875 0.375 -0.46875 0.875q0 0.3125 0.1875 0.578125q0.203125 0.265625 0.640625 0.4375q0.234375 0.09375 1.4375 0.421875q1.75 0.453125 2.4375 0.75q0.6875 0.296875 1.078125 0.859375q0.390625 0.5625 0.390625 1.40625q0 0.828125 -0.484375 1.546875q-0.46875 0.71875 -1.375 1.125q-0.90625 0.390625 -2.046875 0.390625q-1.875 0 -2.875 -0.78125q-0.984375 -0.78125 -1.25 -2.328125z" fill-rule="nonzero"/><path fill="#ffd966" d="m174.7546 311.48996l72.59842 -25.974213l72.598434 25.974213l-31.120758 0l0 25.458862l-82.95532 0l0 -25.458862z" fill-rule="evenodd"/><path fill="#000000" d="m227.24754 313.5122l0 -11.453125l4.328125 0q1.140625 0 1.734375 0.109375q0.84375 0.140625 1.40625 0.53125q0.578125 0.390625 0.921875 1.109375q0.359375 0.703125 0.359375 1.5625q0 1.453125 -0.9375 2.46875q-0.921875 1.015625 -3.359375 1.015625l-2.9375 0l0 4.65625l-1.515625 0zm1.515625 -6.015625l2.96875 0q1.46875 0 2.078125 -0.546875q0.625 -0.546875 0.625 -1.53125q0 -0.71875 -0.375 -1.234375q-0.359375 -0.515625 -0.953125 -0.671875q-0.375 -0.109375 -1.40625 -0.109375l-2.9375 0l0 4.09375zm8.453125 1.859375q0 -2.296875 1.28125 -3.40625q1.078125 -0.921875 2.609375 -0.921875q1.71875 0 2.796875 1.125q1.09375 1.109375 1.09375 3.09375q0 1.59375 -0.484375 2.515625q-0.484375 0.921875 -1.40625 1.4375q-0.90625 0.5 -2.0 0.5q-1.734375 0 -2.8125 -1.109375q-1.078125 -1.125 -1.078125 -3.234375zm1.453125 0q0 1.59375 0.6875 2.390625q0.703125 0.796875 1.75 0.796875q1.046875 0 1.734375 -0.796875q0.703125 -0.796875 0.703125 -2.4375q0 -1.53125 -0.703125 -2.328125q-0.6875 -0.796875 -1.734375 -0.796875q-1.046875 0 -1.75 0.796875q-0.6875 0.78125 -0.6875 2.375zm7.9453125 4.15625l0 -11.453125l1.40625 0l0 11.453125l-1.40625 0zm3.5859375 -9.84375l0 -1.609375l1.40625 0l0 1.609375l-1.40625 0zm0 9.84375l0 -8.296875l1.40625 0l0 8.296875l-1.40625 0zm8.960953 -3.046875l1.390625 0.1875q-0.234375 1.421875 -1.171875 2.234375q-0.921875 0.8125 -2.28125 0.8125q-1.7031403 0 -2.7500153 -1.109375q-1.03125 -1.125 -1.03125 -3.203125q0 -1.34375 0.4375 -2.34375q0.453125 -1.015625 1.359375 -1.515625q0.92189026 -0.5 1.9843903 -0.5q1.359375 0 2.21875 0.6875q0.859375 0.671875 1.09375 1.9375l-1.359375 0.203125q-0.203125 -0.828125 -0.703125 -1.25q-0.484375 -0.421875 -1.1875 -0.421875q-1.0625 0 -1.7343903 0.765625q-0.65625 0.75 -0.65625 2.40625q0 1.671875 0.640625 2.4375q0.64064026 0.75 1.6718903 0.75q0.828125 0 1.375 -0.5q0.5625 -0.515625 0.703125 -1.578125zm2.53125 6.25l-0.15625 -1.328125q0.453125 0.125 0.796875 0.125q0.46875 0 0.75 -0.15625q0.28125 -0.15625 0.46875 -0.4375q0.125 -0.203125 0.421875 -1.046875q0.046875 -0.109375 0.125 -0.34375l-3.140625 -8.3125l1.515625 0l1.71875 4.796875q0.34375 0.921875 0.609375 1.921875q0.234375 -0.96875 0.578125 -1.890625l1.765625 -4.828125l1.40625 0l-3.15625 8.4375q-0.5 1.375 -0.78125 1.890625q-0.375 0.6875 -0.859375 1.015625q-0.484375 0.328125 -1.15625 0.328125q-0.40625 0 -0.90625 -0.171875z" fill-rule="nonzero"/><path fill="#000000" d="m230.30614 321.05908l1.515625 0l0 6.609375q0 1.734375 -0.390625 2.75q-0.390625 1.015625 -1.40625 1.65625q-1.015625 0.640625 -2.671875 0.640625q-1.609375 0 -2.640625 -0.5625q-1.015625 -0.5625 -1.453125 -1.609375q-0.4375 -1.046875 -0.4375 -2.875l0 -6.609375l1.515625 0l0 6.609375q0 1.484375 0.265625 2.203125q0.28125 0.703125 0.953125 1.09375q0.6875 0.375 1.65625 0.375q1.671875 0 2.375 -0.75q0.71875 -0.765625 0.71875 -2.921875l0 -6.609375zm3.8671875 14.640625l0 -11.484375l1.28125 0l0 1.078125q0.453125 -0.640625 1.015625 -0.953125q0.578125 -0.3125 1.390625 -0.3125q1.0625 0 1.875 0.546875q0.8125 0.546875 1.21875 1.546875q0.421875 0.984375 0.421875 2.171875q0 1.28125 -0.46875 2.296875q-0.453125 1.015625 -1.328125 1.5625q-0.859375 0.546875 -1.828125 0.546875q-0.703125 0 -1.265625 -0.296875q-0.546875 -0.296875 -0.90625 -0.75l0 4.046875l-1.40625 0zm1.265625 -7.296875q0 1.609375 0.640625 2.375q0.65625 0.765625 1.578125 0.765625q0.9375 0 1.609375 -0.796875q0.671875 -0.796875 0.671875 -2.453125q0 -1.59375 -0.65625 -2.375q-0.65625 -0.796875 -1.5625 -0.796875q-0.890625 0 -1.59375 0.84375q-0.6875 0.84375 -0.6875 2.4375zm13.0078125 4.109375l0 -1.046875q-0.78125 1.234375 -2.3125 1.234375q-1.0 0 -1.828125 -0.546875q-0.828125 -0.546875 -1.296875 -1.53125q-0.453125 -0.984375 -0.453125 -2.25q0 -1.25 0.40625 -2.25q0.421875 -1.015625 1.25 -1.546875q0.828125 -0.546875 1.859375 -0.546875q0.75 0 1.328125 0.3125q0.59375 0.3125 0.953125 0.828125l0 -4.109375l1.40625 0l0 11.453125l-1.3125 0zm-4.4375 -4.140625q0 1.59375 0.671875 2.390625q0.671875 0.78125 1.578125 0.78125q0.921875 0 1.5625 -0.75q0.65625 -0.765625 0.65625 -2.3125q0 -1.703125 -0.65625 -2.5q-0.65625 -0.796875 -1.625 -0.796875q-0.9375 0 -1.5625 0.765625q-0.625 0.765625 -0.625 2.421875zm13.367203 3.109375q-0.78125 0.671875 -1.5000153 0.953125q-0.71875 0.265625 -1.546875 0.265625q-1.375 0 -2.109375 -0.671875q-0.734375 -0.671875 -0.734375 -1.703125q0 -0.609375 0.28125 -1.109375q0.28125 -0.515625 0.71875 -0.8125q0.453125 -0.3125 1.015625 -0.46875q0.421875 -0.109375 1.25 -0.203125q1.7031403 -0.203125 2.5156403 -0.484375q0 -0.296875 0 -0.375q0 -0.859375 -0.390625 -1.203125q-0.546875 -0.484375 -1.6093903 -0.484375q-0.984375 0 -1.46875 0.359375q-0.46875 0.34375 -0.6875 1.21875l-1.375 -0.1875q0.1875 -0.875 0.609375 -1.421875q0.4375 -0.546875 1.25 -0.828125q0.8125 -0.296875 1.875 -0.296875q1.0625153 0 1.7187653 0.25q0.671875 0.25 0.984375 0.625q0.3125 0.375 0.4375 0.953125q0.078125 0.359375 0.078125 1.296875l0 1.875q0 1.96875 0.078125 2.484375q0.09375 0.515625 0.359375 1.0l-1.46875 0q-0.21875 -0.4375 -0.28125 -1.03125zm-0.109375 -3.140625q-0.765625 0.3125 -2.2968903 0.53125q-0.875 0.125 -1.234375 0.28125q-0.359375 0.15625 -0.5625 0.46875q-0.1875 0.296875 -0.1875 0.65625q0 0.5625 0.421875 0.9375q0.4375 0.375 1.25 0.375q0.8125 0 1.4375153 -0.34375q0.640625 -0.359375 0.9375 -0.984375q0.234375 -0.46875 0.234375 -1.40625l0 -0.515625zm6.6640625 2.90625l0.203125 1.25q-0.59375 0.125 -1.0625 0.125q-0.765625 0 -1.1875 -0.234375q-0.421875 -0.25 -0.59375 -0.640625q-0.171875 -0.40625 -0.171875 -1.671875l0 -4.765625l-1.03125 0l0 -1.09375l1.03125 0l0 -2.0625l1.40625 -0.84375l0 2.90625l1.40625 0l0 1.09375l-1.40625 0l0 4.84375q0 0.609375 0.0625 0.78125q0.078125 0.171875 0.25 0.28125q0.171875 0.09375 0.484375 0.09375q0.234375 0 0.609375 -0.0625zm7.0546875 -1.40625l1.453125 0.171875q-0.34375 1.28125 -1.28125 1.984375q-0.921875 0.703125 -2.359375 0.703125q-1.828125 0 -2.890625 -1.125q-1.0625 -1.125 -1.0625 -3.140625q0 -2.09375 1.078125 -3.25q1.078125 -1.15625 2.796875 -1.15625q1.65625 0 2.703125 1.140625q1.0625 1.125 1.0625 3.171875q0 0.125 0 0.375l-6.1875 0q0.078125 1.375 0.765625 2.109375q0.703125 0.71875 1.734375 0.71875q0.78125 0 1.328125 -0.40625q0.546875 -0.40625 0.859375 -1.296875zm-4.609375 -2.28125l4.625 0q-0.09375 -1.046875 -0.53125 -1.5625q-0.671875 -0.8125 -1.734375 -0.8125q-0.96875 0 -1.640625 0.65625q-0.65625 0.640625 -0.71875 1.71875z" fill-rule="nonzero"/><path fill="#ffffff" d="m782.1811 177.37862l40.22046 0l0 125.4803l-40.22046 0z" fill-rule="evenodd"/><path stroke="#000000" stroke-width="2.0" stroke-linejoin="round" stroke-linecap="butt" d="m782.1811 177.37862l40.22046 0l0 125.4803l-40.22046 0z" fill-rule="evenodd"/><path fill="#000000" d="m794.74963 195.02689q0 -1.859375 0.375 -2.984375q0.390625 -1.140625 1.140625 -1.75q0.765625 -0.625 1.90625 -0.625q0.84375 0 1.46875 0.34375q0.640625 0.328125 1.0625 0.96875q0.421875 0.640625 0.65625 1.5625q0.234375 0.921875 0.234375 2.484375q0 1.84375 -0.390625 2.984375q-0.375 1.125 -1.125 1.75q-0.75 0.609375 -1.90625 0.609375q-1.515625 0 -2.390625 -1.078125q-1.03125 -1.3125 -1.03125 -4.265625zm1.328125 0q0 2.578125 0.59375 3.4375q0.609375 0.859375 1.5 0.859375q0.890625 0 1.484375 -0.859375q0.609375 -0.859375 0.609375 -3.4375q0 -2.59375 -0.609375 -3.4375q-0.59375 -0.859375 -1.5 -0.859375q-0.890625 0 -1.421875 0.75q-0.65625 0.96875 -0.65625 3.546875zm6.822937 0q0 -1.859375 0.375 -2.984375q0.390625 -1.140625 1.140625 -1.75q0.765625 -0.625 1.90625 -0.625q0.84375 0 1.46875 0.34375q0.640625 0.328125 1.0625 0.96875q0.421875 0.640625 0.65625 1.5625q0.234375 0.921875 0.234375 2.484375q0 1.84375 -0.390625 2.984375q-0.375 1.125 -1.125 1.75q-0.75 0.609375 -1.90625 0.609375q-1.515625 0 -2.390625 -1.078125q-1.03125 -1.3125 -1.03125 -4.265625zm1.328125 0q0 2.578125 0.59375 3.4375q0.609375 0.859375 1.5 0.859375q0.890625 0 1.484375 -0.859375q0.609375 -0.859375 0.609375 -3.4375q0 -2.59375 -0.609375 -3.4375q-0.59375 -0.859375 -1.5 -0.859375q-0.890625 0 -1.421875 0.75q-0.65625 0.96875 -0.65625 3.546875z" fill-rule="nonzero"/><path fill="#000000" d="m800.13763 218.19876l-1.28125 0l0 -8.203125q-0.46875 0.4375 -1.21875 0.890625q-0.75 0.4375 -1.359375 0.65625l0 -1.25q1.078125 -0.5 1.890625 -1.21875q0.8125 -0.734375 1.140625 -1.40625l0.828125 0l0 10.53125zm7.062561 0l-1.28125 0l0 -8.203125q-0.46875 0.4375 -1.21875 0.890625q-0.75 0.4375 -1.359375 0.65625l0 -1.25q1.078125 -0.5 1.890625 -1.21875q0.8125 -0.734375 1.140625 -1.40625l0.828125 0l0 10.53125z" fill-rule="nonzero"/><path fill="#ff0000" d="m799.9059 236.19878l-2.015625 0l0 -7.578125q-1.09375 1.03125 -2.59375 1.53125l0 -1.828125q0.796875 -0.265625 1.71875 -0.984375q0.921875 -0.71875 1.265625 -1.671875l1.625 0l0 10.53125z" fill-rule="nonzero"/><path fill="#000000" d="m807.74445 236.19878l-1.28125 0l0 -8.203125q-0.46875 0.4375 -1.21875 0.890625q-0.75 0.4375 -1.359375 0.65625l0 -1.25q1.078125 -0.5 1.890625 -1.21875q0.8125 -0.734375 1.140625 -1.40625l0.828125 0l0 10.53125z" fill-rule="nonzero"/><path fill="#000000" d="m794.74963 249.0269q0 -1.859375 0.375 -2.984375q0.390625 -1.140625 1.140625 -1.75q0.765625 -0.625 1.90625 -0.625q0.84375 0 1.46875 0.34375q0.640625 0.328125 1.0625 0.96875q0.421875 0.640625 0.65625 1.5625q0.234375 0.921875 0.234375 2.484375q0 1.84375 -0.390625 2.984375q-0.375 1.125 -1.125 1.75q-0.75 0.609375 -1.90625 0.609375q-1.515625 0 -2.390625 -1.078125q-1.03125 -1.3125 -1.03125 -4.265625zm1.328125 0q0 2.578125 0.59375 3.4375q0.609375 0.859375 1.5 0.859375q0.890625 0 1.484375 -0.859375q0.609375 -0.859375 0.609375 -3.4375q0 -2.59375 -0.609375 -3.4375q-0.59375 -0.859375 -1.5 -0.859375q-0.890625 0 -1.421875 0.75q-0.65625 0.96875 -0.65625 3.546875z" fill-rule="nonzero"/><path fill="#ff0000" d="m806.30695 243.66753q1.53125 0 2.390625 1.078125q1.015625 1.296875 1.015625 4.28125q0 2.96875 -1.03125 4.28125q-0.84375 1.0625 -2.375 1.0625q-1.53125 0 -2.46875 -1.171875q-0.9375 -1.171875 -0.9375 -4.203125q0 -2.953125 1.03125 -4.25q0.859375 -1.078125 2.375 -1.078125zm0 1.671875q-0.359375 0 -0.65625 0.234375q-0.28125 0.21875 -0.4375 0.828125q-0.203125 0.78125 -0.203125 2.625q0 1.84375 0.1875 2.53125q0.1875 0.6875 0.46875 0.921875q0.28125 0.234375 0.640625 0.234375q0.375 0 0.65625 -0.234375q0.28125 -0.234375 0.4375 -0.84375q0.21875 -0.765625 0.21875 -2.609375q0 -1.84375 -0.1875 -2.53125q-0.1875 -0.703125 -0.46875 -0.921875q-0.28125 -0.234375 -0.65625 -0.234375z" fill-rule="nonzero"/><path fill="#000000" d="m799.5934 272.19876l-1.28125 0l0 -8.203125q-0.46875 0.4375 -1.21875 0.890625q-0.75 0.4375 -1.359375 0.65625l0 -1.25q1.078125 -0.5 1.890625 -1.21875q0.8125 -0.734375 1.140625 -1.40625l0.828125 0l0 10.53125zm3.307312 -5.171875q0 -1.859375 0.375 -2.984375q0.390625 -1.140625 1.140625 -1.75q0.765625 -0.625 1.90625 -0.625q0.84375 0 1.46875 0.34375q0.640625 0.328125 1.0625 0.96875q0.421875 0.640625 0.65625 1.5625q0.234375 0.921875 0.234375 2.484375q0 1.84375 -0.390625 2.984375q-0.375 1.125 -1.125 1.75q-0.75 0.609375 -1.90625 0.609375q-1.515625 0 -2.390625 -1.078125q-1.03125 -1.3125 -1.03125 -4.265625zm1.328125 0q0 2.578125 0.59375 3.4375q0.609375 0.859375 1.5 0.859375q0.890625 0 1.484375 -0.859375q0.609375 -0.859375 0.609375 -3.4375q0 -2.59375 -0.609375 -3.4375q-0.59375 -0.859375 -1.5 -0.859375q-0.890625 0 -1.421875 0.75q-0.65625 0.96875 -0.65625 3.546875z" fill-rule="nonzero"/><path fill="#000000" d="m797.5115 290.19876l0 -1.46875l1.46875 0l0 1.46875l-1.46875 0zm4.0720215 0l0 -1.46875l1.46875 0l0 1.46875l-1.46875 0zm4.0719604 0l0 -1.46875l1.46875 0l0 1.46875l-1.46875 0z" fill-rule="nonzero"/><path fill="#000000" fill-opacity="0.0" d="m81.56693 142.78937l42.708656 0l0 41.16536l-42.708656 0z" fill-rule="evenodd"/><path fill="#000000" d="m98.4889 160.03749l2.390625 0l0 1.421875q0.46875 -0.734375 1.25 -1.1875q0.796875 -0.453125 1.765625 -0.453125q1.6875 0 2.859375 1.328125q1.171875 1.3125 1.171875 3.671875q0 2.421875 -1.1875 3.765625q-1.1875 1.34375 -2.859375 1.34375q-0.8125 0 -1.46875 -0.3125q-0.640625 -0.328125 -1.359375 -1.09375l0 4.875l-2.5625 0l0 -13.359375zm2.53125 4.671875q0 1.625 0.640625 2.40625q0.65625 0.78125 1.578125 0.78125q0.90625 0 1.484375 -0.71875q0.59375 -0.71875 0.59375 -2.34375q0 -1.515625 -0.609375 -2.25q-0.609375 -0.75 -1.515625 -0.75q-0.9375 0 -1.5625 0.734375q-0.609375 0.71875 -0.609375 2.140625z" fill-rule="nonzero"/><path fill="#ffffff" d="m83.52756 177.37862l40.220474 0l0 125.4803l-40.220474 0z" fill-rule="evenodd"/><path stroke="#000000" stroke-width="2.0" stroke-linejoin="round" stroke-linecap="butt" d="m83.52756 177.37862l40.220474 0l0 125.4803l-40.220474 0z" fill-rule="evenodd"/><path fill="#000000" d="m96.09606 195.02689q0 -1.859375 0.375 -2.984375q0.390625 -1.140625 1.140625 -1.75q0.765625 -0.625 1.90625 -0.625q0.84375 0 1.46875 0.34375q0.640625 0.328125 1.0625 0.96875q0.421875 0.640625 0.65625 1.5625q0.234375 0.921875 0.234375 2.484375q0 1.84375 -0.390625 2.984375q-0.375 1.125 -1.125 1.75q-0.75 0.609375 -1.90625 0.609375q-1.515625 0 -2.390625 -1.078125q-1.03125 -1.3125 -1.03125 -4.265625zm1.328125 0q0 2.578125 0.59375 3.4375q0.609375 0.859375 1.5 0.859375q0.890625 0 1.484375 -0.859375q0.609375 -0.859375 0.609375 -3.4375q0 -2.59375 -0.609375 -3.4375q-0.59375 -0.859375 -1.5 -0.859375q-0.890625 0 -1.421875 0.75q-0.65625 0.96875 -0.65625 3.546875zm6.822983 0q0 -1.859375 0.375 -2.984375q0.390625 -1.140625 1.140625 -1.75q0.765625 -0.625 1.90625 -0.625q0.84375 0 1.46875 0.34375q0.640625 0.328125 1.0625 0.96875q0.421875 0.640625 0.65625 1.5625q0.234375 0.921875 0.234375 2.484375q0 1.84375 -0.390625 2.984375q-0.375 1.125 -1.125 1.75q-0.75 0.609375 -1.90625 0.609375q-1.515625 0 -2.390625 -1.078125q-1.03125 -1.3125 -1.03125 -4.265625zm1.328125 0q0 2.578125 0.59375 3.4375q0.609375 0.859375 1.5 0.859375q0.890625 0 1.484375 -0.859375q0.609375 -0.859375 0.609375 -3.4375q0 -2.59375 -0.609375 -3.4375q-0.59375 -0.859375 -1.5 -0.859375q-0.890625 0 -1.421875 0.75q-0.65625 0.96875 -0.65625 3.546875z" fill-rule="nonzero"/><path fill="#000000" d="m101.484085 218.19876l-1.28125 0l0 -8.203125q-0.46875 0.4375 -1.21875 0.890625q-0.75 0.4375 -1.359375 0.65625l0 -1.25q1.078125 -0.5 1.890625 -1.21875q0.8125 -0.734375 1.140625 -1.40625l0.828125 0l0 10.53125zm7.062561 0l-1.28125 0l0 -8.203125q-0.46875 0.4375 -1.21875 0.890625q-0.75 0.4375 -1.359375 0.65625l0 -1.25q1.078125 -0.5 1.890625 -1.21875q0.8125 -0.734375 1.140625 -1.40625l0.828125 0l0 10.53125z" fill-rule="nonzero"/><path fill="#000000" d="m96.09606 231.0269q0 -1.859375 0.375 -2.984375q0.390625 -1.140625 1.140625 -1.75q0.765625 -0.625 1.90625 -0.625q0.84375 0 1.46875 0.34375q0.640625 0.328125 1.0625 0.96875q0.421875 0.640625 0.65625 1.5625q0.234375 0.921875 0.234375 2.484375q0 1.84375 -0.390625 2.984375q-0.375 1.125 -1.125 1.75q-0.75 0.609375 -1.90625 0.609375q-1.515625 0 -2.390625 -1.078125q-1.03125 -1.3125 -1.03125 -4.265625zm1.328125 0q0 2.578125 0.59375 3.4375q0.609375 0.859375 1.5 0.859375q0.890625 0 1.484375 -0.859375q0.609375 -0.859375 0.609375 -3.4375q0 -2.59375 -0.609375 -3.4375q-0.59375 -0.859375 -1.5 -0.859375q-0.890625 0 -1.421875 0.75q-0.65625 0.96875 -0.65625 3.546875zm11.666733 5.171875l-1.28125 0l0 -8.203125q-0.46875 0.4375 -1.21875 0.890625q-0.75 0.4375 -1.359375 0.65625l0 -1.25q1.078125 -0.5 1.890625 -1.21875q0.8125 -0.734375 1.140625 -1.40625l0.828125 0l0 10.53125z" fill-rule="nonzero"/><path fill="#000000" d="m96.09606 249.0269q0 -1.859375 0.375 -2.984375q0.390625 -1.140625 1.140625 -1.75q0.765625 -0.625 1.90625 -0.625q0.84375 0 1.46875 0.34375q0.640625 0.328125 1.0625 0.96875q0.421875 0.640625 0.65625 1.5625q0.234375 0.921875 0.234375 2.484375q0 1.84375 -0.390625 2.984375q-0.375 1.125 -1.125 1.75q-0.75 0.609375 -1.90625 0.609375q-1.515625 0 -2.390625 -1.078125q-1.03125 -1.3125 -1.03125 -4.265625zm1.328125 0q0 2.578125 0.59375 3.4375q0.609375 0.859375 1.5 0.859375q0.890625 0 1.484375 -0.859375q0.609375 -0.859375 0.609375 -3.4375q0 -2.59375 -0.609375 -3.4375q-0.59375 -0.859375 -1.5 -0.859375q-0.890625 0 -1.421875 0.75q-0.65625 0.96875 -0.65625 3.546875zm11.666733 5.171875l-1.28125 0l0 -8.203125q-0.46875 0.4375 -1.21875 0.890625q-0.75 0.4375 -1.359375 0.65625l0 -1.25q1.078125 -0.5 1.890625 -1.21875q0.8125 -0.734375 1.140625 -1.40625l0.828125 0l0 10.53125z" fill-rule="nonzero"/><path fill="#000000" d="m100.93981 272.19876l-1.28125 0l0 -8.203125q-0.46875 0.4375 -1.21875 0.890625q-0.75 0.4375 -1.359375 0.65625l0 -1.25q1.078125 -0.5 1.890625 -1.21875q0.8125 -0.734375 1.140625 -1.40625l0.828125 0l0 10.53125zm3.3073578 -5.171875q0 -1.859375 0.375 -2.984375q0.390625 -1.140625 1.140625 -1.75q0.765625 -0.625 1.90625 -0.625q0.84375 0 1.46875 0.34375q0.640625 0.328125 1.0625 0.96875q0.421875 0.640625 0.65625 1.5625q0.234375 0.921875 0.234375 2.484375q0 1.84375 -0.390625 2.984375q-0.375 1.125 -1.125 1.75q-0.75 0.609375 -1.90625 0.609375q-1.515625 0 -2.390625 -1.078125q-1.03125 -1.3125 -1.03125 -4.265625zm1.328125 0q0 2.578125 0.59375 3.4375q0.609375 0.859375 1.5 0.859375q0.890625 0 1.484375 -0.859375q0.609375 -0.859375 0.609375 -3.4375q0 -2.59375 -0.609375 -3.4375q-0.59375 -0.859375 -1.5 -0.859375q-0.890625 0 -1.421875 0.75q-0.65625 0.96875 -0.65625 3.546875z" fill-rule="nonzero"/><path fill="#000000" d="m98.857956 290.19876l0 -1.46875l1.46875 0l0 1.46875l-1.46875 0zm4.0719757 0l0 -1.46875l1.46875 0l0 1.46875l-1.46875 0zm4.0719757 0l0 -1.46875l1.46875 0l0 1.46875l-1.46875 0z" fill-rule="nonzero"/><path fill="#000000" fill-opacity="0.0" d="m853.66095 125.22645l28.566956 0l0 41.16535l-28.566956 0z" fill-rule="evenodd"/><path fill="#000000" d="m863.9266 142.47456l2.390625 0l0 1.421875q0.46875 -0.734375 1.25 -1.1875q0.796875 -0.453125 1.765625 -0.453125q1.6875 0 2.859375 1.328125q1.171875 1.3125 1.171875 3.671875q0 2.421875 -1.1875 3.765625q-1.1875 1.34375 -2.859375 1.34375q-0.8125 0 -1.46875 -0.3125q-0.640625 -0.328125 -1.359375 -1.09375l0 4.875l-2.5625 0l0 -13.359375zm2.53125 4.671875q0 1.625 0.640625 2.40625q0.65625 0.78125 1.578125 0.78125q0.90625 0 1.484375 -0.71875q0.59375 -0.71875 0.59375 -2.34375q0 -1.515625 -0.609375 -2.25q-0.609375 -0.75 -1.515625 -0.75q-0.9375 0 -1.5625 0.734375q-0.609375 0.71875 -0.609375 2.140625z" fill-rule="nonzero"/><path fill="#ffffff" d="m847.8359 159.81635l40.22052 0l0 125.480316l-40.22052 0z" fill-rule="evenodd"/><path stroke="#000000" stroke-width="2.0" stroke-linejoin="round" stroke-linecap="butt" d="m847.8359 159.81635l40.22052 0l0 125.480316l-40.22052 0z" fill-rule="evenodd"/><path fill="#000000" d="m860.4044 177.46461q0 -1.859375 0.375 -2.984375q0.390625 -1.140625 1.140625 -1.75q0.765625 -0.625 1.90625 -0.625q0.84375 0 1.46875 0.34375q0.640625 0.328125 1.0625 0.96875q0.421875 0.640625 0.65625 1.5625q0.234375 0.921875 0.234375 2.484375q0 1.84375 -0.390625 2.984375q-0.375 1.125 -1.125 1.75q-0.75 0.609375 -1.90625 0.609375q-1.515625 0 -2.390625 -1.078125q-1.03125 -1.3125 -1.03125 -4.265625zm1.328125 0q0 2.578125 0.59375 3.4375q0.609375 0.859375 1.5 0.859375q0.890625 0 1.484375 -0.859375q0.609375 -0.859375 0.609375 -3.4375q0 -2.59375 -0.609375 -3.4375q-0.59375 -0.859375 -1.5 -0.859375q-0.890625 0 -1.421875 0.75q-0.65625 0.96875 -0.65625 3.546875zm6.822937 0q0 -1.859375 0.375 -2.984375q0.390625 -1.140625 1.140625 -1.75q0.765625 -0.625 1.90625 -0.625q0.84375 0 1.46875 0.34375q0.640625 0.328125 1.0625 0.96875q0.421875 0.640625 0.65625 1.5625q0.234375 0.921875 0.234375 2.484375q0 1.84375 -0.390625 2.984375q-0.375 1.125 -1.125 1.75q-0.75 0.609375 -1.90625 0.609375q-1.515625 0 -2.390625 -1.078125q-1.03125 -1.3125 -1.03125 -4.265625zm1.328125 0q0 2.578125 0.59375 3.4375q0.609375 0.859375 1.5 0.859375q0.890625 0 1.484375 -0.859375q0.609375 -0.859375 0.609375 -3.4375q0 -2.59375 -0.609375 -3.4375q-0.59375 -0.859375 -1.5 -0.859375q-0.890625 0 -1.421875 0.75q-0.65625 0.96875 -0.65625 3.546875z" fill-rule="nonzero"/><path fill="#000000" d="m865.7924 200.63649l-1.28125 0l0 -8.203125q-0.46875 0.4375 -1.21875 0.890625q-0.75 0.4375 -1.359375 0.65625l0 -1.25q1.078125 -0.5 1.890625 -1.21875q0.8125 -0.734375 1.140625 -1.40625l0.828125 0l0 10.53125zm7.062561 0l-1.28125 0l0 -8.203125q-0.46875 0.4375 -1.21875 0.890625q-0.75 0.4375 -1.359375 0.65625l0 -1.25q1.078125 -0.5 1.890625 -1.21875q0.8125 -0.734375 1.140625 -1.40625l0.828125 0l0 10.53125z" fill-rule="nonzero"/><path fill="#000000" d="m860.4044 213.46463q0 -1.859375 0.375 -2.984375q0.390625 -1.140625 1.140625 -1.75q0.765625 -0.625 1.90625 -0.625q0.84375 0 1.46875 0.34375q0.640625 0.328125 1.0625 0.96875q0.421875 0.640625 0.65625 1.5625q0.234375 0.921875 0.234375 2.484375q0 1.84375 -0.390625 2.984375q-0.375 1.125 -1.125 1.75q-0.75 0.609375 -1.90625 0.609375q-1.515625 0 -2.390625 -1.078125q-1.03125 -1.3125 -1.03125 -4.265625zm1.328125 0q0 2.578125 0.59375 3.4375q0.609375 0.859375 1.5 0.859375q0.890625 0 1.484375 -0.859375q0.609375 -0.859375 0.609375 -3.4375q0 -2.59375 -0.609375 -3.4375q-0.59375 -0.859375 -1.5 -0.859375q-0.890625 0 -1.421875 0.75q-0.65625 0.96875 -0.65625 3.546875zm11.666687 5.171875l-1.28125 0l0 -8.203125q-0.46875 0.4375 -1.21875 0.890625q-0.75 0.4375 -1.359375 0.65625l0 -1.25q1.078125 -0.5 1.890625 -1.21875q0.8125 -0.734375 1.140625 -1.40625l0.828125 0l0 10.53125z" fill-rule="nonzero"/><path fill="#000000" d="m860.4044 231.46463q0 -1.859375 0.375 -2.984375q0.390625 -1.140625 1.140625 -1.75q0.765625 -0.625 1.90625 -0.625q0.84375 0 1.46875 0.34375q0.640625 0.328125 1.0625 0.96875q0.421875 0.640625 0.65625 1.5625q0.234375 0.921875 0.234375 2.484375q0 1.84375 -0.390625 2.984375q-0.375 1.125 -1.125 1.75q-0.75 0.609375 -1.90625 0.609375q-1.515625 0 -2.390625 -1.078125q-1.03125 -1.3125 -1.03125 -4.265625zm1.328125 0q0 2.578125 0.59375 3.4375q0.609375 0.859375 1.5 0.859375q0.890625 0 1.484375 -0.859375q0.609375 -0.859375 0.609375 -3.4375q0 -2.59375 -0.609375 -3.4375q-0.59375 -0.859375 -1.5 -0.859375q-0.890625 0 -1.421875 0.75q-0.65625 0.96875 -0.65625 3.546875zm11.666687 5.171875l-1.28125 0l0 -8.203125q-0.46875 0.4375 -1.21875 0.890625q-0.75 0.4375 -1.359375 0.65625l0 -1.25q1.078125 -0.5 1.890625 -1.21875q0.8125 -0.734375 1.140625 -1.40625l0.828125 0l0 10.53125z" fill-rule="nonzero"/><path fill="#000000" d="m865.24817 254.6365l-1.28125 0l0 -8.203125q-0.46875 0.4375 -1.21875 0.890625q-0.75 0.4375 -1.359375 0.65625l0 -1.25q1.078125 -0.5 1.890625 -1.21875q0.8125 -0.734375 1.140625 -1.40625l0.828125 0l0 10.53125zm3.307312 -5.171875q0 -1.859375 0.375 -2.984375q0.390625 -1.140625 1.140625 -1.75q0.765625 -0.625 1.90625 -0.625q0.84375 0 1.46875 0.34375q0.640625 0.328125 1.0625 0.96875q0.421875 0.640625 0.65625 1.5625q0.234375 0.921875 0.234375 2.484375q0 1.84375 -0.390625 2.984375q-0.375 1.125 -1.125 1.75q-0.75 0.609375 -1.90625 0.609375q-1.515625 0 -2.390625 -1.078125q-1.03125 -1.3125 -1.03125 -4.265625zm1.328125 0q0 2.578125 0.59375 3.4375q0.609375 0.859375 1.5 0.859375q0.890625 0 1.484375 -0.859375q0.609375 -0.859375 0.609375 -3.4375q0 -2.59375 -0.609375 -3.4375q-0.59375 -0.859375 -1.5 -0.859375q-0.890625 0 -1.421875 0.75q-0.65625 0.96875 -0.65625 3.546875z" fill-rule="nonzero"/><path fill="#000000" d="m863.1663 272.6365l0 -1.46875l1.46875 0l0 1.46875l-1.46875 0zm4.0719604 0l0 -1.46875l1.46875 0l0 1.46875l-1.46875 0zm4.0719604 0l0 -1.46875l1.46875 0l0 1.46875l-1.46875 0z" fill-rule="nonzero"/><path fill="#000000" fill-opacity="0.0" d="m802.2913 302.85892c0 25.181122 -14.078735 50.362213 -28.15747 50.362213" fill-rule="evenodd"/><path stroke="#000000" stroke-width="1.0" stroke-linejoin="round" stroke-linecap="butt" stroke-dasharray="4.0,3.0" d="m802.2913 302.85892c0 12.590546 -3.5196533 25.181122 -8.799194 34.624023c-2.6397705 4.721466 -5.7194824 8.656006 -9.019165 11.410187c-1.6499023 1.3771057 -3.3546753 2.459076 -5.087036 3.1968079c-0.43310547 0.18441772 -0.86798096 0.34735107 -1.3040161 0.48797607c-0.109069824 0.03515625 -0.21813965 0.06893921 -0.32733154 0.10131836l-0.22711182 0.06430054" fill-rule="evenodd"/><path fill="#000000" stroke="#000000" stroke-width="1.0" stroke-linecap="butt" d="m777.5275 352.74353l0.95684814 -1.2703247l-2.902893 1.5441895l3.2163696 0.68304443z" fill-rule="evenodd"/><path fill="#000000" fill-opacity="0.0" d="m360.71783 261.74396c0 41.450043 -28.338562 73.498505 -56.677155 82.900085c-28.338593 9.401581 -56.67717 -3.84375 -56.67717 -7.6874695" fill-rule="evenodd"/><path stroke="#000000" stroke-width="1.0" stroke-linejoin="round" stroke-linecap="butt" stroke-dasharray="4.0,3.0" d="m360.71783 261.74396c0 41.450043 -28.338562 73.498505 -56.677155 82.900085c-14.169281 4.700775 -28.338593 3.7398682 -38.965546 1.1232605c-5.3134766 -1.3083191 -9.741394 -3.0305176 -12.840927 -4.6658936c-0.7748871 -0.408844 -1.4667358 -0.81225586 -2.0686493 -1.2024231c-0.15048218 -0.09753418 -0.29533386 -0.1942749 -0.43447876 -0.29000854l-0.10734558 -0.076293945" fill-rule="evenodd"/><path fill="#000000" stroke="#000000" stroke-width="1.0" stroke-linecap="butt" d="m249.62373 339.53268l1.5870209 0.10366821l-2.8830872 -1.5808716l1.1923981 3.064209z" fill-rule="evenodd"/><path fill="#000000" fill-opacity="0.0" d="m689.3793 396.3386c-221.00787 0 -442.01575 -29.700806 -442.01575 -59.40158" fill-rule="evenodd"/><path stroke="#000000" stroke-width="1.0" stroke-linejoin="round" stroke-linecap="butt" stroke-dasharray="4.0,3.0" d="m689.3793 396.3386c-110.50397 0 -221.00787 -7.4252014 -303.88583 -18.562988c-41.438965 -5.5689087 -75.971466 -12.0659485 -100.144196 -19.02707c-12.086365 -3.4805603 -21.582794 -7.0771484 -28.057648 -10.73172c-3.2374268 -1.827301 -5.7194366 -3.6691284 -7.39209 -5.518158c-0.41818237 -0.46224976 -0.7857666 -0.9249878 -1.1019135 -1.388031c-0.15808105 -0.23153687 -0.30329895 -0.46316528 -0.43554688 -0.6948242l-0.09613037 -0.17263794" fill-rule="evenodd"/><path fill="#000000" stroke="#000000" stroke-width="1.0" stroke-linecap="butt" d="m248.2659 340.24316l1.3810272 0.78878784l-1.898468 -2.6846313l-0.2713318 3.2768555z" fill-rule="evenodd"/><path fill="#000000" fill-opacity="0.0" d="m123.74803 240.11876l72.53543 0" fill-rule="evenodd"/><path stroke="#000000" stroke-width="1.0" stroke-linejoin="round" stroke-linecap="butt" d="m123.74803 240.11876l66.53543 0" fill-rule="evenodd"/><path fill="#000000" stroke="#000000" stroke-width="1.0" stroke-linecap="butt" d="m190.28346 241.7705l4.538101 -1.6517334l-4.538101 -1.6517181z" fill-rule="evenodd"/><path fill="#000000" fill-opacity="0.0" d="m316.43176 240.11876l89.19684 0" fill-rule="evenodd"/><path stroke="#000000" stroke-width="1.0" stroke-linejoin="round" stroke-linecap="butt" d="m316.43176 240.11876l83.19684 0" fill-rule="evenodd"/><path fill="#000000" stroke="#000000" stroke-width="1.0" stroke-linecap="butt" d="m399.6286 241.7705l4.5381165 -1.6517334l-4.5381165 -1.6517181z" fill-rule="evenodd"/><path fill="#000000" fill-opacity="0.0" d="m494.0831 240.11876l90.9606 0" fill-rule="evenodd"/><path stroke="#000000" stroke-width="1.0" stroke-linejoin="round" stroke-linecap="butt" d="m494.0831 240.11876l84.9606 0" fill-rule="evenodd"/><path fill="#000000" stroke="#000000" stroke-width="1.0" stroke-linecap="butt" d="m579.0437 241.7705l4.538086 -1.6517334l-4.538086 -1.6517181z" fill-rule="evenodd"/><path fill="#000000" fill-opacity="0.0" d="m705.20355 240.11876c19.244507 0 28.866943 0.01576233 38.488953 0.0315094c9.62207 0.01574707 19.243713 0.03149414 38.487427 0.03149414" fill-rule="evenodd"/><path stroke="#000000" stroke-width="1.0" stroke-linejoin="round" stroke-linecap="butt" d="m705.20355 240.11876c19.244507 0 28.866882 0.01576233 38.488953 0.0315094c4.811035 0.007873535 9.621948 0.01574707 15.635559 0.021652222c3.006897 0.0029449463 6.314392 0.0054016113 10.072937 0.0071258545l6.7789307 0.0014343262" fill-rule="evenodd"/><path fill="#000000" stroke="#000000" stroke-width="1.0" stroke-linecap="butt" d="m776.1796 241.83221l4.538452 -1.6507721l-4.537781 -1.6526794z" fill-rule="evenodd"/><path fill="#000000" fill-opacity="0.0" d="m785.8189 142.78806l32.944885 0l0 41.16536l-32.944885 0z" fill-rule="evenodd"/><path fill="#000000" d="m797.85895 160.03618l2.390625 0l0 1.421875q0.46875 -0.734375 1.25 -1.1875q0.796875 -0.453125 1.765625 -0.453125q1.6875 0 2.859375 1.328125q1.171875 1.3125 1.171875 3.671875q0 2.421875 -1.1875 3.765625q-1.1875 1.34375 -2.859375 1.34375q-0.8125 0 -1.46875 -0.3125q-0.640625 -0.328125 -1.359375 -1.09375l0 4.875l-2.5625 0l0 -13.359375zm2.53125 4.671875q0 1.625 0.640625 2.40625q0.65625 0.78125 1.578125 0.78125q0.90625 0 1.484375 -0.71875q0.59375 -0.71875 0.59375 -2.34375q0 -1.515625 -0.609375 -2.25q-0.609375 -0.75 -1.515625 -0.75q-0.9375 0 -1.5625 0.734375q-0.609375 0.71875 -0.609375 2.140625zm5.2213745 -6.1002655l-2.0625 0l-1.046875 -1.359375l-0.984375 1.359375l-2.0625 0l1.90625 -2.6875l2.375 0l1.875 2.6875z" fill-rule="nonzero"/><path fill="#a4c2f4" d="m673.8504 344.172l0 0c0 -2.4961853 2.0235596 -4.5197754 4.5197754 -4.5197754l91.2439 0c1.1987305 0 2.3483276 0.4761963 3.195984 1.323822c0.8475952 0.84762573 1.3237915 1.9972534 1.3237915 3.1959534l0 18.078583c0 2.4961853 -2.0235596 4.5197754 -4.5197754 4.5197754l-91.2439 0c-2.4962158 0 -4.5197754 -2.02359 -4.5197754 -4.5197754z" fill-rule="evenodd"/><path fill="#000000" d="m699.70715 355.4438l1.765625 0.453125q-0.5625 2.171875 -2.0 3.328125q-1.4375 1.140625 -3.53125 1.140625q-2.15625 0 -3.515625 -0.875q-1.34375 -0.890625 -2.0625 -2.546875q-0.703125 -1.671875 -0.703125 -3.59375q0 -2.078125 0.796875 -3.625q0.796875 -1.5625 2.265625 -2.359375q1.484375 -0.8125 3.25 -0.8125q2.0 0 3.359375 1.015625q1.375 1.015625 1.90625 2.875l-1.734375 0.40625q-0.46875 -1.453125 -1.359375 -2.109375q-0.875 -0.671875 -2.203125 -0.671875q-1.546875 0 -2.578125 0.734375q-1.03125 0.734375 -1.453125 1.984375q-0.421875 1.234375 -0.421875 2.5625q0 1.703125 0.5 2.96875q0.5 1.265625 1.546875 1.90625q1.046875 0.625 2.265625 0.625q1.484375 0 2.515625 -0.859375q1.03125 -0.859375 1.390625 -2.546875zm3.9729004 4.6875l0 -13.359375l9.65625 0l0 1.578125l-7.875 0l0 4.09375l7.375 0l0 1.5625l-7.375 0l0 4.546875l8.1875 0l0 1.578125l-9.96875 0zm17.517517 0l0 -13.359375l1.78125 0l0 11.78125l6.5625 0l0 1.578125l-8.34375 0zm9.641357 -4.84375q0 -2.6875 1.484375 -3.96875q1.25 -1.078125 3.046875 -1.078125q2.0 0 3.265625 1.3125q1.265625 1.296875 1.265625 3.609375q0 1.859375 -0.5625 2.9375q-0.5625 1.0625 -1.640625 1.65625q-1.0625 0.59375 -2.328125 0.59375q-2.03125 0 -3.28125 -1.296875q-1.25 -1.3125 -1.25 -3.765625zm1.6875 0q0 1.859375 0.796875 2.796875q0.8125 0.921875 2.046875 0.921875q1.21875 0 2.03125 -0.921875q0.8125 -0.9375 0.8125 -2.84375q0 -1.796875 -0.8125 -2.71875q-0.8125 -0.921875 -2.03125 -0.921875q-1.234375 0 -2.046875 0.921875q-0.796875 0.90625 -0.796875 2.765625zm8.641296 1.953125l1.625 -0.25q0.125 0.96875 0.75 1.5q0.625 0.515625 1.75 0.515625q1.125 0 1.671875 -0.453125q0.546875 -0.46875 0.546875 -1.09375q0 -0.546875 -0.484375 -0.875q-0.328125 -0.21875 -1.671875 -0.546875q-1.8125 -0.46875 -2.515625 -0.796875q-0.6875 -0.328125 -1.046875 -0.90625q-0.359375 -0.59375 -0.359375 -1.3125q0 -0.640625 0.296875 -1.1875q0.296875 -0.5625 0.8125 -0.921875q0.375 -0.28125 1.03125 -0.46875q0.671875 -0.203125 1.421875 -0.203125q1.140625 0 2.0 0.328125q0.859375 0.328125 1.265625 0.890625q0.421875 0.5625 0.578125 1.5l-1.609375 0.21875q-0.109375 -0.75 -0.640625 -1.171875q-0.515625 -0.421875 -1.46875 -0.421875q-1.140625 0 -1.625 0.375q-0.46875 0.375 -0.46875 0.875q0 0.3125 0.1875 0.578125q0.203125 0.265625 0.640625 0.4375q0.234375 0.09375 1.4375 0.421875q1.75 0.453125 2.4375 0.75q0.6875 0.296875 1.078125 0.859375q0.390625 0.5625 0.390625 1.40625q0 0.828125 -0.484375 1.546875q-0.46875 0.71875 -1.375 1.125q-0.90625 0.390625 -2.046875 0.390625q-1.875 0 -2.875 -0.78125q-0.984375 -0.78125 -1.25 -2.328125zm9.328125 0l1.625 -0.25q0.125 0.96875 0.75 1.5q0.625 0.515625 1.75 0.515625q1.125 0 1.671875 -0.453125q0.546875 -0.46875 0.546875 -1.09375q0 -0.546875 -0.484375 -0.875q-0.328125 -0.21875 -1.671875 -0.546875q-1.8125 -0.46875 -2.515625 -0.796875q-0.6875 -0.328125 -1.046875 -0.90625q-0.359375 -0.59375 -0.359375 -1.3125q0 -0.640625 0.296875 -1.1875q0.296875 -0.5625 0.8125 -0.921875q0.375 -0.28125 1.03125 -0.46875q0.671875 -0.203125 1.421875 -0.203125q1.140625 0 2.0 0.328125q0.859375 0.328125 1.265625 0.890625q0.421875 0.5625 0.578125 1.5l-1.609375 0.21875q-0.109375 -0.75 -0.640625 -1.171875q-0.515625 -0.421875 -1.46875 -0.421875q-1.140625 0 -1.625 0.375q-0.46875 0.375 -0.46875 0.875q0 0.3125 0.1875 0.578125q0.203125 0.265625 0.640625 0.4375q0.234375 0.09375 1.4375 0.421875q1.75 0.453125 2.4375 0.75q0.6875 0.296875 1.078125 0.859375q0.390625 0.5625 0.390625 1.40625q0 0.828125 -0.484375 1.546875q-0.46875 0.71875 -1.375 1.125q-0.90625 0.390625 -2.046875 0.390625q-1.875 0 -2.875 -0.78125q-0.984375 -0.78125 -1.25 -2.328125z" fill-rule="nonzero"/><path fill="#000000" fill-opacity="0.0" d="m723.9921 339.65222c0 -15.480316 -9.952759 -30.960632 -19.905518 -30.960632" fill-rule="evenodd"/><path stroke="#000000" stroke-width="1.0" stroke-linejoin="round" stroke-linecap="butt" stroke-dasharray="4.0,3.0" d="m723.9921 339.65222c0 -7.740143 -2.4881592 -15.480316 -6.220459 -21.28543c-1.8661499 -2.9025574 -4.043335 -5.32135 -6.3759766 -7.014496c-1.1663818 -0.84658813 -2.371582 -1.5117493 -3.5962524 -1.965271c-0.07647705 -0.028381348 -0.1531372 -0.055877686 -0.22979736 -0.08255005l-0.10498047 -0.035339355" fill-rule="evenodd"/><path fill="#000000" stroke="#000000" stroke-width="1.0" stroke-linecap="butt" d="m707.46466 309.26913l1.2980347 -0.91900635l-3.2351074 0.5878296l2.856079 1.6291809z" fill-rule="evenodd"/><path fill="#000000" fill-opacity="0.0" d="m867.9461 285.29666c0 33.95276 -46.91333 67.90552 -93.82672 67.90552" fill-rule="evenodd"/><path stroke="#000000" stroke-width="1.0" stroke-linejoin="round" stroke-linecap="butt" stroke-dasharray="4.0,3.0" d="m867.9461 285.29666c0 16.97638 -11.7283325 33.95276 -29.320862 46.68506c-8.796265 6.3661194 -19.058533 11.671234 -30.053894 15.384827c-5.4976807 1.8568115 -11.178528 3.3157043 -16.95111 4.310425c-2.8862915 0.49731445 -5.79541 0.8786316 -8.7161255 1.1356201c-1.4603271 0.128479 -2.923462 0.22589111 -4.3880615 0.2911682l-0.9700928 0.037902832" fill-rule="evenodd"/><path fill="#000000" stroke="#000000" stroke-width="1.0" stroke-linecap="butt" d="m777.5459 353.14163l1.1045532 -1.1442566l-3.069458 1.1789856l3.109192 1.0698242z" fill-rule="evenodd"/><path fill="#ffffff" d="m585.0461 202.49672l120.15747 0l0 75.244095l-120.15747 0z" fill-rule="evenodd"/><path stroke="#000000" stroke-width="2.0" stroke-linejoin="round" stroke-linecap="butt" d="m585.0461 202.49672l120.15747 0l0 75.244095l-120.15747 0z" fill-rule="evenodd"/><path fill="#f9cb9c" d="m630.6276 219.90938l0 0c0 -2.9397125 2.3831177 -5.32283 5.322815 -5.32283l0 0c1.4116821 0 2.765564 0.560791 3.763794 1.559021c0.99823 0.99823 1.559021 2.3521118 1.559021 3.7638092l0 0c0 2.9397278 -2.3831177 5.3228455 -5.322815 5.3228455l0 0c-2.9396973 0 -5.322815 -2.3831177 -5.322815 -5.3228455z" fill-rule="evenodd"/><path stroke="#000000" stroke-width="1.0" stroke-linejoin="round" stroke-linecap="butt" d="m630.6276 219.90938l0 0c0 -2.9397125 2.3831177 -5.32283 5.322815 -5.32283l0 0c1.4116821 0 2.765564 0.560791 3.763794 1.559021c0.99823 0.99823 1.559021 2.3521118 1.559021 3.7638092l0 0c0 2.9397278 -2.3831177 5.3228455 -5.322815 5.3228455l0 0c-2.9396973 0 -5.322815 -2.3831177 -5.322815 -5.3228455z" fill-rule="evenodd"/><path fill="#f9cb9c" d="m630.6276 233.38332l0 0c0 -2.9397125 2.3831177 -5.32283 5.322815 -5.32283l0 0c1.4116821 0 2.765564 0.5608063 3.763794 1.559021c0.99823 0.99823 1.559021 2.3521118 1.559021 3.7638092l0 0c0 2.9397278 -2.3831177 5.3228455 -5.322815 5.3228455l0 0c-2.9396973 0 -5.322815 -2.3831177 -5.322815 -5.3228455z" fill-rule="evenodd"/><path stroke="#000000" stroke-width="1.0" stroke-linejoin="round" stroke-linecap="butt" d="m630.6276 233.38332l0 0c0 -2.9397125 2.3831177 -5.32283 5.322815 -5.32283l0 0c1.4116821 0 2.765564 0.5608063 3.763794 1.559021c0.99823 0.99823 1.559021 2.3521118 1.559021 3.7638092l0 0c0 2.9397278 -2.3831177 5.3228455 -5.322815 5.3228455l0 0c-2.9396973 0 -5.322815 -2.3831177 -5.322815 -5.3228455z" fill-rule="evenodd"/><path fill="#f9cb9c" d="m630.6276 246.85727l0 0c0 -2.9397278 2.3831177 -5.3228455 5.322815 -5.3228455l0 0c1.4116821 0 2.765564 0.5608063 3.763794 1.559021c0.99823 0.99823 1.559021 2.3521118 1.559021 3.7638245l0 0c0 2.9397125 -2.3831177 5.32283 -5.322815 5.32283l0 0c-2.9396973 0 -5.322815 -2.3831177 -5.322815 -5.32283z" fill-rule="evenodd"/><path stroke="#000000" stroke-width="1.0" stroke-linejoin="round" stroke-linecap="butt" d="m630.6276 246.85727l0 0c0 -2.9397278 2.3831177 -5.3228455 5.322815 -5.3228455l0 0c1.4116821 0 2.765564 0.5608063 3.763794 1.559021c0.99823 0.99823 1.559021 2.3521118 1.559021 3.7638245l0 0c0 2.9397125 -2.3831177 5.32283 -5.322815 5.32283l0 0c-2.9396973 0 -5.322815 -2.3831177 -5.322815 -5.32283z" fill-rule="evenodd"/><path fill="#f9cb9c" d="m630.6276 260.3312l0 0c0 -2.9397278 2.3831177 -5.3228455 5.322815 -5.3228455l0 0c1.4116821 0 2.765564 0.5608063 3.763794 1.559021c0.99823 0.99823 1.559021 2.3521118 1.559021 3.7638245l0 0c0 2.9397278 -2.3831177 5.322815 -5.322815 5.322815l0 0c-2.9396973 0 -5.322815 -2.3830872 -5.322815 -5.322815z" fill-rule="evenodd"/><path stroke="#000000" stroke-width="1.0" stroke-linejoin="round" stroke-linecap="butt" d="m630.6276 260.3312l0 0c0 -2.9397278 2.3831177 -5.3228455 5.322815 -5.3228455l0 0c1.4116821 0 2.765564 0.5608063 3.763794 1.559021c0.99823 0.99823 1.559021 2.3521118 1.559021 3.7638245l0 0c0 2.9397278 -2.3831177 5.322815 -5.322815 5.322815l0 0c-2.9396973 0 -5.322815 -2.3830872 -5.322815 -5.322815z" fill-rule="evenodd"/><path fill="#b6d7a8" d="m601.0356 233.49274l0 0c0 -2.9397278 2.3831177 -5.3228455 5.322876 -5.3228455l0 0c1.4116821 0 2.765564 0.5608063 3.763794 1.5590363c0.99823 0.9982147 1.559021 2.3520966 1.559021 3.7638092l0 0c0 2.9397125 -2.3831177 5.32283 -5.322815 5.32283l0 0c-2.9397583 0 -5.322876 -2.3831177 -5.322876 -5.32283z" fill-rule="evenodd"/><path stroke="#000000" stroke-width="1.0" stroke-linejoin="round" stroke-linecap="butt" d="m601.0356 233.49274l0 0c0 -2.9397278 2.3831177 -5.3228455 5.322876 -5.3228455l0 0c1.4116821 0 2.765564 0.5608063 3.763794 1.5590363c0.99823 0.9982147 1.559021 2.3520966 1.559021 3.7638092l0 0c0 2.9397125 -2.3831177 5.32283 -5.322815 5.32283l0 0c-2.9397583 0 -5.322876 -2.3831177 -5.322876 -5.32283z" fill-rule="evenodd"/><path fill="#b6d7a8" d="m601.0356 246.96667l0 0c0 -2.9397278 2.3831177 -5.32283 5.322876 -5.32283l0 0c1.4116821 0 2.765564 0.560791 3.763794 1.559021c0.99823 0.9982147 1.559021 2.3520966 1.559021 3.7638092l0 0c0 2.9397125 -2.3831177 5.32283 -5.322815 5.32283l0 0c-2.9397583 0 -5.322876 -2.3831177 -5.322876 -5.32283z" fill-rule="evenodd"/><path stroke="#000000" stroke-width="1.0" stroke-linejoin="round" stroke-linecap="butt" d="m601.0356 246.96667l0 0c0 -2.9397278 2.3831177 -5.32283 5.322876 -5.32283l0 0c1.4116821 0 2.765564 0.560791 3.763794 1.559021c0.99823 0.9982147 1.559021 2.3520966 1.559021 3.7638092l0 0c0 2.9397125 -2.3831177 5.32283 -5.322815 5.32283l0 0c-2.9397583 0 -5.322876 -2.3831177 -5.322876 -5.32283z" fill-rule="evenodd"/><path fill="#b4a7d6" d="m678.2213 233.43915l0 0c0 -2.9397278 2.3831177 -5.3228455 5.322815 -5.3228455l0 0c1.4117432 0 2.765625 0.5608063 3.763855 1.559021c0.99823 0.99823 1.559021 2.3521118 1.559021 3.7638245l0 0c0 2.9397125 -2.3831177 5.32283 -5.322876 5.32283l0 0c-2.9396973 0 -5.322815 -2.3831177 -5.322815 -5.32283z" fill-rule="evenodd"/><path stroke="#000000" stroke-width="1.0" stroke-linejoin="round" stroke-linecap="butt" d="m678.2213 233.43915l0 0c0 -2.9397278 2.3831177 -5.3228455 5.322815 -5.3228455l0 0c1.4117432 0 2.765625 0.5608063 3.763855 1.559021c0.99823 0.99823 1.559021 2.3521118 1.559021 3.7638245l0 0c0 2.9397125 -2.3831177 5.32283 -5.322876 5.32283l0 0c-2.9396973 0 -5.322815 -2.3831177 -5.322815 -5.32283z" fill-rule="evenodd"/><path fill="#b4a7d6" d="m678.2213 246.91309l0 0c0 -2.9397278 2.3831177 -5.3228455 5.322815 -5.3228455l0 0c1.4117432 0 2.765625 0.5608063 3.763855 1.559021c0.99823 0.99823 1.559021 2.3521118 1.559021 3.7638245l0 0c0 2.9397125 -2.3831177 5.32283 -5.322876 5.32283l0 0c-2.9396973 0 -5.322815 -2.3831177 -5.322815 -5.32283z" fill-rule="evenodd"/><path stroke="#000000" stroke-width="1.0" stroke-linejoin="round" stroke-linecap="butt" d="m678.2213 246.91309l0 0c0 -2.9397278 2.3831177 -5.3228455 5.322815 -5.3228455l0 0c1.4117432 0 2.765625 0.5608063 3.763855 1.559021c0.99823 0.99823 1.559021 2.3521118 1.559021 3.7638245l0 0c0 2.9397125 -2.3831177 5.32283 -5.322876 5.32283l0 0c-2.9396973 0 -5.322815 -2.3831177 -5.322815 -5.32283z" fill-rule="evenodd"/><path fill="#000000" fill-opacity="0.0" d="m611.6813 233.49274l18.960632 -13.574814" fill-rule="evenodd"/><path stroke="#000000" stroke-width="1.0" stroke-linejoin="round" stroke-linecap="butt" d="m611.6813 233.49274l16.174072 -11.579788" fill-rule="evenodd"/><path fill="#000000" stroke="#000000" stroke-width="1.0" stroke-linecap="butt" d="m627.85535 221.91295l-0.2597046 1.5690613l1.857605 -2.7130585l-3.1669312 0.8842621z" fill-rule="evenodd"/><path fill="#000000" fill-opacity="0.0" d="m611.6813 233.49274l18.960632 -0.09449768" fill-rule="evenodd"/><path stroke="#000000" stroke-width="1.0" stroke-linejoin="round" stroke-linecap="butt" d="m611.6813 233.49274l15.533569 -0.07740784" fill-rule="evenodd"/><path fill="#000000" stroke="#000000" stroke-width="1.0" stroke-linecap="butt" d="m627.21484 233.41533l-1.1189575 1.1301727l3.0841064 -1.1399689l-3.095337 -1.1091614z" fill-rule="evenodd"/><path fill="#000000" fill-opacity="0.0" d="m611.6813 233.49274l18.960632 13.354324" fill-rule="evenodd"/><path stroke="#000000" stroke-width="1.0" stroke-linejoin="round" stroke-linecap="butt" d="m611.6813 233.49274l16.158752 11.380905" fill-rule="evenodd"/><path fill="#000000" stroke="#000000" stroke-width="1.0" stroke-linecap="butt" d="m627.84 244.87366l-1.5670166 0.2718506l3.173706 0.85975647l-1.87854 -2.6986084z" fill-rule="evenodd"/><path fill="#000000" fill-opacity="0.0" d="m611.6813 233.49274l18.960632 26.834656" fill-rule="evenodd"/><path stroke="#000000" stroke-width="1.0" stroke-linejoin="round" stroke-linecap="butt" d="m611.6813 233.49274l16.982971 24.035736" fill-rule="evenodd"/><path fill="#000000" stroke="#000000" stroke-width="1.0" stroke-linecap="butt" d="m628.66425 257.52847l-1.5673828 -0.26950073l2.701416 1.8744812l-0.86450195 -3.1723785z" fill-rule="evenodd"/><path fill="#000000" fill-opacity="0.0" d="m611.6813 246.96667l18.960632 -27.055115" fill-rule="evenodd"/><path stroke="#000000" stroke-width="1.0" stroke-linejoin="round" stroke-linecap="butt" d="m611.6813 246.96667l16.993774 -24.248596" fill-rule="evenodd"/><path fill="#000000" stroke="#000000" stroke-width="1.0" stroke-linecap="butt" d="m628.67505 222.71806l0.2755127 1.5663605l0.85235596 -3.1756897l-2.6942139 1.8848572z" fill-rule="evenodd"/><path fill="#000000" fill-opacity="0.0" d="m611.6813 246.96667l18.960632 -13.574814" fill-rule="evenodd"/><path stroke="#000000" stroke-width="1.0" stroke-linejoin="round" stroke-linecap="butt" d="m611.6813 246.96667l16.174072 -11.579788" fill-rule="evenodd"/><path fill="#000000" stroke="#000000" stroke-width="1.0" stroke-linecap="butt" d="m627.85535 235.38689l-0.2597046 1.5690613l1.857605 -2.7130585l-3.1669312 0.8842621z" fill-rule="evenodd"/><path fill="#000000" fill-opacity="0.0" d="m611.6813 246.96667l18.960632 -0.09449768" fill-rule="evenodd"/><path stroke="#000000" stroke-width="1.0" stroke-linejoin="round" stroke-linecap="butt" d="m611.6813 246.96667l15.533569 -0.07740784" fill-rule="evenodd"/><path fill="#000000" stroke="#000000" stroke-width="1.0" stroke-linecap="butt" d="m627.21484 246.88927l-1.1189575 1.1301727l3.0841064 -1.1399689l-3.095337 -1.1091614z" fill-rule="evenodd"/><path fill="#000000" fill-opacity="0.0" d="m611.6813 246.96667l18.960632 13.35434" fill-rule="evenodd"/><path stroke="#000000" stroke-width="1.0" stroke-linejoin="round" stroke-linecap="butt" d="m611.6813 246.96667l16.158752 11.38092" fill-rule="evenodd"/><path fill="#000000" stroke="#000000" stroke-width="1.0" stroke-linecap="butt" d="m627.84 258.3476l-1.5670166 0.2718506l3.173706 0.8597717l-1.87854 -2.6986084z" fill-rule="evenodd"/><path fill="#000000" fill-opacity="0.0" d="m641.27325 219.90938l36.944885 13.54332" fill-rule="evenodd"/><path stroke="#000000" stroke-width="1.0" stroke-linejoin="round" stroke-linecap="butt" d="m641.2733 219.9094l33.727173 12.363754" fill-rule="evenodd"/><path fill="#000000" stroke="#000000" stroke-width="1.0" stroke-linecap="butt" d="m675.0005 232.27315l-1.4429321 0.668808l3.288025 0.0075683594l-2.513916 -2.1193085z" fill-rule="evenodd"/><path fill="#000000" fill-opacity="0.0" d="m641.27325 233.38332l36.944885 0.06300354" fill-rule="evenodd"/><path stroke="#000000" stroke-width="1.0" stroke-linejoin="round" stroke-linecap="butt" d="m641.2733 233.38333l33.51776 0.057144165" fill-rule="evenodd"/><path fill="#000000" stroke="#000000" stroke-width="1.0" stroke-linecap="butt" d="m674.7911 233.44048l-1.1264648 1.1226654l3.0916748 -1.1193237l-3.0878296 -1.129837z" fill-rule="evenodd"/><path fill="#000000" fill-opacity="0.0" d="m641.27325 246.85727l36.944885 -13.417328" fill-rule="evenodd"/><path stroke="#000000" stroke-width="1.0" stroke-linejoin="round" stroke-linecap="butt" d="m641.2733 246.85727l33.723633 -12.247467" fill-rule="evenodd"/><path fill="#000000" stroke="#000000" stroke-width="1.0" stroke-linecap="butt" d="m674.99695 234.6098l-0.67315674 1.440918l2.5202637 -2.1117554l-3.288025 -0.002319336z" fill-rule="evenodd"/><path fill="#000000" fill-opacity="0.0" d="m641.27325 260.3312l36.944885 -26.897644" fill-rule="evenodd"/><path stroke="#000000" stroke-width="1.0" stroke-linejoin="round" stroke-linecap="butt" d="m641.2733 260.3312l34.174255 -24.880524" fill-rule="evenodd"/><path fill="#000000" stroke="#000000" stroke-width="1.0" stroke-linecap="butt" d="m675.4476 235.45068l-0.24725342 1.5710602l1.8359985 -2.7277374l-3.15979 0.9094238z" fill-rule="evenodd"/><path fill="#000000" fill-opacity="0.0" d="m641.27325 219.90938l36.944885 26.992126" fill-rule="evenodd"/><path stroke="#000000" stroke-width="1.0" stroke-linejoin="round" stroke-linecap="butt" d="m641.2733 219.9094l34.177612 24.970383" fill-rule="evenodd"/><path fill="#000000" stroke="#000000" stroke-width="1.0" stroke-linecap="butt" d="m675.451 244.87978l-1.5715332 0.24461365l3.1583252 0.91470337l-1.8314209 -2.7308044z" fill-rule="evenodd"/><path fill="#000000" fill-opacity="0.0" d="m641.27325 233.38332l36.944885 13.54332" fill-rule="evenodd"/><path stroke="#000000" stroke-width="1.0" stroke-linejoin="round" stroke-linecap="butt" d="m641.2733 233.38333l33.727173 12.363754" fill-rule="evenodd"/><path fill="#000000" stroke="#000000" stroke-width="1.0" stroke-linecap="butt" d="m675.0005 245.74709l-1.4429321 0.668808l3.288025 0.0075683594l-2.513916 -2.1193237z" fill-rule="evenodd"/><path fill="#000000" fill-opacity="0.0" d="m641.27325 246.85727l36.944885 0.06298828" fill-rule="evenodd"/><path stroke="#000000" stroke-width="1.0" stroke-linejoin="round" stroke-linecap="butt" d="m641.2733 246.85727l33.51776 0.057144165" fill-rule="evenodd"/><path fill="#000000" stroke="#000000" stroke-width="1.0" stroke-linecap="butt" d="m674.7911 246.91441l-1.1264648 1.1226654l3.0916748 -1.1193237l-3.0878296 -1.129837z" fill-rule="evenodd"/><path fill="#000000" fill-opacity="0.0" d="m641.27325 260.3312l36.944885 -13.417328" fill-rule="evenodd"/><path stroke="#000000" stroke-width="1.0" stroke-linejoin="round" stroke-linecap="butt" d="m641.2733 260.3312l33.723633 -12.247467" fill-rule="evenodd"/><path fill="#000000" stroke="#000000" stroke-width="1.0" stroke-linecap="butt" d="m674.99695 248.08374l-0.67315674 1.440918l2.5202637 -2.1117554l-3.288025 -0.002319336z" fill-rule="evenodd"/><path fill="#000000" fill-opacity="0.0" d="m867.9461 285.29666c0 55.527557 -45.055115 111.055115 -90.11023 111.055115" fill-rule="evenodd"/><path stroke="#000000" stroke-width="1.0" stroke-linejoin="round" stroke-linecap="butt" stroke-dasharray="4.0,3.0" d="m867.9461 285.29666c0 27.763763 -11.263794 55.527557 -28.159424 76.3504c-8.447876 10.411407 -18.30365 19.087585 -28.863464 25.16092c-5.279846 3.0366821 -10.735779 5.4226074 -16.279663 7.0493774c-2.7719116 0.8134155 -5.565857 1.4370117 -8.37085 1.8572998c-1.4024658 0.21008301 -2.8077393 0.36938477 -4.2142944 0.47616577c-0.17578125 0.013336182 -0.35162354 0.025817871 -0.5274658 0.03756714l-0.26965332 0.01663208" fill-rule="evenodd"/><path fill="#000000" stroke="#000000" stroke-width="1.0" stroke-linecap="butt" d="m781.2613 396.24503l1.0889893 -1.1590576l-3.0532227 1.2202759l3.123291 1.0278015z" fill-rule="evenodd"/><path fill="#000000" fill-opacity="0.0" d="m802.2913 302.85892c0 46.740173 -12.236206 93.480316 -24.472412 93.480316" fill-rule="evenodd"/><path stroke="#000000" stroke-width="1.0" stroke-linejoin="round" stroke-linecap="butt" stroke-dasharray="4.0,3.0" d="m802.2913 302.85892c0 23.370087 -3.059021 46.740173 -7.647644 64.26773c-2.2942505 8.763763 -4.9709473 16.066925 -7.838806 21.179138c-1.43396 2.5560913 -2.9157104 4.564453 -4.4212646 5.9338074c-0.37646484 0.3423462 -0.7543335 0.64471436 -1.1333618 0.9057617l-0.17773438 0.11743164" fill-rule="evenodd"/><path fill="#000000" stroke="#000000" stroke-width="1.0" stroke-linecap="butt" d="m781.0725 395.2628l0.71447754 -1.4208984l-2.5802002 2.0381775l3.2866821 0.09716797z" fill-rule="evenodd"/><g filter="url(#shadowFilter-g5d031e9e09_0_1474.1)"><use xlink:href="#g5d031e9e09_0_1474.1" transform="matrix(1.0 0.0 0.0 1.0 1.0 0.0)"/></g><defs><filter id="shadowFilter-g5d031e9e09_0_1474.1" filterUnits="userSpaceOnUse"><feGaussianBlur in="SourceAlpha" stdDeviation="30.0" result="blur"/><feComponentTransfer in="blur" color-interpolation-filters="sRGB"><feFuncR type="linear" slope="0" intercept="0.0"/><feFuncG type="linear" slope="0" intercept="0.0"/><feFuncB type="linear" slope="0" intercept="0.0"/><feFuncA type="linear" slope="1.0" intercept="0"/></feComponentTransfer></filter></defs><g id="g5d031e9e09_0_1474.1"><path fill="#000000" fill-opacity="0.0" d="m65.65748 116.350395l263.2756 0l0 41.16535l-263.2756 0z" fill-rule="evenodd"/><path fill="#ffffff" d="m170.27357 143.27039l-2.9375 0l-1.171875 -3.03125l-5.328125 0l-1.109375 3.03125l-2.859375 0l5.203125 -13.359375l2.84375 0l5.359375 13.359375zm-4.96875 -5.28125l-1.84375 -4.953125l-1.796875 4.953125l3.640625 0zm12.597946 0.375l0 -2.25l5.8125 0l0 5.3125q-0.84375 0.828125 -2.453125 1.453125q-1.609375 0.625 -3.25 0.625q-2.09375 0 -3.65625 -0.875q-1.5625 -0.890625 -2.34375 -2.515625q-0.78125 -1.640625 -0.78125 -3.5625q0 -2.09375 0.875 -3.703125q0.875 -1.625 2.5625 -2.5q1.28125 -0.65625 3.203125 -0.65625q2.484375 0 3.875 1.046875q1.40625 1.03125 1.796875 2.875l-2.671875 0.5q-0.28125 -0.984375 -1.0625 -1.546875q-0.78125 -0.578125 -1.9375 -0.578125q-1.78125 0 -2.828125 1.125q-1.03125 1.125 -1.03125 3.328125q0 2.375 1.046875 3.5625q1.0625 1.1875 2.78125 1.1875q0.84375 0 1.6875 -0.328125q0.859375 -0.328125 1.46875 -0.8125l0 -1.6875l-3.09375 0zm8.308304 4.90625l0 -13.359375l9.90625 0l0 2.265625l-7.21875 0l0 2.953125l6.71875 0l0 2.25l-6.71875 0l0 3.640625l7.46875 0l0 2.25l-10.15625 0zm12.474823 0l0 -13.359375l2.625 0l5.453125 8.921875l0 -8.921875l2.515625 0l0 13.359375l-2.703125 0l-5.390625 -8.703125l0 8.703125l-2.5 0zm16.441711 0l0 -11.09375l-3.953125 0l0 -2.265625l10.609375 0l0 2.265625l-3.953125 0l0 11.09375l-2.703125 0zm19.56366 0l-2.5625 0l0 -9.640625q-1.40625 1.3125 -3.3125 1.9375l0 -2.328125q1.015625 -0.328125 2.1875 -1.234375q1.171875 -0.921875 1.609375 -2.140625l2.078125 0l0 13.40625z" fill-rule="nonzero"/></g><g filter="url(#shadowFilter-g5d031e9e09_0_1474.2)"><use xlink:href="#g5d031e9e09_0_1474.2" transform="matrix(1.0 0.0 0.0 1.0 1.0 0.0)"/></g><defs><filter id="shadowFilter-g5d031e9e09_0_1474.2" filterUnits="userSpaceOnUse"><feGaussianBlur in="SourceAlpha" stdDeviation="30.0" result="blur"/><feComponentTransfer in="blur" color-interpolation-filters="sRGB"><feFuncR type="linear" slope="0" intercept="0.0"/><feFuncG type="linear" slope="0" intercept="0.0"/><feFuncB type="linear" slope="0" intercept="0.0"/><feFuncA type="linear" slope="1.0" intercept="0"/></feComponentTransfer></filter></defs><g id="g5d031e9e09_0_1474.2"><path fill="#000000" fill-opacity="0.0" d="m572.83203 116.35171l321.51178 0l0 41.16535l-321.51178 0z" fill-rule="evenodd"/><path fill="#ffffff" d="m706.5662 143.2717l-2.9375 0l-1.171875 -3.03125l-5.328125 0l-1.109375 3.03125l-2.859375 0l5.203125 -13.359375l2.84375 0l5.359375 13.359375zm-4.96875 -5.28125l-1.84375 -4.953125l-1.796875 4.953125l3.640625 0zm12.597961 0.375l0 -2.25l5.8125 0l0 5.3125q-0.84375 0.828125 -2.453125 1.453125q-1.609375 0.625 -3.25 0.625q-2.09375 0 -3.65625 -0.875q-1.5625 -0.890625 -2.34375 -2.515625q-0.78125 -1.640625 -0.78125 -3.5625q0 -2.09375 0.875 -3.703125q0.875 -1.625 2.5625 -2.5q1.28125 -0.65625 3.203125 -0.65625q2.484375 0 3.875 1.046875q1.40625 1.03125 1.796875 2.875l-2.671875 0.5q-0.28125 -0.984375 -1.0625 -1.546875q-0.78125 -0.578125 -1.9375 -0.578125q-1.78125 0 -2.828125 1.125q-1.03125 1.125 -1.03125 3.328125q0 2.375 1.046875 3.5625q1.0625 1.1875 2.78125 1.1875q0.84375 0 1.6875 -0.328125q0.859375 -0.328125 1.46875 -0.8125l0 -1.6875l-3.09375 0zm8.308289 4.90625l0 -13.359375l9.90625 0l0 2.265625l-7.21875 0l0 2.953125l6.71875 0l0 2.25l-6.71875 0l0 3.640625l7.46875 0l0 2.25l-10.15625 0zm12.4748535 0l0 -13.359375l2.625 0l5.453125 8.921875l0 -8.921875l2.515625 0l0 13.359375l-2.703125 0l-5.390625 -8.703125l0 8.703125l-2.5 0zm16.44165 0l0 -11.09375l-3.953125 0l0 -2.265625l10.609375 0l0 2.265625l-3.953125 0l0 11.09375l-2.703125 0zm21.65741 -2.375l0 2.375l-8.96875 0q0.140625 -1.34375 0.859375 -2.546875q0.734375 -1.21875 2.890625 -3.203125q1.734375 -1.625 2.125 -2.1875q0.53125 -0.796875 0.53125 -1.578125q0 -0.84375 -0.46875 -1.296875q-0.453125 -0.46875 -1.265625 -0.46875q-0.796875 0 -1.28125 0.484375q-0.46875 0.46875 -0.546875 1.59375l-2.546875 -0.25q0.234375 -2.109375 1.421875 -3.03125q1.203125 -0.921875 3.015625 -0.921875q1.96875 0 3.09375 1.0625q1.140625 1.0625 1.140625 2.65625q0 0.890625 -0.328125 1.71875q-0.3125 0.8125 -1.015625 1.703125q-0.46875 0.59375 -1.6875 1.703125q-1.203125 1.109375 -1.53125 1.484375q-0.3125 0.359375 -0.515625 0.703125l5.078125 0z" fill-rule="nonzero"/></g></g></svg>